M48
;DRILL file {KiCad 5.0.2+dfsg1-1} date tor 11 feb 2021 15:39:04
;FORMAT={-:-/ absolute / inch / decimal}
FMAT,2
INCH,TZ
T1C0.0118
T2C0.0197
T3C0.0354
T4C0.0394
T5C0.0402
T6C0.0512
T7C0.1063
T8C0.0630
T9C0.1280
%
G90
G05
T1
X5.5118Y-1.5748
X5.5118Y-1.7717
X5.5118Y-1.9685
X5.5118Y-2.1654
X5.5118Y-2.3622
X5.5118Y-2.5591
X5.5118Y-2.7559
X5.5118Y-2.9528
X5.5118Y-3.1496
X5.5118Y-3.3465
X5.5118Y-3.5433
X5.5118Y-3.7402
X5.5118Y-3.937
X5.5118Y-4.1339
X5.5118Y-4.3307
X5.5118Y-4.5276
X5.5118Y-4.7244
X5.5118Y-4.9213
X5.7087Y-1.5748
X5.7087Y-1.7717
X5.7087Y-2.1654
X5.7087Y-2.3622
X5.7087Y-2.7559
X5.7087Y-2.9528
X5.7087Y-3.1496
X5.7087Y-3.3465
X5.7087Y-4.9213
X5.9055Y-1.5748
X5.9055Y-1.7717
X5.9055Y-1.9685
X5.9055Y-2.1654
X5.9055Y-2.3622
X5.9055Y-2.3622
X5.9055Y-2.3622
X5.9055Y-2.7559
X5.9055Y-3.1496
X5.9055Y-3.3465
X5.9055Y-3.5433
X5.9055Y-3.7402
X5.9055Y-3.937
X5.9055Y-4.1339
X5.9055Y-4.9213
X5.9975Y-4.2327
X6.1024Y-1.5748
X6.1024Y-1.7717
X6.1024Y-1.9685
X6.1024Y-2.3622
X6.1024Y-2.7559
X6.1024Y-2.9528
X6.1024Y-3.1496
X6.1024Y-3.3465
X6.1024Y-3.5433
X6.1024Y-3.7402
X6.1024Y-3.937
X6.1024Y-4.1339
X6.1024Y-4.9213
X6.1835Y-4.9279
X6.1929Y-4.1969
X6.2182Y-4.2536
X6.2992Y-1.5748
X6.2992Y-1.7717
X6.2992Y-1.9685
X6.2992Y-2.3622
X6.2992Y-2.3622
X6.2992Y-2.3622
X6.2992Y-2.5591
X6.2992Y-2.9528
X6.2992Y-3.1496
X6.3071Y-2.75
X6.3071Y-2.7953
X6.3071Y-2.8425
X6.3268Y-4.2756
X6.3931Y-4.8171
X6.4078Y-4.9622
X6.4197Y-4.8657
X6.4421Y-4.2
X6.4447Y-4.8197
X6.4492Y-3.5945
X6.4528Y-3.2866
X6.4564Y-4.3956
X6.4575Y-3.4031
X6.4961Y-1.5748
X6.4961Y-1.7717
X6.4961Y-1.9685
X6.4961Y-2.3622
X6.4961Y-3.1496
X6.4961Y-3.7402
X6.4961Y-3.937
X6.5029Y-4.8635
X6.5159Y-3.5454
X6.5439Y-4.8772
X6.5441Y-4.6828
X6.5443Y-4.9116
X6.5507Y-4.5592
X6.5545Y-4.9493
X6.5669Y-4.065
X6.5728Y-4.3445
X6.5748Y-3.2323
X6.5915Y-4.9434
X6.5965Y-4.5768
X6.6253Y-4.7193
X6.6386Y-4.5035
X6.6396Y-3.4044
X6.6396Y-3.501
X6.6396Y-3.5457
X6.6476Y-4.0394
X6.6567Y-4.0791
X6.6632Y-3.0762
X6.6929Y-1.5748
X6.6929Y-1.7717
X6.6929Y-1.9685
X6.6929Y-2.3622
X6.6929Y-2.5591
X6.6932Y-4.1606
X6.6988Y-4.5748
X6.7003Y-3.8979
X6.7028Y-3.9508
X6.7128Y-4.646
X6.7131Y-4.2928
X6.7334Y-3.0112
X6.7382Y-4.7185
X6.7457Y-2.9463
X6.7483Y-3.6965
X6.7522Y-3.1271
X6.8087Y-3.5937
X6.811Y-3.1575
X6.8463Y-4.0511
X6.8564Y-4.4162
X6.8593Y-3.7844
X6.8643Y-4.9581
X6.8717Y-3.2327
X6.8736Y-4.2177
X6.8776Y-3.5937
X6.8823Y-4.3843
X6.8829Y-4.0136
X6.8843Y-4.0862
X6.8898Y-1.5748
X6.8898Y-1.7717
X6.8898Y-1.9685
X6.8898Y-2.3622
X6.8898Y-2.5591
X6.8898Y-3.1496
X6.9015Y-4.7789
X6.9065Y-3.7579
X6.9201Y-4.6244
X6.9378Y-4.1906
X6.9409Y-4.5453
X6.9425Y-4.226
X6.9468Y-4.7437
X6.9555Y-4.1599
X6.9594Y-4.3567
X6.9765Y-4.0845
X6.9952Y-4.4294
X6.9971Y-3.6026
X7.0015Y-3.5221
X7.0017Y-3.5711
X7.0078Y-4.1229
X7.0079Y-3.7629
X7.0094Y-4.1918
X7.0213Y-4.9586
X7.0253Y-3.7357
X7.0255Y-5.175
X7.0315Y-4.6693
X7.0411Y-3.9289
X7.0472Y-3.4449
X7.0547Y-3.137
X7.057Y-4.116
X7.0629Y-4.049
X7.0866Y-1.5748
X7.0866Y-1.7717
X7.0866Y-1.9685
X7.0866Y-2.3622
X7.0965Y-4.685
X7.098Y-3.7361
X7.0984Y-3.5709
X7.1142Y-3.4291
X7.1171Y-4.2325
X7.1274Y-4.511
X7.1378Y-4.7697
X7.1384Y-4.0796
X7.1517Y-4.3778
X7.1529Y-4.1096
X7.1531Y-3.1606
X7.163Y-3.0343
X7.1688Y-2.9718
X7.1693Y-4.477
X7.1693Y-3.098
X7.1693Y-4.9134
X7.173Y-3.4037
X7.1835Y-3.2394
X7.1932Y-4.7603
X7.212Y-3.4829
X7.2268Y-4.6626
X7.2323Y-3.361
X7.2352Y-3.9163
X7.2414Y-4.2086
X7.2424Y-4.2416
X7.2441Y-4.9646
X7.2553Y-4.1123
X7.2576Y-4.531
X7.2601Y-2.5621
X7.2651Y-3.9489
X7.2666Y-4.1793
X7.2835Y-1.5748
X7.2835Y-1.7717
X7.2835Y-2.1654
X7.289Y-4.6626
X7.2945Y-2.9173
X7.2984Y-4.205
X7.3136Y-4.6838
X7.3153Y-4.7679
X7.3159Y-4.1779
X7.3354Y-2.4461
X7.3362Y-2.6102
X7.3365Y-4.0737
X7.3382Y-3.1606
X7.3402Y-3.124
X7.3406Y-3.9
X7.3425Y-4.3632
X7.3435Y-3.8199
X7.3469Y-4.663
X7.3484Y-3.9382
X7.3539Y-2.7547
X7.3539Y-3.0181
X7.3652Y-3.7923
X7.3666Y-2.6389
X7.367Y-2.9165
X7.3677Y-3.226
X7.368Y-4.0813
X7.374Y-3.1102
X7.3761Y-3.4119
X7.3809Y-4.3622
X7.4094Y-4.6575
X7.4435Y-3.4007
X7.449Y-5.018
X7.4567Y-4.7854
X7.4626Y-4.7146
X7.4665Y-4.6622
X7.4685Y-4.75
X7.4787Y-3.8705
X7.4803Y-1.5748
X7.4803Y-1.7717
X7.4803Y-1.9685
X7.484Y-3.9508
X7.4843Y-2.6925
X7.4862Y-4.113
X7.4874Y-2.8031
X7.4878Y-2.949
X7.4999Y-4.3997
X7.5071Y-3.5042
X7.5112Y-3.8953
X7.5157Y-3.0953
X7.5287Y-4.6626
X7.542Y-2.8723
X7.5426Y-2.7509
X7.5472Y-3.8955
X7.5531Y-2.562
X7.5689Y-4.3957
X7.5732Y-2.8976
X7.5797Y-4.2736
X7.5874Y-2.748
X7.5898Y-3.0563
X7.5952Y-2.9277
X7.596Y-4.1052
X7.6Y-2.8744
X7.6022Y-4.8392
X7.6041Y-3.5196
X7.606Y-4.6807
X7.6131Y-4.1404
X7.6319Y-5.061
X7.6339Y-4.3356
X7.6367Y-3.5052
X7.6378Y-4.2328
X7.6462Y-3.1061
X7.6508Y-3.4079
X7.6545Y-4.2717
X7.6631Y-3.2618
X7.6677Y-3.5832
X7.6772Y-1.5748
X7.6772Y-1.9685
X7.6791Y-3.5
X7.6803Y-3.0575
X7.6808Y-3.0968
X7.6886Y-2.7787
X7.6891Y-4.2589
X7.69Y-4.3604
X7.6906Y-4.5667
X7.6929Y-3.6083
X7.6998Y-3.2648
X7.7087Y-4.2854
X7.7105Y-3.1857
X7.7106Y-2.748
X7.7117Y-3.9499
X7.7142Y-2.6339
X7.7192Y-3.4004
X7.7224Y-3.0571
X7.7524Y-2.8752
X7.7574Y-3.9958
X7.7574Y-4.859
X7.7598Y-3.8622
X7.7736Y-3.5472
X7.7809Y-4.9519
X7.7853Y-3.3849
X7.7946Y-2.9273
X7.8056Y-4.9785
X7.8366Y-3.4843
X7.8366Y-3.563
X7.8428Y-4.4831
X7.8494Y-4.44
X7.8567Y-3.7524
X7.8622Y-3.061
X7.8622Y-3.1496
X7.8622Y-3.6901
X7.8716Y-3.4385
X7.874Y-1.5748
X7.8764Y-4.8882
X7.8781Y-4.3594
X7.8913Y-2.6339
X7.9009Y-4.52
X7.9027Y-4.57
X7.9071Y-2.8752
X7.9096Y-4.3577
X7.9127Y-4.4603
X7.918Y-4.659
X7.9255Y-4.387
X7.9331Y-2.9488
X7.9398Y-2.4752
X7.9464Y-3.5286
X7.9476Y-4.1854
X7.9512Y-4.1236
X7.9523Y-2.7424
X7.9642Y-3.5906
X7.9764Y-3.5571
X7.9837Y-3.6329
X7.9862Y-3.4035
X7.9906Y-4.9488
X8.0059Y-4.3199
X8.0087Y-3.1124
X8.0177Y-4.2884
X8.0458Y-3.4119
X8.0525Y-3.6696
X8.0542Y-4.2314
X8.0586Y-3.5339
X8.0709Y-1.7717
X8.0709Y-1.9685
X8.0709Y-2.1654
X8.0709Y-2.3622
X8.0709Y-2.5591
X8.1251Y-4.9248
X8.148Y-4.7764
X8.1496Y-3.2441
X8.1843Y-3.9675
X8.1887Y-2.2575
X8.2136Y-2.4869
X8.2291Y-4.9534
X8.2303Y-4.0433
X8.2323Y-3.9705
X8.2461Y-3.7081
X8.2677Y-1.7717
X8.2677Y-2.3622
X8.2677Y-2.5591
X8.2677Y-3.5433
X8.2677Y-4.7244
X8.2681Y-4.0133
X8.2697Y-5.2793
X8.2772Y-3.7327
X8.3007Y-3.9956
X8.4119Y-4.8867
X8.4646Y-1.5748
X8.4646Y-1.9685
X8.4646Y-3.5433
X8.4646Y-4.3307
X8.4646Y-4.7244
X8.4701Y-3.9493
X8.6614Y-1.5748
X8.6614Y-1.9685
X8.6614Y-2.5591
X8.6614Y-2.7559
X8.6614Y-3.5433
X8.6614Y-3.7402
X8.6614Y-4.1339
X8.6614Y-4.3307
X8.6614Y-4.7244
X8.6614Y-4.9213
X8.6614Y-5.1181
X8.8583Y-1.5748
X8.8583Y-1.7717
X8.8583Y-2.5591
X8.8583Y-2.7559
X8.8583Y-3.5433
X8.8583Y-3.7402
X8.8583Y-3.937
X8.8583Y-3.937
X8.8583Y-3.937
X8.8583Y-3.937
X8.8583Y-3.937
X8.8583Y-4.1339
X8.8583Y-4.3307
X8.8583Y-5.1181
X9.0551Y-1.5748
X9.0551Y-1.7717
X9.0551Y-1.9685
X9.0551Y-2.1654
X9.0551Y-2.3622
X9.0551Y-2.5591
X9.0551Y-2.7559
X9.0551Y-2.9528
X9.0551Y-3.1496
X9.0551Y-3.3465
X9.0551Y-3.5433
X9.0551Y-3.7402
X9.0551Y-4.1339
X9.0551Y-4.3307
X9.0551Y-4.5276
X9.0551Y-4.7244
X9.0551Y-4.9213
X9.0551Y-5.1181
T2
X6.0161Y-2.2937
X6.1315Y-2.4165
X6.2135Y-2.2901
X6.2819Y-3.2913
X6.2858Y-3.4882
X6.287Y-3.6846
X6.289Y-3.8819
X6.3295Y-4.3598
X6.3303Y-4.5547
X6.3338Y-4.7524
X6.4126Y-2.2965
X6.4335Y-2.8583
X6.6076Y-2.2904
X6.8059Y-2.2925
X7.0024Y-2.3
X8.0575Y-2.9213
X8.0575Y-3.1185
X8.0591Y-3.3157
X8.3094Y-1.848
X8.3102Y-1.7476
X8.3104Y-2.6226
X8.3104Y-2.673
X8.3106Y-1.7976
X8.3106Y-2.2976
X8.3106Y-2.5726
X8.3107Y-2.3476
X8.3117Y-2.398
X8.3123Y-2.0226
X8.3133Y-2.0726
X8.3147Y-2.123
X8.3429Y-3.6197
X8.3429Y-3.8169
X8.3437Y-4.2106
X8.3441Y-4.0138
X8.5161Y-3.0457
X8.5197Y-2.8484
X8.5224Y-3.2425
T3
X7.4334Y-2.176
X7.4834Y-2.076
X7.5334Y-2.176
X7.5834Y-2.076
X7.6334Y-2.176
X7.6834Y-2.076
X7.7334Y-2.176
X7.7834Y-2.076
T4
X7.763Y-5.0374
X7.763Y-5.1374
X7.863Y-5.0374
X7.863Y-5.1374
X7.963Y-5.0374
X7.963Y-5.1374
X8.063Y-5.0374
X8.063Y-5.1374
X8.163Y-5.0374
X8.163Y-5.1374
X8.263Y-5.0374
X8.263Y-5.1374
X8.363Y-5.0374
X8.363Y-5.1374
X8.463Y-5.0374
X8.463Y-5.1374
X8.563Y-5.0374
X8.563Y-5.1374
X8.56Y-4.52
X8.56Y-4.62
X5.4875Y-5.035
X5.4875Y-5.135
X5.5875Y-5.035
X5.5875Y-5.135
X5.6875Y-5.035
X5.6875Y-5.135
X5.7875Y-5.035
X5.7875Y-5.135
X5.8875Y-5.035
X5.8875Y-5.135
X5.9875Y-5.035
X5.9875Y-5.135
X6.0875Y-5.035
X6.0875Y-5.135
X6.1875Y-5.035
X6.1875Y-5.135
X6.2875Y-5.035
X6.2875Y-5.135
X6.3875Y-5.035
X6.3875Y-5.135
X6.4875Y-5.035
X6.4875Y-5.135
X6.5875Y-5.035
X6.5875Y-5.135
X6.6875Y-5.035
X6.6875Y-5.135
X6.7875Y-5.035
X6.7875Y-5.135
X6.8875Y-5.035
X6.8875Y-5.135
X6.9875Y-5.035
X6.9875Y-5.135
X7.0875Y-5.035
X7.0875Y-5.135
X7.1875Y-5.035
X7.1875Y-5.135
X7.2875Y-5.035
X7.2875Y-5.135
X7.3875Y-5.035
X7.3875Y-5.135
X6.7258Y-2.6415
X6.7258Y-2.7415
X6.7258Y-2.8415
X6.8258Y-2.6415
X6.8258Y-2.7415
X6.8258Y-2.8415
T5
X7.3933Y-2.3661
X7.4933Y-2.3661
X7.7236Y-2.3661
X7.8236Y-2.3661
T6
X8.9173Y-3.6575
X8.9173Y-3.8543
X8.9173Y-4.0512
X8.9173Y-4.248
X5.6181Y-3.2539
X5.6181Y-3.4508
X5.6181Y-3.6476
X5.6181Y-3.8445
X8.9352Y-1.6635
X8.9352Y-1.8604
X8.9352Y-2.0572
X8.9352Y-2.2541
X8.9352Y-2.4509
X8.9352Y-2.6478
X8.9173Y-4.5709
X8.9173Y-4.7677
X8.9173Y-4.9646
X5.62Y-2.54
X5.62Y-2.7369
X5.62Y-2.9337
X8.9158Y-2.9592
X8.9158Y-3.1561
X8.9158Y-3.3529
X5.6327Y-4.3219
X5.6327Y-4.5187
X5.6327Y-4.7156
X6.0551Y-1.6917
X6.252Y-1.6917
X6.4488Y-1.6917
X6.6457Y-1.6917
X6.8425Y-1.6917
X7.0394Y-1.6917
X5.622Y-1.6969
X5.622Y-1.8937
X5.622Y-2.0906
T7
X8.1583Y-1.5583
X6.3307Y-4.0236
X8.2205Y-4.2638
X6.4252Y-2.5276
T8
X7.2974Y-1.9461
X7.9194Y-1.9461
T9
X7.3834Y-1.826
X7.8334Y-1.826
T0
M30
