%TF.GenerationSoftware,KiCad,Pcbnew,5.0.2+dfsg1-1*%
%TF.CreationDate,2021-02-11T15:39:11+01:00*%
%TF.ProjectId,ETH OPAMP DCMI FSMC CAN ENCODER CS1000,45544820-4f50-4414-9d50-2044434d4920,rev?*%
%TF.SameCoordinates,Original*%
%TF.FileFunction,Soldermask,Bot*%
%TF.FilePolarity,Negative*%
%FSLAX46Y46*%
G04 Gerber Fmt 4.6, Leading zero omitted, Abs format (unit mm)*
G04 Created by KiCad (PCBNEW 5.0.2+dfsg1-1) date tor 11 feb 2021 15:39:11*
%MOMM*%
%LPD*%
G01*
G04 APERTURE LIST*
%ADD10C,0.100000*%
G04 APERTURE END LIST*
D10*
G36*
X197290443Y-129595519D02*
X197356627Y-129602037D01*
X197469853Y-129636384D01*
X197526467Y-129653557D01*
X197665087Y-129727652D01*
X197682991Y-129737222D01*
X197718729Y-129766552D01*
X197820186Y-129849814D01*
X197882718Y-129926011D01*
X197932778Y-129987009D01*
X197932779Y-129987011D01*
X198016443Y-130143533D01*
X198016443Y-130143534D01*
X198067963Y-130313373D01*
X198085359Y-130490000D01*
X198067963Y-130666627D01*
X198034947Y-130775466D01*
X198016443Y-130836467D01*
X197942348Y-130975087D01*
X197932778Y-130992991D01*
X197903448Y-131028729D01*
X197820186Y-131130186D01*
X197718729Y-131213448D01*
X197682991Y-131242778D01*
X197682989Y-131242779D01*
X197526467Y-131326443D01*
X197469853Y-131343616D01*
X197356627Y-131377963D01*
X197290443Y-131384481D01*
X197224260Y-131391000D01*
X197135740Y-131391000D01*
X197069557Y-131384481D01*
X197003373Y-131377963D01*
X196890147Y-131343616D01*
X196833533Y-131326443D01*
X196677011Y-131242779D01*
X196677009Y-131242778D01*
X196641271Y-131213448D01*
X196539814Y-131130186D01*
X196456552Y-131028729D01*
X196427222Y-130992991D01*
X196417652Y-130975087D01*
X196343557Y-130836467D01*
X196325053Y-130775466D01*
X196292037Y-130666627D01*
X196274641Y-130490000D01*
X196292037Y-130313373D01*
X196343557Y-130143534D01*
X196343557Y-130143533D01*
X196427221Y-129987011D01*
X196427222Y-129987009D01*
X196477282Y-129926011D01*
X196539814Y-129849814D01*
X196641271Y-129766552D01*
X196677009Y-129737222D01*
X196694913Y-129727652D01*
X196833533Y-129653557D01*
X196890147Y-129636384D01*
X197003373Y-129602037D01*
X197069557Y-129595519D01*
X197135740Y-129589000D01*
X197224260Y-129589000D01*
X197290443Y-129595519D01*
X197290443Y-129595519D01*
G37*
G36*
X215070443Y-129595519D02*
X215136627Y-129602037D01*
X215249853Y-129636384D01*
X215306467Y-129653557D01*
X215445087Y-129727652D01*
X215462991Y-129737222D01*
X215498729Y-129766552D01*
X215600186Y-129849814D01*
X215662718Y-129926011D01*
X215712778Y-129987009D01*
X215712779Y-129987011D01*
X215796443Y-130143533D01*
X215796443Y-130143534D01*
X215847963Y-130313373D01*
X215865359Y-130490000D01*
X215847963Y-130666627D01*
X215814947Y-130775466D01*
X215796443Y-130836467D01*
X215722348Y-130975087D01*
X215712778Y-130992991D01*
X215683448Y-131028729D01*
X215600186Y-131130186D01*
X215498729Y-131213448D01*
X215462991Y-131242778D01*
X215462989Y-131242779D01*
X215306467Y-131326443D01*
X215249853Y-131343616D01*
X215136627Y-131377963D01*
X215070443Y-131384481D01*
X215004260Y-131391000D01*
X214915740Y-131391000D01*
X214849557Y-131384481D01*
X214783373Y-131377963D01*
X214670147Y-131343616D01*
X214613533Y-131326443D01*
X214457011Y-131242779D01*
X214457009Y-131242778D01*
X214421271Y-131213448D01*
X214319814Y-131130186D01*
X214236552Y-131028729D01*
X214207222Y-130992991D01*
X214197652Y-130975087D01*
X214123557Y-130836467D01*
X214105053Y-130775466D01*
X214072037Y-130666627D01*
X214054641Y-130490000D01*
X214072037Y-130313373D01*
X214123557Y-130143534D01*
X214123557Y-130143533D01*
X214207221Y-129987011D01*
X214207222Y-129987009D01*
X214257282Y-129926011D01*
X214319814Y-129849814D01*
X214421271Y-129766552D01*
X214457009Y-129737222D01*
X214474913Y-129727652D01*
X214613533Y-129653557D01*
X214670147Y-129636384D01*
X214783373Y-129602037D01*
X214849557Y-129595519D01*
X214915740Y-129589000D01*
X215004260Y-129589000D01*
X215070443Y-129595519D01*
X215070443Y-129595519D01*
G37*
G36*
X217610443Y-129595519D02*
X217676627Y-129602037D01*
X217789853Y-129636384D01*
X217846467Y-129653557D01*
X217985087Y-129727652D01*
X218002991Y-129737222D01*
X218038729Y-129766552D01*
X218140186Y-129849814D01*
X218202718Y-129926011D01*
X218252778Y-129987009D01*
X218252779Y-129987011D01*
X218336443Y-130143533D01*
X218336443Y-130143534D01*
X218387963Y-130313373D01*
X218405359Y-130490000D01*
X218387963Y-130666627D01*
X218354947Y-130775466D01*
X218336443Y-130836467D01*
X218262348Y-130975087D01*
X218252778Y-130992991D01*
X218223448Y-131028729D01*
X218140186Y-131130186D01*
X218038729Y-131213448D01*
X218002991Y-131242778D01*
X218002989Y-131242779D01*
X217846467Y-131326443D01*
X217789853Y-131343616D01*
X217676627Y-131377963D01*
X217610443Y-131384481D01*
X217544260Y-131391000D01*
X217455740Y-131391000D01*
X217389557Y-131384481D01*
X217323373Y-131377963D01*
X217210147Y-131343616D01*
X217153533Y-131326443D01*
X216997011Y-131242779D01*
X216997009Y-131242778D01*
X216961271Y-131213448D01*
X216859814Y-131130186D01*
X216776552Y-131028729D01*
X216747222Y-130992991D01*
X216737652Y-130975087D01*
X216663557Y-130836467D01*
X216645053Y-130775466D01*
X216612037Y-130666627D01*
X216594641Y-130490000D01*
X216612037Y-130313373D01*
X216663557Y-130143534D01*
X216663557Y-130143533D01*
X216747221Y-129987011D01*
X216747222Y-129987009D01*
X216797282Y-129926011D01*
X216859814Y-129849814D01*
X216961271Y-129766552D01*
X216997009Y-129737222D01*
X217014913Y-129727652D01*
X217153533Y-129653557D01*
X217210147Y-129636384D01*
X217323373Y-129602037D01*
X217389557Y-129595519D01*
X217455740Y-129589000D01*
X217544260Y-129589000D01*
X217610443Y-129595519D01*
X217610443Y-129595519D01*
G37*
G36*
X212530443Y-129595519D02*
X212596627Y-129602037D01*
X212709853Y-129636384D01*
X212766467Y-129653557D01*
X212905087Y-129727652D01*
X212922991Y-129737222D01*
X212958729Y-129766552D01*
X213060186Y-129849814D01*
X213122718Y-129926011D01*
X213172778Y-129987009D01*
X213172779Y-129987011D01*
X213256443Y-130143533D01*
X213256443Y-130143534D01*
X213307963Y-130313373D01*
X213325359Y-130490000D01*
X213307963Y-130666627D01*
X213274947Y-130775466D01*
X213256443Y-130836467D01*
X213182348Y-130975087D01*
X213172778Y-130992991D01*
X213143448Y-131028729D01*
X213060186Y-131130186D01*
X212958729Y-131213448D01*
X212922991Y-131242778D01*
X212922989Y-131242779D01*
X212766467Y-131326443D01*
X212709853Y-131343616D01*
X212596627Y-131377963D01*
X212530443Y-131384481D01*
X212464260Y-131391000D01*
X212375740Y-131391000D01*
X212309557Y-131384481D01*
X212243373Y-131377963D01*
X212130147Y-131343616D01*
X212073533Y-131326443D01*
X211917011Y-131242779D01*
X211917009Y-131242778D01*
X211881271Y-131213448D01*
X211779814Y-131130186D01*
X211696552Y-131028729D01*
X211667222Y-130992991D01*
X211657652Y-130975087D01*
X211583557Y-130836467D01*
X211565053Y-130775466D01*
X211532037Y-130666627D01*
X211514641Y-130490000D01*
X211532037Y-130313373D01*
X211583557Y-130143534D01*
X211583557Y-130143533D01*
X211667221Y-129987011D01*
X211667222Y-129987009D01*
X211717282Y-129926011D01*
X211779814Y-129849814D01*
X211881271Y-129766552D01*
X211917009Y-129737222D01*
X211934913Y-129727652D01*
X212073533Y-129653557D01*
X212130147Y-129636384D01*
X212243373Y-129602037D01*
X212309557Y-129595519D01*
X212375740Y-129589000D01*
X212464260Y-129589000D01*
X212530443Y-129595519D01*
X212530443Y-129595519D01*
G37*
G36*
X209990443Y-129595519D02*
X210056627Y-129602037D01*
X210169853Y-129636384D01*
X210226467Y-129653557D01*
X210365087Y-129727652D01*
X210382991Y-129737222D01*
X210418729Y-129766552D01*
X210520186Y-129849814D01*
X210582718Y-129926011D01*
X210632778Y-129987009D01*
X210632779Y-129987011D01*
X210716443Y-130143533D01*
X210716443Y-130143534D01*
X210767963Y-130313373D01*
X210785359Y-130490000D01*
X210767963Y-130666627D01*
X210734947Y-130775466D01*
X210716443Y-130836467D01*
X210642348Y-130975087D01*
X210632778Y-130992991D01*
X210603448Y-131028729D01*
X210520186Y-131130186D01*
X210418729Y-131213448D01*
X210382991Y-131242778D01*
X210382989Y-131242779D01*
X210226467Y-131326443D01*
X210169853Y-131343616D01*
X210056627Y-131377963D01*
X209990443Y-131384481D01*
X209924260Y-131391000D01*
X209835740Y-131391000D01*
X209769557Y-131384481D01*
X209703373Y-131377963D01*
X209590147Y-131343616D01*
X209533533Y-131326443D01*
X209377011Y-131242779D01*
X209377009Y-131242778D01*
X209341271Y-131213448D01*
X209239814Y-131130186D01*
X209156552Y-131028729D01*
X209127222Y-130992991D01*
X209117652Y-130975087D01*
X209043557Y-130836467D01*
X209025053Y-130775466D01*
X208992037Y-130666627D01*
X208974641Y-130490000D01*
X208992037Y-130313373D01*
X209043557Y-130143534D01*
X209043557Y-130143533D01*
X209127221Y-129987011D01*
X209127222Y-129987009D01*
X209177282Y-129926011D01*
X209239814Y-129849814D01*
X209341271Y-129766552D01*
X209377009Y-129737222D01*
X209394913Y-129727652D01*
X209533533Y-129653557D01*
X209590147Y-129636384D01*
X209703373Y-129602037D01*
X209769557Y-129595519D01*
X209835740Y-129589000D01*
X209924260Y-129589000D01*
X209990443Y-129595519D01*
X209990443Y-129595519D01*
G37*
G36*
X204910443Y-129595519D02*
X204976627Y-129602037D01*
X205089853Y-129636384D01*
X205146467Y-129653557D01*
X205285087Y-129727652D01*
X205302991Y-129737222D01*
X205338729Y-129766552D01*
X205440186Y-129849814D01*
X205502718Y-129926011D01*
X205552778Y-129987009D01*
X205552779Y-129987011D01*
X205636443Y-130143533D01*
X205636443Y-130143534D01*
X205687963Y-130313373D01*
X205705359Y-130490000D01*
X205687963Y-130666627D01*
X205654947Y-130775466D01*
X205636443Y-130836467D01*
X205562348Y-130975087D01*
X205552778Y-130992991D01*
X205523448Y-131028729D01*
X205440186Y-131130186D01*
X205338729Y-131213448D01*
X205302991Y-131242778D01*
X205302989Y-131242779D01*
X205146467Y-131326443D01*
X205089853Y-131343616D01*
X204976627Y-131377963D01*
X204910443Y-131384481D01*
X204844260Y-131391000D01*
X204755740Y-131391000D01*
X204689557Y-131384481D01*
X204623373Y-131377963D01*
X204510147Y-131343616D01*
X204453533Y-131326443D01*
X204297011Y-131242779D01*
X204297009Y-131242778D01*
X204261271Y-131213448D01*
X204159814Y-131130186D01*
X204076552Y-131028729D01*
X204047222Y-130992991D01*
X204037652Y-130975087D01*
X203963557Y-130836467D01*
X203945053Y-130775466D01*
X203912037Y-130666627D01*
X203894641Y-130490000D01*
X203912037Y-130313373D01*
X203963557Y-130143534D01*
X203963557Y-130143533D01*
X204047221Y-129987011D01*
X204047222Y-129987009D01*
X204097282Y-129926011D01*
X204159814Y-129849814D01*
X204261271Y-129766552D01*
X204297009Y-129737222D01*
X204314913Y-129727652D01*
X204453533Y-129653557D01*
X204510147Y-129636384D01*
X204623373Y-129602037D01*
X204689557Y-129595519D01*
X204755740Y-129589000D01*
X204844260Y-129589000D01*
X204910443Y-129595519D01*
X204910443Y-129595519D01*
G37*
G36*
X207450443Y-129595519D02*
X207516627Y-129602037D01*
X207629853Y-129636384D01*
X207686467Y-129653557D01*
X207825087Y-129727652D01*
X207842991Y-129737222D01*
X207878729Y-129766552D01*
X207980186Y-129849814D01*
X208042718Y-129926011D01*
X208092778Y-129987009D01*
X208092779Y-129987011D01*
X208176443Y-130143533D01*
X208176443Y-130143534D01*
X208227963Y-130313373D01*
X208245359Y-130490000D01*
X208227963Y-130666627D01*
X208194947Y-130775466D01*
X208176443Y-130836467D01*
X208102348Y-130975087D01*
X208092778Y-130992991D01*
X208063448Y-131028729D01*
X207980186Y-131130186D01*
X207878729Y-131213448D01*
X207842991Y-131242778D01*
X207842989Y-131242779D01*
X207686467Y-131326443D01*
X207629853Y-131343616D01*
X207516627Y-131377963D01*
X207450443Y-131384481D01*
X207384260Y-131391000D01*
X207295740Y-131391000D01*
X207229557Y-131384481D01*
X207163373Y-131377963D01*
X207050147Y-131343616D01*
X206993533Y-131326443D01*
X206837011Y-131242779D01*
X206837009Y-131242778D01*
X206801271Y-131213448D01*
X206699814Y-131130186D01*
X206616552Y-131028729D01*
X206587222Y-130992991D01*
X206577652Y-130975087D01*
X206503557Y-130836467D01*
X206485053Y-130775466D01*
X206452037Y-130666627D01*
X206434641Y-130490000D01*
X206452037Y-130313373D01*
X206503557Y-130143534D01*
X206503557Y-130143533D01*
X206587221Y-129987011D01*
X206587222Y-129987009D01*
X206637282Y-129926011D01*
X206699814Y-129849814D01*
X206801271Y-129766552D01*
X206837009Y-129737222D01*
X206854913Y-129727652D01*
X206993533Y-129653557D01*
X207050147Y-129636384D01*
X207163373Y-129602037D01*
X207229557Y-129595519D01*
X207295740Y-129589000D01*
X207384260Y-129589000D01*
X207450443Y-129595519D01*
X207450443Y-129595519D01*
G37*
G36*
X199830443Y-129595519D02*
X199896627Y-129602037D01*
X200009853Y-129636384D01*
X200066467Y-129653557D01*
X200205087Y-129727652D01*
X200222991Y-129737222D01*
X200258729Y-129766552D01*
X200360186Y-129849814D01*
X200422718Y-129926011D01*
X200472778Y-129987009D01*
X200472779Y-129987011D01*
X200556443Y-130143533D01*
X200556443Y-130143534D01*
X200607963Y-130313373D01*
X200625359Y-130490000D01*
X200607963Y-130666627D01*
X200574947Y-130775466D01*
X200556443Y-130836467D01*
X200482348Y-130975087D01*
X200472778Y-130992991D01*
X200443448Y-131028729D01*
X200360186Y-131130186D01*
X200258729Y-131213448D01*
X200222991Y-131242778D01*
X200222989Y-131242779D01*
X200066467Y-131326443D01*
X200009853Y-131343616D01*
X199896627Y-131377963D01*
X199830443Y-131384481D01*
X199764260Y-131391000D01*
X199675740Y-131391000D01*
X199609557Y-131384481D01*
X199543373Y-131377963D01*
X199430147Y-131343616D01*
X199373533Y-131326443D01*
X199217011Y-131242779D01*
X199217009Y-131242778D01*
X199181271Y-131213448D01*
X199079814Y-131130186D01*
X198996552Y-131028729D01*
X198967222Y-130992991D01*
X198957652Y-130975087D01*
X198883557Y-130836467D01*
X198865053Y-130775466D01*
X198832037Y-130666627D01*
X198814641Y-130490000D01*
X198832037Y-130313373D01*
X198883557Y-130143534D01*
X198883557Y-130143533D01*
X198967221Y-129987011D01*
X198967222Y-129987009D01*
X199017282Y-129926011D01*
X199079814Y-129849814D01*
X199181271Y-129766552D01*
X199217009Y-129737222D01*
X199234913Y-129727652D01*
X199373533Y-129653557D01*
X199430147Y-129636384D01*
X199543373Y-129602037D01*
X199609557Y-129595519D01*
X199675740Y-129589000D01*
X199764260Y-129589000D01*
X199830443Y-129595519D01*
X199830443Y-129595519D01*
G37*
G36*
X202370443Y-129595519D02*
X202436627Y-129602037D01*
X202549853Y-129636384D01*
X202606467Y-129653557D01*
X202745087Y-129727652D01*
X202762991Y-129737222D01*
X202798729Y-129766552D01*
X202900186Y-129849814D01*
X202962718Y-129926011D01*
X203012778Y-129987009D01*
X203012779Y-129987011D01*
X203096443Y-130143533D01*
X203096443Y-130143534D01*
X203147963Y-130313373D01*
X203165359Y-130490000D01*
X203147963Y-130666627D01*
X203114947Y-130775466D01*
X203096443Y-130836467D01*
X203022348Y-130975087D01*
X203012778Y-130992991D01*
X202983448Y-131028729D01*
X202900186Y-131130186D01*
X202798729Y-131213448D01*
X202762991Y-131242778D01*
X202762989Y-131242779D01*
X202606467Y-131326443D01*
X202549853Y-131343616D01*
X202436627Y-131377963D01*
X202370443Y-131384481D01*
X202304260Y-131391000D01*
X202215740Y-131391000D01*
X202149557Y-131384481D01*
X202083373Y-131377963D01*
X201970147Y-131343616D01*
X201913533Y-131326443D01*
X201757011Y-131242779D01*
X201757009Y-131242778D01*
X201721271Y-131213448D01*
X201619814Y-131130186D01*
X201536552Y-131028729D01*
X201507222Y-130992991D01*
X201497652Y-130975087D01*
X201423557Y-130836467D01*
X201405053Y-130775466D01*
X201372037Y-130666627D01*
X201354641Y-130490000D01*
X201372037Y-130313373D01*
X201423557Y-130143534D01*
X201423557Y-130143533D01*
X201507221Y-129987011D01*
X201507222Y-129987009D01*
X201557282Y-129926011D01*
X201619814Y-129849814D01*
X201721271Y-129766552D01*
X201757009Y-129737222D01*
X201774913Y-129727652D01*
X201913533Y-129653557D01*
X201970147Y-129636384D01*
X202083373Y-129602037D01*
X202149557Y-129595519D01*
X202215740Y-129589000D01*
X202304260Y-129589000D01*
X202370443Y-129595519D01*
X202370443Y-129595519D01*
G37*
G36*
X149652443Y-129534519D02*
X149718627Y-129541037D01*
X149831853Y-129575384D01*
X149888467Y-129592557D01*
X150002588Y-129653557D01*
X150044991Y-129676222D01*
X150080729Y-129705552D01*
X150182186Y-129788814D01*
X150232247Y-129849815D01*
X150294778Y-129926009D01*
X150294779Y-129926011D01*
X150378443Y-130082533D01*
X150378443Y-130082534D01*
X150429963Y-130252373D01*
X150447359Y-130429000D01*
X150429963Y-130605627D01*
X150411459Y-130666625D01*
X150378443Y-130775467D01*
X150345838Y-130836466D01*
X150294778Y-130931991D01*
X150265448Y-130967729D01*
X150182186Y-131069186D01*
X150107857Y-131130185D01*
X150044991Y-131181778D01*
X150044989Y-131181779D01*
X149888467Y-131265443D01*
X149831853Y-131282616D01*
X149718627Y-131316963D01*
X149652443Y-131323481D01*
X149586260Y-131330000D01*
X149497740Y-131330000D01*
X149431557Y-131323481D01*
X149365373Y-131316963D01*
X149252147Y-131282616D01*
X149195533Y-131265443D01*
X149039011Y-131181779D01*
X149039009Y-131181778D01*
X148976143Y-131130185D01*
X148901814Y-131069186D01*
X148818552Y-130967729D01*
X148789222Y-130931991D01*
X148738162Y-130836466D01*
X148705557Y-130775467D01*
X148672541Y-130666625D01*
X148654037Y-130605627D01*
X148636641Y-130429000D01*
X148654037Y-130252373D01*
X148705557Y-130082534D01*
X148705557Y-130082533D01*
X148789221Y-129926011D01*
X148789222Y-129926009D01*
X148851753Y-129849815D01*
X148901814Y-129788814D01*
X149003271Y-129705552D01*
X149039009Y-129676222D01*
X149081412Y-129653557D01*
X149195533Y-129592557D01*
X149252147Y-129575384D01*
X149365373Y-129541037D01*
X149431557Y-129534519D01*
X149497740Y-129528000D01*
X149586260Y-129528000D01*
X149652443Y-129534519D01*
X149652443Y-129534519D01*
G37*
G36*
X185212443Y-129534519D02*
X185278627Y-129541037D01*
X185391853Y-129575384D01*
X185448467Y-129592557D01*
X185562588Y-129653557D01*
X185604991Y-129676222D01*
X185640729Y-129705552D01*
X185742186Y-129788814D01*
X185792247Y-129849815D01*
X185854778Y-129926009D01*
X185854779Y-129926011D01*
X185938443Y-130082533D01*
X185938443Y-130082534D01*
X185989963Y-130252373D01*
X186007359Y-130429000D01*
X185989963Y-130605627D01*
X185971459Y-130666625D01*
X185938443Y-130775467D01*
X185905838Y-130836466D01*
X185854778Y-130931991D01*
X185825448Y-130967729D01*
X185742186Y-131069186D01*
X185667857Y-131130185D01*
X185604991Y-131181778D01*
X185604989Y-131181779D01*
X185448467Y-131265443D01*
X185391853Y-131282616D01*
X185278627Y-131316963D01*
X185212443Y-131323481D01*
X185146260Y-131330000D01*
X185057740Y-131330000D01*
X184991557Y-131323481D01*
X184925373Y-131316963D01*
X184812147Y-131282616D01*
X184755533Y-131265443D01*
X184599011Y-131181779D01*
X184599009Y-131181778D01*
X184536143Y-131130185D01*
X184461814Y-131069186D01*
X184378552Y-130967729D01*
X184349222Y-130931991D01*
X184298162Y-130836466D01*
X184265557Y-130775467D01*
X184232541Y-130666625D01*
X184214037Y-130605627D01*
X184196641Y-130429000D01*
X184214037Y-130252373D01*
X184265557Y-130082534D01*
X184265557Y-130082533D01*
X184349221Y-129926011D01*
X184349222Y-129926009D01*
X184411753Y-129849815D01*
X184461814Y-129788814D01*
X184563271Y-129705552D01*
X184599009Y-129676222D01*
X184641412Y-129653557D01*
X184755533Y-129592557D01*
X184812147Y-129575384D01*
X184925373Y-129541037D01*
X184991557Y-129534519D01*
X185057740Y-129528000D01*
X185146260Y-129528000D01*
X185212443Y-129534519D01*
X185212443Y-129534519D01*
G37*
G36*
X187752443Y-129534519D02*
X187818627Y-129541037D01*
X187931853Y-129575384D01*
X187988467Y-129592557D01*
X188102588Y-129653557D01*
X188144991Y-129676222D01*
X188180729Y-129705552D01*
X188282186Y-129788814D01*
X188332247Y-129849815D01*
X188394778Y-129926009D01*
X188394779Y-129926011D01*
X188478443Y-130082533D01*
X188478443Y-130082534D01*
X188529963Y-130252373D01*
X188547359Y-130429000D01*
X188529963Y-130605627D01*
X188511459Y-130666625D01*
X188478443Y-130775467D01*
X188445838Y-130836466D01*
X188394778Y-130931991D01*
X188365448Y-130967729D01*
X188282186Y-131069186D01*
X188207857Y-131130185D01*
X188144991Y-131181778D01*
X188144989Y-131181779D01*
X187988467Y-131265443D01*
X187931853Y-131282616D01*
X187818627Y-131316963D01*
X187752443Y-131323481D01*
X187686260Y-131330000D01*
X187597740Y-131330000D01*
X187531557Y-131323481D01*
X187465373Y-131316963D01*
X187352147Y-131282616D01*
X187295533Y-131265443D01*
X187139011Y-131181779D01*
X187139009Y-131181778D01*
X187076143Y-131130185D01*
X187001814Y-131069186D01*
X186918552Y-130967729D01*
X186889222Y-130931991D01*
X186838162Y-130836466D01*
X186805557Y-130775467D01*
X186772541Y-130666625D01*
X186754037Y-130605627D01*
X186736641Y-130429000D01*
X186754037Y-130252373D01*
X186805557Y-130082534D01*
X186805557Y-130082533D01*
X186889221Y-129926011D01*
X186889222Y-129926009D01*
X186951753Y-129849815D01*
X187001814Y-129788814D01*
X187103271Y-129705552D01*
X187139009Y-129676222D01*
X187181412Y-129653557D01*
X187295533Y-129592557D01*
X187352147Y-129575384D01*
X187465373Y-129541037D01*
X187531557Y-129534519D01*
X187597740Y-129528000D01*
X187686260Y-129528000D01*
X187752443Y-129534519D01*
X187752443Y-129534519D01*
G37*
G36*
X172512443Y-129534519D02*
X172578627Y-129541037D01*
X172691853Y-129575384D01*
X172748467Y-129592557D01*
X172862588Y-129653557D01*
X172904991Y-129676222D01*
X172940729Y-129705552D01*
X173042186Y-129788814D01*
X173092247Y-129849815D01*
X173154778Y-129926009D01*
X173154779Y-129926011D01*
X173238443Y-130082533D01*
X173238443Y-130082534D01*
X173289963Y-130252373D01*
X173307359Y-130429000D01*
X173289963Y-130605627D01*
X173271459Y-130666625D01*
X173238443Y-130775467D01*
X173205838Y-130836466D01*
X173154778Y-130931991D01*
X173125448Y-130967729D01*
X173042186Y-131069186D01*
X172967857Y-131130185D01*
X172904991Y-131181778D01*
X172904989Y-131181779D01*
X172748467Y-131265443D01*
X172691853Y-131282616D01*
X172578627Y-131316963D01*
X172512443Y-131323481D01*
X172446260Y-131330000D01*
X172357740Y-131330000D01*
X172291557Y-131323481D01*
X172225373Y-131316963D01*
X172112147Y-131282616D01*
X172055533Y-131265443D01*
X171899011Y-131181779D01*
X171899009Y-131181778D01*
X171836143Y-131130185D01*
X171761814Y-131069186D01*
X171678552Y-130967729D01*
X171649222Y-130931991D01*
X171598162Y-130836466D01*
X171565557Y-130775467D01*
X171532541Y-130666625D01*
X171514037Y-130605627D01*
X171496641Y-130429000D01*
X171514037Y-130252373D01*
X171565557Y-130082534D01*
X171565557Y-130082533D01*
X171649221Y-129926011D01*
X171649222Y-129926009D01*
X171711753Y-129849815D01*
X171761814Y-129788814D01*
X171863271Y-129705552D01*
X171899009Y-129676222D01*
X171941412Y-129653557D01*
X172055533Y-129592557D01*
X172112147Y-129575384D01*
X172225373Y-129541037D01*
X172291557Y-129534519D01*
X172357740Y-129528000D01*
X172446260Y-129528000D01*
X172512443Y-129534519D01*
X172512443Y-129534519D01*
G37*
G36*
X169972443Y-129534519D02*
X170038627Y-129541037D01*
X170151853Y-129575384D01*
X170208467Y-129592557D01*
X170322588Y-129653557D01*
X170364991Y-129676222D01*
X170400729Y-129705552D01*
X170502186Y-129788814D01*
X170552247Y-129849815D01*
X170614778Y-129926009D01*
X170614779Y-129926011D01*
X170698443Y-130082533D01*
X170698443Y-130082534D01*
X170749963Y-130252373D01*
X170767359Y-130429000D01*
X170749963Y-130605627D01*
X170731459Y-130666625D01*
X170698443Y-130775467D01*
X170665838Y-130836466D01*
X170614778Y-130931991D01*
X170585448Y-130967729D01*
X170502186Y-131069186D01*
X170427857Y-131130185D01*
X170364991Y-131181778D01*
X170364989Y-131181779D01*
X170208467Y-131265443D01*
X170151853Y-131282616D01*
X170038627Y-131316963D01*
X169972443Y-131323481D01*
X169906260Y-131330000D01*
X169817740Y-131330000D01*
X169751557Y-131323481D01*
X169685373Y-131316963D01*
X169572147Y-131282616D01*
X169515533Y-131265443D01*
X169359011Y-131181779D01*
X169359009Y-131181778D01*
X169296143Y-131130185D01*
X169221814Y-131069186D01*
X169138552Y-130967729D01*
X169109222Y-130931991D01*
X169058162Y-130836466D01*
X169025557Y-130775467D01*
X168992541Y-130666625D01*
X168974037Y-130605627D01*
X168956641Y-130429000D01*
X168974037Y-130252373D01*
X169025557Y-130082534D01*
X169025557Y-130082533D01*
X169109221Y-129926011D01*
X169109222Y-129926009D01*
X169171753Y-129849815D01*
X169221814Y-129788814D01*
X169323271Y-129705552D01*
X169359009Y-129676222D01*
X169401412Y-129653557D01*
X169515533Y-129592557D01*
X169572147Y-129575384D01*
X169685373Y-129541037D01*
X169751557Y-129534519D01*
X169817740Y-129528000D01*
X169906260Y-129528000D01*
X169972443Y-129534519D01*
X169972443Y-129534519D01*
G37*
G36*
X167432443Y-129534519D02*
X167498627Y-129541037D01*
X167611853Y-129575384D01*
X167668467Y-129592557D01*
X167782588Y-129653557D01*
X167824991Y-129676222D01*
X167860729Y-129705552D01*
X167962186Y-129788814D01*
X168012247Y-129849815D01*
X168074778Y-129926009D01*
X168074779Y-129926011D01*
X168158443Y-130082533D01*
X168158443Y-130082534D01*
X168209963Y-130252373D01*
X168227359Y-130429000D01*
X168209963Y-130605627D01*
X168191459Y-130666625D01*
X168158443Y-130775467D01*
X168125838Y-130836466D01*
X168074778Y-130931991D01*
X168045448Y-130967729D01*
X167962186Y-131069186D01*
X167887857Y-131130185D01*
X167824991Y-131181778D01*
X167824989Y-131181779D01*
X167668467Y-131265443D01*
X167611853Y-131282616D01*
X167498627Y-131316963D01*
X167432443Y-131323481D01*
X167366260Y-131330000D01*
X167277740Y-131330000D01*
X167211557Y-131323481D01*
X167145373Y-131316963D01*
X167032147Y-131282616D01*
X166975533Y-131265443D01*
X166819011Y-131181779D01*
X166819009Y-131181778D01*
X166756143Y-131130185D01*
X166681814Y-131069186D01*
X166598552Y-130967729D01*
X166569222Y-130931991D01*
X166518162Y-130836466D01*
X166485557Y-130775467D01*
X166452541Y-130666625D01*
X166434037Y-130605627D01*
X166416641Y-130429000D01*
X166434037Y-130252373D01*
X166485557Y-130082534D01*
X166485557Y-130082533D01*
X166569221Y-129926011D01*
X166569222Y-129926009D01*
X166631753Y-129849815D01*
X166681814Y-129788814D01*
X166783271Y-129705552D01*
X166819009Y-129676222D01*
X166861412Y-129653557D01*
X166975533Y-129592557D01*
X167032147Y-129575384D01*
X167145373Y-129541037D01*
X167211557Y-129534519D01*
X167277740Y-129528000D01*
X167366260Y-129528000D01*
X167432443Y-129534519D01*
X167432443Y-129534519D01*
G37*
G36*
X164892443Y-129534519D02*
X164958627Y-129541037D01*
X165071853Y-129575384D01*
X165128467Y-129592557D01*
X165242588Y-129653557D01*
X165284991Y-129676222D01*
X165320729Y-129705552D01*
X165422186Y-129788814D01*
X165472247Y-129849815D01*
X165534778Y-129926009D01*
X165534779Y-129926011D01*
X165618443Y-130082533D01*
X165618443Y-130082534D01*
X165669963Y-130252373D01*
X165687359Y-130429000D01*
X165669963Y-130605627D01*
X165651459Y-130666625D01*
X165618443Y-130775467D01*
X165585838Y-130836466D01*
X165534778Y-130931991D01*
X165505448Y-130967729D01*
X165422186Y-131069186D01*
X165347857Y-131130185D01*
X165284991Y-131181778D01*
X165284989Y-131181779D01*
X165128467Y-131265443D01*
X165071853Y-131282616D01*
X164958627Y-131316963D01*
X164892443Y-131323481D01*
X164826260Y-131330000D01*
X164737740Y-131330000D01*
X164671557Y-131323481D01*
X164605373Y-131316963D01*
X164492147Y-131282616D01*
X164435533Y-131265443D01*
X164279011Y-131181779D01*
X164279009Y-131181778D01*
X164216143Y-131130185D01*
X164141814Y-131069186D01*
X164058552Y-130967729D01*
X164029222Y-130931991D01*
X163978162Y-130836466D01*
X163945557Y-130775467D01*
X163912541Y-130666625D01*
X163894037Y-130605627D01*
X163876641Y-130429000D01*
X163894037Y-130252373D01*
X163945557Y-130082534D01*
X163945557Y-130082533D01*
X164029221Y-129926011D01*
X164029222Y-129926009D01*
X164091753Y-129849815D01*
X164141814Y-129788814D01*
X164243271Y-129705552D01*
X164279009Y-129676222D01*
X164321412Y-129653557D01*
X164435533Y-129592557D01*
X164492147Y-129575384D01*
X164605373Y-129541037D01*
X164671557Y-129534519D01*
X164737740Y-129528000D01*
X164826260Y-129528000D01*
X164892443Y-129534519D01*
X164892443Y-129534519D01*
G37*
G36*
X162352443Y-129534519D02*
X162418627Y-129541037D01*
X162531853Y-129575384D01*
X162588467Y-129592557D01*
X162702588Y-129653557D01*
X162744991Y-129676222D01*
X162780729Y-129705552D01*
X162882186Y-129788814D01*
X162932247Y-129849815D01*
X162994778Y-129926009D01*
X162994779Y-129926011D01*
X163078443Y-130082533D01*
X163078443Y-130082534D01*
X163129963Y-130252373D01*
X163147359Y-130429000D01*
X163129963Y-130605627D01*
X163111459Y-130666625D01*
X163078443Y-130775467D01*
X163045838Y-130836466D01*
X162994778Y-130931991D01*
X162965448Y-130967729D01*
X162882186Y-131069186D01*
X162807857Y-131130185D01*
X162744991Y-131181778D01*
X162744989Y-131181779D01*
X162588467Y-131265443D01*
X162531853Y-131282616D01*
X162418627Y-131316963D01*
X162352443Y-131323481D01*
X162286260Y-131330000D01*
X162197740Y-131330000D01*
X162131557Y-131323481D01*
X162065373Y-131316963D01*
X161952147Y-131282616D01*
X161895533Y-131265443D01*
X161739011Y-131181779D01*
X161739009Y-131181778D01*
X161676143Y-131130185D01*
X161601814Y-131069186D01*
X161518552Y-130967729D01*
X161489222Y-130931991D01*
X161438162Y-130836466D01*
X161405557Y-130775467D01*
X161372541Y-130666625D01*
X161354037Y-130605627D01*
X161336641Y-130429000D01*
X161354037Y-130252373D01*
X161405557Y-130082534D01*
X161405557Y-130082533D01*
X161489221Y-129926011D01*
X161489222Y-129926009D01*
X161551753Y-129849815D01*
X161601814Y-129788814D01*
X161703271Y-129705552D01*
X161739009Y-129676222D01*
X161781412Y-129653557D01*
X161895533Y-129592557D01*
X161952147Y-129575384D01*
X162065373Y-129541037D01*
X162131557Y-129534519D01*
X162197740Y-129528000D01*
X162286260Y-129528000D01*
X162352443Y-129534519D01*
X162352443Y-129534519D01*
G37*
G36*
X159812443Y-129534519D02*
X159878627Y-129541037D01*
X159991853Y-129575384D01*
X160048467Y-129592557D01*
X160162588Y-129653557D01*
X160204991Y-129676222D01*
X160240729Y-129705552D01*
X160342186Y-129788814D01*
X160392247Y-129849815D01*
X160454778Y-129926009D01*
X160454779Y-129926011D01*
X160538443Y-130082533D01*
X160538443Y-130082534D01*
X160589963Y-130252373D01*
X160607359Y-130429000D01*
X160589963Y-130605627D01*
X160571459Y-130666625D01*
X160538443Y-130775467D01*
X160505838Y-130836466D01*
X160454778Y-130931991D01*
X160425448Y-130967729D01*
X160342186Y-131069186D01*
X160267857Y-131130185D01*
X160204991Y-131181778D01*
X160204989Y-131181779D01*
X160048467Y-131265443D01*
X159991853Y-131282616D01*
X159878627Y-131316963D01*
X159812443Y-131323481D01*
X159746260Y-131330000D01*
X159657740Y-131330000D01*
X159591557Y-131323481D01*
X159525373Y-131316963D01*
X159412147Y-131282616D01*
X159355533Y-131265443D01*
X159199011Y-131181779D01*
X159199009Y-131181778D01*
X159136143Y-131130185D01*
X159061814Y-131069186D01*
X158978552Y-130967729D01*
X158949222Y-130931991D01*
X158898162Y-130836466D01*
X158865557Y-130775467D01*
X158832541Y-130666625D01*
X158814037Y-130605627D01*
X158796641Y-130429000D01*
X158814037Y-130252373D01*
X158865557Y-130082534D01*
X158865557Y-130082533D01*
X158949221Y-129926011D01*
X158949222Y-129926009D01*
X159011753Y-129849815D01*
X159061814Y-129788814D01*
X159163271Y-129705552D01*
X159199009Y-129676222D01*
X159241412Y-129653557D01*
X159355533Y-129592557D01*
X159412147Y-129575384D01*
X159525373Y-129541037D01*
X159591557Y-129534519D01*
X159657740Y-129528000D01*
X159746260Y-129528000D01*
X159812443Y-129534519D01*
X159812443Y-129534519D01*
G37*
G36*
X157272443Y-129534519D02*
X157338627Y-129541037D01*
X157451853Y-129575384D01*
X157508467Y-129592557D01*
X157622588Y-129653557D01*
X157664991Y-129676222D01*
X157700729Y-129705552D01*
X157802186Y-129788814D01*
X157852247Y-129849815D01*
X157914778Y-129926009D01*
X157914779Y-129926011D01*
X157998443Y-130082533D01*
X157998443Y-130082534D01*
X158049963Y-130252373D01*
X158067359Y-130429000D01*
X158049963Y-130605627D01*
X158031459Y-130666625D01*
X157998443Y-130775467D01*
X157965838Y-130836466D01*
X157914778Y-130931991D01*
X157885448Y-130967729D01*
X157802186Y-131069186D01*
X157727857Y-131130185D01*
X157664991Y-131181778D01*
X157664989Y-131181779D01*
X157508467Y-131265443D01*
X157451853Y-131282616D01*
X157338627Y-131316963D01*
X157272443Y-131323481D01*
X157206260Y-131330000D01*
X157117740Y-131330000D01*
X157051557Y-131323481D01*
X156985373Y-131316963D01*
X156872147Y-131282616D01*
X156815533Y-131265443D01*
X156659011Y-131181779D01*
X156659009Y-131181778D01*
X156596143Y-131130185D01*
X156521814Y-131069186D01*
X156438552Y-130967729D01*
X156409222Y-130931991D01*
X156358162Y-130836466D01*
X156325557Y-130775467D01*
X156292541Y-130666625D01*
X156274037Y-130605627D01*
X156256641Y-130429000D01*
X156274037Y-130252373D01*
X156325557Y-130082534D01*
X156325557Y-130082533D01*
X156409221Y-129926011D01*
X156409222Y-129926009D01*
X156471753Y-129849815D01*
X156521814Y-129788814D01*
X156623271Y-129705552D01*
X156659009Y-129676222D01*
X156701412Y-129653557D01*
X156815533Y-129592557D01*
X156872147Y-129575384D01*
X156985373Y-129541037D01*
X157051557Y-129534519D01*
X157117740Y-129528000D01*
X157206260Y-129528000D01*
X157272443Y-129534519D01*
X157272443Y-129534519D01*
G37*
G36*
X154732443Y-129534519D02*
X154798627Y-129541037D01*
X154911853Y-129575384D01*
X154968467Y-129592557D01*
X155082588Y-129653557D01*
X155124991Y-129676222D01*
X155160729Y-129705552D01*
X155262186Y-129788814D01*
X155312247Y-129849815D01*
X155374778Y-129926009D01*
X155374779Y-129926011D01*
X155458443Y-130082533D01*
X155458443Y-130082534D01*
X155509963Y-130252373D01*
X155527359Y-130429000D01*
X155509963Y-130605627D01*
X155491459Y-130666625D01*
X155458443Y-130775467D01*
X155425838Y-130836466D01*
X155374778Y-130931991D01*
X155345448Y-130967729D01*
X155262186Y-131069186D01*
X155187857Y-131130185D01*
X155124991Y-131181778D01*
X155124989Y-131181779D01*
X154968467Y-131265443D01*
X154911853Y-131282616D01*
X154798627Y-131316963D01*
X154732443Y-131323481D01*
X154666260Y-131330000D01*
X154577740Y-131330000D01*
X154511557Y-131323481D01*
X154445373Y-131316963D01*
X154332147Y-131282616D01*
X154275533Y-131265443D01*
X154119011Y-131181779D01*
X154119009Y-131181778D01*
X154056143Y-131130185D01*
X153981814Y-131069186D01*
X153898552Y-130967729D01*
X153869222Y-130931991D01*
X153818162Y-130836466D01*
X153785557Y-130775467D01*
X153752541Y-130666625D01*
X153734037Y-130605627D01*
X153716641Y-130429000D01*
X153734037Y-130252373D01*
X153785557Y-130082534D01*
X153785557Y-130082533D01*
X153869221Y-129926011D01*
X153869222Y-129926009D01*
X153931753Y-129849815D01*
X153981814Y-129788814D01*
X154083271Y-129705552D01*
X154119009Y-129676222D01*
X154161412Y-129653557D01*
X154275533Y-129592557D01*
X154332147Y-129575384D01*
X154445373Y-129541037D01*
X154511557Y-129534519D01*
X154577740Y-129528000D01*
X154666260Y-129528000D01*
X154732443Y-129534519D01*
X154732443Y-129534519D01*
G37*
G36*
X180132443Y-129534519D02*
X180198627Y-129541037D01*
X180311853Y-129575384D01*
X180368467Y-129592557D01*
X180482588Y-129653557D01*
X180524991Y-129676222D01*
X180560729Y-129705552D01*
X180662186Y-129788814D01*
X180712247Y-129849815D01*
X180774778Y-129926009D01*
X180774779Y-129926011D01*
X180858443Y-130082533D01*
X180858443Y-130082534D01*
X180909963Y-130252373D01*
X180927359Y-130429000D01*
X180909963Y-130605627D01*
X180891459Y-130666625D01*
X180858443Y-130775467D01*
X180825838Y-130836466D01*
X180774778Y-130931991D01*
X180745448Y-130967729D01*
X180662186Y-131069186D01*
X180587857Y-131130185D01*
X180524991Y-131181778D01*
X180524989Y-131181779D01*
X180368467Y-131265443D01*
X180311853Y-131282616D01*
X180198627Y-131316963D01*
X180132443Y-131323481D01*
X180066260Y-131330000D01*
X179977740Y-131330000D01*
X179911557Y-131323481D01*
X179845373Y-131316963D01*
X179732147Y-131282616D01*
X179675533Y-131265443D01*
X179519011Y-131181779D01*
X179519009Y-131181778D01*
X179456143Y-131130185D01*
X179381814Y-131069186D01*
X179298552Y-130967729D01*
X179269222Y-130931991D01*
X179218162Y-130836466D01*
X179185557Y-130775467D01*
X179152541Y-130666625D01*
X179134037Y-130605627D01*
X179116641Y-130429000D01*
X179134037Y-130252373D01*
X179185557Y-130082534D01*
X179185557Y-130082533D01*
X179269221Y-129926011D01*
X179269222Y-129926009D01*
X179331753Y-129849815D01*
X179381814Y-129788814D01*
X179483271Y-129705552D01*
X179519009Y-129676222D01*
X179561412Y-129653557D01*
X179675533Y-129592557D01*
X179732147Y-129575384D01*
X179845373Y-129541037D01*
X179911557Y-129534519D01*
X179977740Y-129528000D01*
X180066260Y-129528000D01*
X180132443Y-129534519D01*
X180132443Y-129534519D01*
G37*
G36*
X152192443Y-129534519D02*
X152258627Y-129541037D01*
X152371853Y-129575384D01*
X152428467Y-129592557D01*
X152542588Y-129653557D01*
X152584991Y-129676222D01*
X152620729Y-129705552D01*
X152722186Y-129788814D01*
X152772247Y-129849815D01*
X152834778Y-129926009D01*
X152834779Y-129926011D01*
X152918443Y-130082533D01*
X152918443Y-130082534D01*
X152969963Y-130252373D01*
X152987359Y-130429000D01*
X152969963Y-130605627D01*
X152951459Y-130666625D01*
X152918443Y-130775467D01*
X152885838Y-130836466D01*
X152834778Y-130931991D01*
X152805448Y-130967729D01*
X152722186Y-131069186D01*
X152647857Y-131130185D01*
X152584991Y-131181778D01*
X152584989Y-131181779D01*
X152428467Y-131265443D01*
X152371853Y-131282616D01*
X152258627Y-131316963D01*
X152192443Y-131323481D01*
X152126260Y-131330000D01*
X152037740Y-131330000D01*
X151971557Y-131323481D01*
X151905373Y-131316963D01*
X151792147Y-131282616D01*
X151735533Y-131265443D01*
X151579011Y-131181779D01*
X151579009Y-131181778D01*
X151516143Y-131130185D01*
X151441814Y-131069186D01*
X151358552Y-130967729D01*
X151329222Y-130931991D01*
X151278162Y-130836466D01*
X151245557Y-130775467D01*
X151212541Y-130666625D01*
X151194037Y-130605627D01*
X151176641Y-130429000D01*
X151194037Y-130252373D01*
X151245557Y-130082534D01*
X151245557Y-130082533D01*
X151329221Y-129926011D01*
X151329222Y-129926009D01*
X151391753Y-129849815D01*
X151441814Y-129788814D01*
X151543271Y-129705552D01*
X151579009Y-129676222D01*
X151621412Y-129653557D01*
X151735533Y-129592557D01*
X151792147Y-129575384D01*
X151905373Y-129541037D01*
X151971557Y-129534519D01*
X152037740Y-129528000D01*
X152126260Y-129528000D01*
X152192443Y-129534519D01*
X152192443Y-129534519D01*
G37*
G36*
X182672443Y-129534519D02*
X182738627Y-129541037D01*
X182851853Y-129575384D01*
X182908467Y-129592557D01*
X183022588Y-129653557D01*
X183064991Y-129676222D01*
X183100729Y-129705552D01*
X183202186Y-129788814D01*
X183252247Y-129849815D01*
X183314778Y-129926009D01*
X183314779Y-129926011D01*
X183398443Y-130082533D01*
X183398443Y-130082534D01*
X183449963Y-130252373D01*
X183467359Y-130429000D01*
X183449963Y-130605627D01*
X183431459Y-130666625D01*
X183398443Y-130775467D01*
X183365838Y-130836466D01*
X183314778Y-130931991D01*
X183285448Y-130967729D01*
X183202186Y-131069186D01*
X183127857Y-131130185D01*
X183064991Y-131181778D01*
X183064989Y-131181779D01*
X182908467Y-131265443D01*
X182851853Y-131282616D01*
X182738627Y-131316963D01*
X182672443Y-131323481D01*
X182606260Y-131330000D01*
X182517740Y-131330000D01*
X182451557Y-131323481D01*
X182385373Y-131316963D01*
X182272147Y-131282616D01*
X182215533Y-131265443D01*
X182059011Y-131181779D01*
X182059009Y-131181778D01*
X181996143Y-131130185D01*
X181921814Y-131069186D01*
X181838552Y-130967729D01*
X181809222Y-130931991D01*
X181758162Y-130836466D01*
X181725557Y-130775467D01*
X181692541Y-130666625D01*
X181674037Y-130605627D01*
X181656641Y-130429000D01*
X181674037Y-130252373D01*
X181725557Y-130082534D01*
X181725557Y-130082533D01*
X181809221Y-129926011D01*
X181809222Y-129926009D01*
X181871753Y-129849815D01*
X181921814Y-129788814D01*
X182023271Y-129705552D01*
X182059009Y-129676222D01*
X182101412Y-129653557D01*
X182215533Y-129592557D01*
X182272147Y-129575384D01*
X182385373Y-129541037D01*
X182451557Y-129534519D01*
X182517740Y-129528000D01*
X182606260Y-129528000D01*
X182672443Y-129534519D01*
X182672443Y-129534519D01*
G37*
G36*
X147112443Y-129534519D02*
X147178627Y-129541037D01*
X147291853Y-129575384D01*
X147348467Y-129592557D01*
X147462588Y-129653557D01*
X147504991Y-129676222D01*
X147540729Y-129705552D01*
X147642186Y-129788814D01*
X147692247Y-129849815D01*
X147754778Y-129926009D01*
X147754779Y-129926011D01*
X147838443Y-130082533D01*
X147838443Y-130082534D01*
X147889963Y-130252373D01*
X147907359Y-130429000D01*
X147889963Y-130605627D01*
X147871459Y-130666625D01*
X147838443Y-130775467D01*
X147805838Y-130836466D01*
X147754778Y-130931991D01*
X147725448Y-130967729D01*
X147642186Y-131069186D01*
X147567857Y-131130185D01*
X147504991Y-131181778D01*
X147504989Y-131181779D01*
X147348467Y-131265443D01*
X147291853Y-131282616D01*
X147178627Y-131316963D01*
X147112443Y-131323481D01*
X147046260Y-131330000D01*
X146957740Y-131330000D01*
X146891557Y-131323481D01*
X146825373Y-131316963D01*
X146712147Y-131282616D01*
X146655533Y-131265443D01*
X146499011Y-131181779D01*
X146499009Y-131181778D01*
X146436143Y-131130185D01*
X146361814Y-131069186D01*
X146278552Y-130967729D01*
X146249222Y-130931991D01*
X146198162Y-130836466D01*
X146165557Y-130775467D01*
X146132541Y-130666625D01*
X146114037Y-130605627D01*
X146096641Y-130429000D01*
X146114037Y-130252373D01*
X146165557Y-130082534D01*
X146165557Y-130082533D01*
X146249221Y-129926011D01*
X146249222Y-129926009D01*
X146311753Y-129849815D01*
X146361814Y-129788814D01*
X146463271Y-129705552D01*
X146499009Y-129676222D01*
X146541412Y-129653557D01*
X146655533Y-129592557D01*
X146712147Y-129575384D01*
X146825373Y-129541037D01*
X146891557Y-129534519D01*
X146957740Y-129528000D01*
X147046260Y-129528000D01*
X147112443Y-129534519D01*
X147112443Y-129534519D01*
G37*
G36*
X144572443Y-129534519D02*
X144638627Y-129541037D01*
X144751853Y-129575384D01*
X144808467Y-129592557D01*
X144922588Y-129653557D01*
X144964991Y-129676222D01*
X145000729Y-129705552D01*
X145102186Y-129788814D01*
X145152247Y-129849815D01*
X145214778Y-129926009D01*
X145214779Y-129926011D01*
X145298443Y-130082533D01*
X145298443Y-130082534D01*
X145349963Y-130252373D01*
X145367359Y-130429000D01*
X145349963Y-130605627D01*
X145331459Y-130666625D01*
X145298443Y-130775467D01*
X145265838Y-130836466D01*
X145214778Y-130931991D01*
X145185448Y-130967729D01*
X145102186Y-131069186D01*
X145027857Y-131130185D01*
X144964991Y-131181778D01*
X144964989Y-131181779D01*
X144808467Y-131265443D01*
X144751853Y-131282616D01*
X144638627Y-131316963D01*
X144572443Y-131323481D01*
X144506260Y-131330000D01*
X144417740Y-131330000D01*
X144351557Y-131323481D01*
X144285373Y-131316963D01*
X144172147Y-131282616D01*
X144115533Y-131265443D01*
X143959011Y-131181779D01*
X143959009Y-131181778D01*
X143896143Y-131130185D01*
X143821814Y-131069186D01*
X143738552Y-130967729D01*
X143709222Y-130931991D01*
X143658162Y-130836466D01*
X143625557Y-130775467D01*
X143592541Y-130666625D01*
X143574037Y-130605627D01*
X143556641Y-130429000D01*
X143574037Y-130252373D01*
X143625557Y-130082534D01*
X143625557Y-130082533D01*
X143709221Y-129926011D01*
X143709222Y-129926009D01*
X143771753Y-129849815D01*
X143821814Y-129788814D01*
X143923271Y-129705552D01*
X143959009Y-129676222D01*
X144001412Y-129653557D01*
X144115533Y-129592557D01*
X144172147Y-129575384D01*
X144285373Y-129541037D01*
X144351557Y-129534519D01*
X144417740Y-129528000D01*
X144506260Y-129528000D01*
X144572443Y-129534519D01*
X144572443Y-129534519D01*
G37*
G36*
X142032443Y-129534519D02*
X142098627Y-129541037D01*
X142211853Y-129575384D01*
X142268467Y-129592557D01*
X142382588Y-129653557D01*
X142424991Y-129676222D01*
X142460729Y-129705552D01*
X142562186Y-129788814D01*
X142612247Y-129849815D01*
X142674778Y-129926009D01*
X142674779Y-129926011D01*
X142758443Y-130082533D01*
X142758443Y-130082534D01*
X142809963Y-130252373D01*
X142827359Y-130429000D01*
X142809963Y-130605627D01*
X142791459Y-130666625D01*
X142758443Y-130775467D01*
X142725838Y-130836466D01*
X142674778Y-130931991D01*
X142645448Y-130967729D01*
X142562186Y-131069186D01*
X142487857Y-131130185D01*
X142424991Y-131181778D01*
X142424989Y-131181779D01*
X142268467Y-131265443D01*
X142211853Y-131282616D01*
X142098627Y-131316963D01*
X142032443Y-131323481D01*
X141966260Y-131330000D01*
X141877740Y-131330000D01*
X141811557Y-131323481D01*
X141745373Y-131316963D01*
X141632147Y-131282616D01*
X141575533Y-131265443D01*
X141419011Y-131181779D01*
X141419009Y-131181778D01*
X141356143Y-131130185D01*
X141281814Y-131069186D01*
X141198552Y-130967729D01*
X141169222Y-130931991D01*
X141118162Y-130836466D01*
X141085557Y-130775467D01*
X141052541Y-130666625D01*
X141034037Y-130605627D01*
X141016641Y-130429000D01*
X141034037Y-130252373D01*
X141085557Y-130082534D01*
X141085557Y-130082533D01*
X141169221Y-129926011D01*
X141169222Y-129926009D01*
X141231753Y-129849815D01*
X141281814Y-129788814D01*
X141383271Y-129705552D01*
X141419009Y-129676222D01*
X141461412Y-129653557D01*
X141575533Y-129592557D01*
X141632147Y-129575384D01*
X141745373Y-129541037D01*
X141811557Y-129534519D01*
X141877740Y-129528000D01*
X141966260Y-129528000D01*
X142032443Y-129534519D01*
X142032443Y-129534519D01*
G37*
G36*
X139492443Y-129534519D02*
X139558627Y-129541037D01*
X139671853Y-129575384D01*
X139728467Y-129592557D01*
X139842588Y-129653557D01*
X139884991Y-129676222D01*
X139920729Y-129705552D01*
X140022186Y-129788814D01*
X140072247Y-129849815D01*
X140134778Y-129926009D01*
X140134779Y-129926011D01*
X140218443Y-130082533D01*
X140218443Y-130082534D01*
X140269963Y-130252373D01*
X140287359Y-130429000D01*
X140269963Y-130605627D01*
X140251459Y-130666625D01*
X140218443Y-130775467D01*
X140185838Y-130836466D01*
X140134778Y-130931991D01*
X140105448Y-130967729D01*
X140022186Y-131069186D01*
X139947857Y-131130185D01*
X139884991Y-131181778D01*
X139884989Y-131181779D01*
X139728467Y-131265443D01*
X139671853Y-131282616D01*
X139558627Y-131316963D01*
X139492443Y-131323481D01*
X139426260Y-131330000D01*
X139337740Y-131330000D01*
X139271557Y-131323481D01*
X139205373Y-131316963D01*
X139092147Y-131282616D01*
X139035533Y-131265443D01*
X138879011Y-131181779D01*
X138879009Y-131181778D01*
X138816143Y-131130185D01*
X138741814Y-131069186D01*
X138658552Y-130967729D01*
X138629222Y-130931991D01*
X138578162Y-130836466D01*
X138545557Y-130775467D01*
X138512541Y-130666625D01*
X138494037Y-130605627D01*
X138476641Y-130429000D01*
X138494037Y-130252373D01*
X138545557Y-130082534D01*
X138545557Y-130082533D01*
X138629221Y-129926011D01*
X138629222Y-129926009D01*
X138691753Y-129849815D01*
X138741814Y-129788814D01*
X138843271Y-129705552D01*
X138879009Y-129676222D01*
X138921412Y-129653557D01*
X139035533Y-129592557D01*
X139092147Y-129575384D01*
X139205373Y-129541037D01*
X139271557Y-129534519D01*
X139337740Y-129528000D01*
X139426260Y-129528000D01*
X139492443Y-129534519D01*
X139492443Y-129534519D01*
G37*
G36*
X177592443Y-129534519D02*
X177658627Y-129541037D01*
X177771853Y-129575384D01*
X177828467Y-129592557D01*
X177942588Y-129653557D01*
X177984991Y-129676222D01*
X178020729Y-129705552D01*
X178122186Y-129788814D01*
X178172247Y-129849815D01*
X178234778Y-129926009D01*
X178234779Y-129926011D01*
X178318443Y-130082533D01*
X178318443Y-130082534D01*
X178369963Y-130252373D01*
X178387359Y-130429000D01*
X178369963Y-130605627D01*
X178351459Y-130666625D01*
X178318443Y-130775467D01*
X178285838Y-130836466D01*
X178234778Y-130931991D01*
X178205448Y-130967729D01*
X178122186Y-131069186D01*
X178047857Y-131130185D01*
X177984991Y-131181778D01*
X177984989Y-131181779D01*
X177828467Y-131265443D01*
X177771853Y-131282616D01*
X177658627Y-131316963D01*
X177592443Y-131323481D01*
X177526260Y-131330000D01*
X177437740Y-131330000D01*
X177371557Y-131323481D01*
X177305373Y-131316963D01*
X177192147Y-131282616D01*
X177135533Y-131265443D01*
X176979011Y-131181779D01*
X176979009Y-131181778D01*
X176916143Y-131130185D01*
X176841814Y-131069186D01*
X176758552Y-130967729D01*
X176729222Y-130931991D01*
X176678162Y-130836466D01*
X176645557Y-130775467D01*
X176612541Y-130666625D01*
X176594037Y-130605627D01*
X176576641Y-130429000D01*
X176594037Y-130252373D01*
X176645557Y-130082534D01*
X176645557Y-130082533D01*
X176729221Y-129926011D01*
X176729222Y-129926009D01*
X176791753Y-129849815D01*
X176841814Y-129788814D01*
X176943271Y-129705552D01*
X176979009Y-129676222D01*
X177021412Y-129653557D01*
X177135533Y-129592557D01*
X177192147Y-129575384D01*
X177305373Y-129541037D01*
X177371557Y-129534519D01*
X177437740Y-129528000D01*
X177526260Y-129528000D01*
X177592443Y-129534519D01*
X177592443Y-129534519D01*
G37*
G36*
X175052443Y-129534519D02*
X175118627Y-129541037D01*
X175231853Y-129575384D01*
X175288467Y-129592557D01*
X175402588Y-129653557D01*
X175444991Y-129676222D01*
X175480729Y-129705552D01*
X175582186Y-129788814D01*
X175632247Y-129849815D01*
X175694778Y-129926009D01*
X175694779Y-129926011D01*
X175778443Y-130082533D01*
X175778443Y-130082534D01*
X175829963Y-130252373D01*
X175847359Y-130429000D01*
X175829963Y-130605627D01*
X175811459Y-130666625D01*
X175778443Y-130775467D01*
X175745838Y-130836466D01*
X175694778Y-130931991D01*
X175665448Y-130967729D01*
X175582186Y-131069186D01*
X175507857Y-131130185D01*
X175444991Y-131181778D01*
X175444989Y-131181779D01*
X175288467Y-131265443D01*
X175231853Y-131282616D01*
X175118627Y-131316963D01*
X175052443Y-131323481D01*
X174986260Y-131330000D01*
X174897740Y-131330000D01*
X174831557Y-131323481D01*
X174765373Y-131316963D01*
X174652147Y-131282616D01*
X174595533Y-131265443D01*
X174439011Y-131181779D01*
X174439009Y-131181778D01*
X174376143Y-131130185D01*
X174301814Y-131069186D01*
X174218552Y-130967729D01*
X174189222Y-130931991D01*
X174138162Y-130836466D01*
X174105557Y-130775467D01*
X174072541Y-130666625D01*
X174054037Y-130605627D01*
X174036641Y-130429000D01*
X174054037Y-130252373D01*
X174105557Y-130082534D01*
X174105557Y-130082533D01*
X174189221Y-129926011D01*
X174189222Y-129926009D01*
X174251753Y-129849815D01*
X174301814Y-129788814D01*
X174403271Y-129705552D01*
X174439009Y-129676222D01*
X174481412Y-129653557D01*
X174595533Y-129592557D01*
X174652147Y-129575384D01*
X174765373Y-129541037D01*
X174831557Y-129534519D01*
X174897740Y-129528000D01*
X174986260Y-129528000D01*
X175052443Y-129534519D01*
X175052443Y-129534519D01*
G37*
G36*
X209990443Y-127055519D02*
X210056627Y-127062037D01*
X210169853Y-127096384D01*
X210226467Y-127113557D01*
X210365087Y-127187652D01*
X210382991Y-127197222D01*
X210418729Y-127226552D01*
X210520186Y-127309814D01*
X210582718Y-127386011D01*
X210632778Y-127447009D01*
X210632779Y-127447011D01*
X210716443Y-127603533D01*
X210716443Y-127603534D01*
X210767963Y-127773373D01*
X210785359Y-127950000D01*
X210767963Y-128126627D01*
X210734947Y-128235466D01*
X210716443Y-128296467D01*
X210642348Y-128435087D01*
X210632778Y-128452991D01*
X210603448Y-128488729D01*
X210520186Y-128590186D01*
X210418729Y-128673448D01*
X210382991Y-128702778D01*
X210382989Y-128702779D01*
X210226467Y-128786443D01*
X210169853Y-128803616D01*
X210056627Y-128837963D01*
X209990443Y-128844481D01*
X209924260Y-128851000D01*
X209835740Y-128851000D01*
X209769557Y-128844481D01*
X209703373Y-128837963D01*
X209590147Y-128803616D01*
X209533533Y-128786443D01*
X209377011Y-128702779D01*
X209377009Y-128702778D01*
X209341271Y-128673448D01*
X209239814Y-128590186D01*
X209156552Y-128488729D01*
X209127222Y-128452991D01*
X209117652Y-128435087D01*
X209043557Y-128296467D01*
X209025053Y-128235466D01*
X208992037Y-128126627D01*
X208974641Y-127950000D01*
X208992037Y-127773373D01*
X209043557Y-127603534D01*
X209043557Y-127603533D01*
X209127221Y-127447011D01*
X209127222Y-127447009D01*
X209177282Y-127386011D01*
X209239814Y-127309814D01*
X209341271Y-127226552D01*
X209377009Y-127197222D01*
X209394913Y-127187652D01*
X209533533Y-127113557D01*
X209590147Y-127096384D01*
X209703373Y-127062037D01*
X209769557Y-127055519D01*
X209835740Y-127049000D01*
X209924260Y-127049000D01*
X209990443Y-127055519D01*
X209990443Y-127055519D01*
G37*
G36*
X212530443Y-127055519D02*
X212596627Y-127062037D01*
X212709853Y-127096384D01*
X212766467Y-127113557D01*
X212905087Y-127187652D01*
X212922991Y-127197222D01*
X212958729Y-127226552D01*
X213060186Y-127309814D01*
X213122718Y-127386011D01*
X213172778Y-127447009D01*
X213172779Y-127447011D01*
X213256443Y-127603533D01*
X213256443Y-127603534D01*
X213307963Y-127773373D01*
X213325359Y-127950000D01*
X213307963Y-128126627D01*
X213274947Y-128235466D01*
X213256443Y-128296467D01*
X213182348Y-128435087D01*
X213172778Y-128452991D01*
X213143448Y-128488729D01*
X213060186Y-128590186D01*
X212958729Y-128673448D01*
X212922991Y-128702778D01*
X212922989Y-128702779D01*
X212766467Y-128786443D01*
X212709853Y-128803616D01*
X212596627Y-128837963D01*
X212530443Y-128844481D01*
X212464260Y-128851000D01*
X212375740Y-128851000D01*
X212309557Y-128844481D01*
X212243373Y-128837963D01*
X212130147Y-128803616D01*
X212073533Y-128786443D01*
X211917011Y-128702779D01*
X211917009Y-128702778D01*
X211881271Y-128673448D01*
X211779814Y-128590186D01*
X211696552Y-128488729D01*
X211667222Y-128452991D01*
X211657652Y-128435087D01*
X211583557Y-128296467D01*
X211565053Y-128235466D01*
X211532037Y-128126627D01*
X211514641Y-127950000D01*
X211532037Y-127773373D01*
X211583557Y-127603534D01*
X211583557Y-127603533D01*
X211667221Y-127447011D01*
X211667222Y-127447009D01*
X211717282Y-127386011D01*
X211779814Y-127309814D01*
X211881271Y-127226552D01*
X211917009Y-127197222D01*
X211934913Y-127187652D01*
X212073533Y-127113557D01*
X212130147Y-127096384D01*
X212243373Y-127062037D01*
X212309557Y-127055519D01*
X212375740Y-127049000D01*
X212464260Y-127049000D01*
X212530443Y-127055519D01*
X212530443Y-127055519D01*
G37*
G36*
X207450443Y-127055519D02*
X207516627Y-127062037D01*
X207629853Y-127096384D01*
X207686467Y-127113557D01*
X207825087Y-127187652D01*
X207842991Y-127197222D01*
X207878729Y-127226552D01*
X207980186Y-127309814D01*
X208042718Y-127386011D01*
X208092778Y-127447009D01*
X208092779Y-127447011D01*
X208176443Y-127603533D01*
X208176443Y-127603534D01*
X208227963Y-127773373D01*
X208245359Y-127950000D01*
X208227963Y-128126627D01*
X208194947Y-128235466D01*
X208176443Y-128296467D01*
X208102348Y-128435087D01*
X208092778Y-128452991D01*
X208063448Y-128488729D01*
X207980186Y-128590186D01*
X207878729Y-128673448D01*
X207842991Y-128702778D01*
X207842989Y-128702779D01*
X207686467Y-128786443D01*
X207629853Y-128803616D01*
X207516627Y-128837963D01*
X207450443Y-128844481D01*
X207384260Y-128851000D01*
X207295740Y-128851000D01*
X207229557Y-128844481D01*
X207163373Y-128837963D01*
X207050147Y-128803616D01*
X206993533Y-128786443D01*
X206837011Y-128702779D01*
X206837009Y-128702778D01*
X206801271Y-128673448D01*
X206699814Y-128590186D01*
X206616552Y-128488729D01*
X206587222Y-128452991D01*
X206577652Y-128435087D01*
X206503557Y-128296467D01*
X206485053Y-128235466D01*
X206452037Y-128126627D01*
X206434641Y-127950000D01*
X206452037Y-127773373D01*
X206503557Y-127603534D01*
X206503557Y-127603533D01*
X206587221Y-127447011D01*
X206587222Y-127447009D01*
X206637282Y-127386011D01*
X206699814Y-127309814D01*
X206801271Y-127226552D01*
X206837009Y-127197222D01*
X206854913Y-127187652D01*
X206993533Y-127113557D01*
X207050147Y-127096384D01*
X207163373Y-127062037D01*
X207229557Y-127055519D01*
X207295740Y-127049000D01*
X207384260Y-127049000D01*
X207450443Y-127055519D01*
X207450443Y-127055519D01*
G37*
G36*
X204910443Y-127055519D02*
X204976627Y-127062037D01*
X205089853Y-127096384D01*
X205146467Y-127113557D01*
X205285087Y-127187652D01*
X205302991Y-127197222D01*
X205338729Y-127226552D01*
X205440186Y-127309814D01*
X205502718Y-127386011D01*
X205552778Y-127447009D01*
X205552779Y-127447011D01*
X205636443Y-127603533D01*
X205636443Y-127603534D01*
X205687963Y-127773373D01*
X205705359Y-127950000D01*
X205687963Y-128126627D01*
X205654947Y-128235466D01*
X205636443Y-128296467D01*
X205562348Y-128435087D01*
X205552778Y-128452991D01*
X205523448Y-128488729D01*
X205440186Y-128590186D01*
X205338729Y-128673448D01*
X205302991Y-128702778D01*
X205302989Y-128702779D01*
X205146467Y-128786443D01*
X205089853Y-128803616D01*
X204976627Y-128837963D01*
X204910443Y-128844481D01*
X204844260Y-128851000D01*
X204755740Y-128851000D01*
X204689557Y-128844481D01*
X204623373Y-128837963D01*
X204510147Y-128803616D01*
X204453533Y-128786443D01*
X204297011Y-128702779D01*
X204297009Y-128702778D01*
X204261271Y-128673448D01*
X204159814Y-128590186D01*
X204076552Y-128488729D01*
X204047222Y-128452991D01*
X204037652Y-128435087D01*
X203963557Y-128296467D01*
X203945053Y-128235466D01*
X203912037Y-128126627D01*
X203894641Y-127950000D01*
X203912037Y-127773373D01*
X203963557Y-127603534D01*
X203963557Y-127603533D01*
X204047221Y-127447011D01*
X204047222Y-127447009D01*
X204097282Y-127386011D01*
X204159814Y-127309814D01*
X204261271Y-127226552D01*
X204297009Y-127197222D01*
X204314913Y-127187652D01*
X204453533Y-127113557D01*
X204510147Y-127096384D01*
X204623373Y-127062037D01*
X204689557Y-127055519D01*
X204755740Y-127049000D01*
X204844260Y-127049000D01*
X204910443Y-127055519D01*
X204910443Y-127055519D01*
G37*
G36*
X215070443Y-127055519D02*
X215136627Y-127062037D01*
X215249853Y-127096384D01*
X215306467Y-127113557D01*
X215445087Y-127187652D01*
X215462991Y-127197222D01*
X215498729Y-127226552D01*
X215600186Y-127309814D01*
X215662718Y-127386011D01*
X215712778Y-127447009D01*
X215712779Y-127447011D01*
X215796443Y-127603533D01*
X215796443Y-127603534D01*
X215847963Y-127773373D01*
X215865359Y-127950000D01*
X215847963Y-128126627D01*
X215814947Y-128235466D01*
X215796443Y-128296467D01*
X215722348Y-128435087D01*
X215712778Y-128452991D01*
X215683448Y-128488729D01*
X215600186Y-128590186D01*
X215498729Y-128673448D01*
X215462991Y-128702778D01*
X215462989Y-128702779D01*
X215306467Y-128786443D01*
X215249853Y-128803616D01*
X215136627Y-128837963D01*
X215070443Y-128844481D01*
X215004260Y-128851000D01*
X214915740Y-128851000D01*
X214849557Y-128844481D01*
X214783373Y-128837963D01*
X214670147Y-128803616D01*
X214613533Y-128786443D01*
X214457011Y-128702779D01*
X214457009Y-128702778D01*
X214421271Y-128673448D01*
X214319814Y-128590186D01*
X214236552Y-128488729D01*
X214207222Y-128452991D01*
X214197652Y-128435087D01*
X214123557Y-128296467D01*
X214105053Y-128235466D01*
X214072037Y-128126627D01*
X214054641Y-127950000D01*
X214072037Y-127773373D01*
X214123557Y-127603534D01*
X214123557Y-127603533D01*
X214207221Y-127447011D01*
X214207222Y-127447009D01*
X214257282Y-127386011D01*
X214319814Y-127309814D01*
X214421271Y-127226552D01*
X214457009Y-127197222D01*
X214474913Y-127187652D01*
X214613533Y-127113557D01*
X214670147Y-127096384D01*
X214783373Y-127062037D01*
X214849557Y-127055519D01*
X214915740Y-127049000D01*
X215004260Y-127049000D01*
X215070443Y-127055519D01*
X215070443Y-127055519D01*
G37*
G36*
X218401000Y-128851000D02*
X216599000Y-128851000D01*
X216599000Y-127049000D01*
X218401000Y-127049000D01*
X218401000Y-128851000D01*
X218401000Y-128851000D01*
G37*
G36*
X197290443Y-127055519D02*
X197356627Y-127062037D01*
X197469853Y-127096384D01*
X197526467Y-127113557D01*
X197665087Y-127187652D01*
X197682991Y-127197222D01*
X197718729Y-127226552D01*
X197820186Y-127309814D01*
X197882718Y-127386011D01*
X197932778Y-127447009D01*
X197932779Y-127447011D01*
X198016443Y-127603533D01*
X198016443Y-127603534D01*
X198067963Y-127773373D01*
X198085359Y-127950000D01*
X198067963Y-128126627D01*
X198034947Y-128235466D01*
X198016443Y-128296467D01*
X197942348Y-128435087D01*
X197932778Y-128452991D01*
X197903448Y-128488729D01*
X197820186Y-128590186D01*
X197718729Y-128673448D01*
X197682991Y-128702778D01*
X197682989Y-128702779D01*
X197526467Y-128786443D01*
X197469853Y-128803616D01*
X197356627Y-128837963D01*
X197290443Y-128844481D01*
X197224260Y-128851000D01*
X197135740Y-128851000D01*
X197069557Y-128844481D01*
X197003373Y-128837963D01*
X196890147Y-128803616D01*
X196833533Y-128786443D01*
X196677011Y-128702779D01*
X196677009Y-128702778D01*
X196641271Y-128673448D01*
X196539814Y-128590186D01*
X196456552Y-128488729D01*
X196427222Y-128452991D01*
X196417652Y-128435087D01*
X196343557Y-128296467D01*
X196325053Y-128235466D01*
X196292037Y-128126627D01*
X196274641Y-127950000D01*
X196292037Y-127773373D01*
X196343557Y-127603534D01*
X196343557Y-127603533D01*
X196427221Y-127447011D01*
X196427222Y-127447009D01*
X196477282Y-127386011D01*
X196539814Y-127309814D01*
X196641271Y-127226552D01*
X196677009Y-127197222D01*
X196694913Y-127187652D01*
X196833533Y-127113557D01*
X196890147Y-127096384D01*
X197003373Y-127062037D01*
X197069557Y-127055519D01*
X197135740Y-127049000D01*
X197224260Y-127049000D01*
X197290443Y-127055519D01*
X197290443Y-127055519D01*
G37*
G36*
X202370443Y-127055519D02*
X202436627Y-127062037D01*
X202549853Y-127096384D01*
X202606467Y-127113557D01*
X202745087Y-127187652D01*
X202762991Y-127197222D01*
X202798729Y-127226552D01*
X202900186Y-127309814D01*
X202962718Y-127386011D01*
X203012778Y-127447009D01*
X203012779Y-127447011D01*
X203096443Y-127603533D01*
X203096443Y-127603534D01*
X203147963Y-127773373D01*
X203165359Y-127950000D01*
X203147963Y-128126627D01*
X203114947Y-128235466D01*
X203096443Y-128296467D01*
X203022348Y-128435087D01*
X203012778Y-128452991D01*
X202983448Y-128488729D01*
X202900186Y-128590186D01*
X202798729Y-128673448D01*
X202762991Y-128702778D01*
X202762989Y-128702779D01*
X202606467Y-128786443D01*
X202549853Y-128803616D01*
X202436627Y-128837963D01*
X202370443Y-128844481D01*
X202304260Y-128851000D01*
X202215740Y-128851000D01*
X202149557Y-128844481D01*
X202083373Y-128837963D01*
X201970147Y-128803616D01*
X201913533Y-128786443D01*
X201757011Y-128702779D01*
X201757009Y-128702778D01*
X201721271Y-128673448D01*
X201619814Y-128590186D01*
X201536552Y-128488729D01*
X201507222Y-128452991D01*
X201497652Y-128435087D01*
X201423557Y-128296467D01*
X201405053Y-128235466D01*
X201372037Y-128126627D01*
X201354641Y-127950000D01*
X201372037Y-127773373D01*
X201423557Y-127603534D01*
X201423557Y-127603533D01*
X201507221Y-127447011D01*
X201507222Y-127447009D01*
X201557282Y-127386011D01*
X201619814Y-127309814D01*
X201721271Y-127226552D01*
X201757009Y-127197222D01*
X201774913Y-127187652D01*
X201913533Y-127113557D01*
X201970147Y-127096384D01*
X202083373Y-127062037D01*
X202149557Y-127055519D01*
X202215740Y-127049000D01*
X202304260Y-127049000D01*
X202370443Y-127055519D01*
X202370443Y-127055519D01*
G37*
G36*
X199830443Y-127055519D02*
X199896627Y-127062037D01*
X200009853Y-127096384D01*
X200066467Y-127113557D01*
X200205087Y-127187652D01*
X200222991Y-127197222D01*
X200258729Y-127226552D01*
X200360186Y-127309814D01*
X200422718Y-127386011D01*
X200472778Y-127447009D01*
X200472779Y-127447011D01*
X200556443Y-127603533D01*
X200556443Y-127603534D01*
X200607963Y-127773373D01*
X200625359Y-127950000D01*
X200607963Y-128126627D01*
X200574947Y-128235466D01*
X200556443Y-128296467D01*
X200482348Y-128435087D01*
X200472778Y-128452991D01*
X200443448Y-128488729D01*
X200360186Y-128590186D01*
X200258729Y-128673448D01*
X200222991Y-128702778D01*
X200222989Y-128702779D01*
X200066467Y-128786443D01*
X200009853Y-128803616D01*
X199896627Y-128837963D01*
X199830443Y-128844481D01*
X199764260Y-128851000D01*
X199675740Y-128851000D01*
X199609557Y-128844481D01*
X199543373Y-128837963D01*
X199430147Y-128803616D01*
X199373533Y-128786443D01*
X199217011Y-128702779D01*
X199217009Y-128702778D01*
X199181271Y-128673448D01*
X199079814Y-128590186D01*
X198996552Y-128488729D01*
X198967222Y-128452991D01*
X198957652Y-128435087D01*
X198883557Y-128296467D01*
X198865053Y-128235466D01*
X198832037Y-128126627D01*
X198814641Y-127950000D01*
X198832037Y-127773373D01*
X198883557Y-127603534D01*
X198883557Y-127603533D01*
X198967221Y-127447011D01*
X198967222Y-127447009D01*
X199017282Y-127386011D01*
X199079814Y-127309814D01*
X199181271Y-127226552D01*
X199217009Y-127197222D01*
X199234913Y-127187652D01*
X199373533Y-127113557D01*
X199430147Y-127096384D01*
X199543373Y-127062037D01*
X199609557Y-127055519D01*
X199675740Y-127049000D01*
X199764260Y-127049000D01*
X199830443Y-127055519D01*
X199830443Y-127055519D01*
G37*
G36*
X169972442Y-126994518D02*
X170038627Y-127001037D01*
X170151853Y-127035384D01*
X170208467Y-127052557D01*
X170322588Y-127113557D01*
X170364991Y-127136222D01*
X170400729Y-127165552D01*
X170502186Y-127248814D01*
X170552247Y-127309815D01*
X170614778Y-127386009D01*
X170614779Y-127386011D01*
X170698443Y-127542533D01*
X170698443Y-127542534D01*
X170749963Y-127712373D01*
X170767359Y-127889000D01*
X170749963Y-128065627D01*
X170731459Y-128126625D01*
X170698443Y-128235467D01*
X170665838Y-128296466D01*
X170614778Y-128391991D01*
X170585448Y-128427729D01*
X170502186Y-128529186D01*
X170427857Y-128590185D01*
X170364991Y-128641778D01*
X170364989Y-128641779D01*
X170208467Y-128725443D01*
X170151853Y-128742616D01*
X170038627Y-128776963D01*
X169972442Y-128783482D01*
X169906260Y-128790000D01*
X169817740Y-128790000D01*
X169751558Y-128783482D01*
X169685373Y-128776963D01*
X169572147Y-128742616D01*
X169515533Y-128725443D01*
X169359011Y-128641779D01*
X169359009Y-128641778D01*
X169296143Y-128590185D01*
X169221814Y-128529186D01*
X169138552Y-128427729D01*
X169109222Y-128391991D01*
X169058162Y-128296466D01*
X169025557Y-128235467D01*
X168992541Y-128126625D01*
X168974037Y-128065627D01*
X168956641Y-127889000D01*
X168974037Y-127712373D01*
X169025557Y-127542534D01*
X169025557Y-127542533D01*
X169109221Y-127386011D01*
X169109222Y-127386009D01*
X169171753Y-127309815D01*
X169221814Y-127248814D01*
X169323271Y-127165552D01*
X169359009Y-127136222D01*
X169401412Y-127113557D01*
X169515533Y-127052557D01*
X169572147Y-127035384D01*
X169685373Y-127001037D01*
X169751558Y-126994518D01*
X169817740Y-126988000D01*
X169906260Y-126988000D01*
X169972442Y-126994518D01*
X169972442Y-126994518D01*
G37*
G36*
X142032442Y-126994518D02*
X142098627Y-127001037D01*
X142211853Y-127035384D01*
X142268467Y-127052557D01*
X142382588Y-127113557D01*
X142424991Y-127136222D01*
X142460729Y-127165552D01*
X142562186Y-127248814D01*
X142612247Y-127309815D01*
X142674778Y-127386009D01*
X142674779Y-127386011D01*
X142758443Y-127542533D01*
X142758443Y-127542534D01*
X142809963Y-127712373D01*
X142827359Y-127889000D01*
X142809963Y-128065627D01*
X142791459Y-128126625D01*
X142758443Y-128235467D01*
X142725838Y-128296466D01*
X142674778Y-128391991D01*
X142645448Y-128427729D01*
X142562186Y-128529186D01*
X142487857Y-128590185D01*
X142424991Y-128641778D01*
X142424989Y-128641779D01*
X142268467Y-128725443D01*
X142211853Y-128742616D01*
X142098627Y-128776963D01*
X142032442Y-128783482D01*
X141966260Y-128790000D01*
X141877740Y-128790000D01*
X141811558Y-128783482D01*
X141745373Y-128776963D01*
X141632147Y-128742616D01*
X141575533Y-128725443D01*
X141419011Y-128641779D01*
X141419009Y-128641778D01*
X141356143Y-128590185D01*
X141281814Y-128529186D01*
X141198552Y-128427729D01*
X141169222Y-128391991D01*
X141118162Y-128296466D01*
X141085557Y-128235467D01*
X141052541Y-128126625D01*
X141034037Y-128065627D01*
X141016641Y-127889000D01*
X141034037Y-127712373D01*
X141085557Y-127542534D01*
X141085557Y-127542533D01*
X141169221Y-127386011D01*
X141169222Y-127386009D01*
X141231753Y-127309815D01*
X141281814Y-127248814D01*
X141383271Y-127165552D01*
X141419009Y-127136222D01*
X141461412Y-127113557D01*
X141575533Y-127052557D01*
X141632147Y-127035384D01*
X141745373Y-127001037D01*
X141811558Y-126994518D01*
X141877740Y-126988000D01*
X141966260Y-126988000D01*
X142032442Y-126994518D01*
X142032442Y-126994518D01*
G37*
G36*
X144572442Y-126994518D02*
X144638627Y-127001037D01*
X144751853Y-127035384D01*
X144808467Y-127052557D01*
X144922588Y-127113557D01*
X144964991Y-127136222D01*
X145000729Y-127165552D01*
X145102186Y-127248814D01*
X145152247Y-127309815D01*
X145214778Y-127386009D01*
X145214779Y-127386011D01*
X145298443Y-127542533D01*
X145298443Y-127542534D01*
X145349963Y-127712373D01*
X145367359Y-127889000D01*
X145349963Y-128065627D01*
X145331459Y-128126625D01*
X145298443Y-128235467D01*
X145265838Y-128296466D01*
X145214778Y-128391991D01*
X145185448Y-128427729D01*
X145102186Y-128529186D01*
X145027857Y-128590185D01*
X144964991Y-128641778D01*
X144964989Y-128641779D01*
X144808467Y-128725443D01*
X144751853Y-128742616D01*
X144638627Y-128776963D01*
X144572442Y-128783482D01*
X144506260Y-128790000D01*
X144417740Y-128790000D01*
X144351558Y-128783482D01*
X144285373Y-128776963D01*
X144172147Y-128742616D01*
X144115533Y-128725443D01*
X143959011Y-128641779D01*
X143959009Y-128641778D01*
X143896143Y-128590185D01*
X143821814Y-128529186D01*
X143738552Y-128427729D01*
X143709222Y-128391991D01*
X143658162Y-128296466D01*
X143625557Y-128235467D01*
X143592541Y-128126625D01*
X143574037Y-128065627D01*
X143556641Y-127889000D01*
X143574037Y-127712373D01*
X143625557Y-127542534D01*
X143625557Y-127542533D01*
X143709221Y-127386011D01*
X143709222Y-127386009D01*
X143771753Y-127309815D01*
X143821814Y-127248814D01*
X143923271Y-127165552D01*
X143959009Y-127136222D01*
X144001412Y-127113557D01*
X144115533Y-127052557D01*
X144172147Y-127035384D01*
X144285373Y-127001037D01*
X144351558Y-126994518D01*
X144417740Y-126988000D01*
X144506260Y-126988000D01*
X144572442Y-126994518D01*
X144572442Y-126994518D01*
G37*
G36*
X147112442Y-126994518D02*
X147178627Y-127001037D01*
X147291853Y-127035384D01*
X147348467Y-127052557D01*
X147462588Y-127113557D01*
X147504991Y-127136222D01*
X147540729Y-127165552D01*
X147642186Y-127248814D01*
X147692247Y-127309815D01*
X147754778Y-127386009D01*
X147754779Y-127386011D01*
X147838443Y-127542533D01*
X147838443Y-127542534D01*
X147889963Y-127712373D01*
X147907359Y-127889000D01*
X147889963Y-128065627D01*
X147871459Y-128126625D01*
X147838443Y-128235467D01*
X147805838Y-128296466D01*
X147754778Y-128391991D01*
X147725448Y-128427729D01*
X147642186Y-128529186D01*
X147567857Y-128590185D01*
X147504991Y-128641778D01*
X147504989Y-128641779D01*
X147348467Y-128725443D01*
X147291853Y-128742616D01*
X147178627Y-128776963D01*
X147112442Y-128783482D01*
X147046260Y-128790000D01*
X146957740Y-128790000D01*
X146891558Y-128783482D01*
X146825373Y-128776963D01*
X146712147Y-128742616D01*
X146655533Y-128725443D01*
X146499011Y-128641779D01*
X146499009Y-128641778D01*
X146436143Y-128590185D01*
X146361814Y-128529186D01*
X146278552Y-128427729D01*
X146249222Y-128391991D01*
X146198162Y-128296466D01*
X146165557Y-128235467D01*
X146132541Y-128126625D01*
X146114037Y-128065627D01*
X146096641Y-127889000D01*
X146114037Y-127712373D01*
X146165557Y-127542534D01*
X146165557Y-127542533D01*
X146249221Y-127386011D01*
X146249222Y-127386009D01*
X146311753Y-127309815D01*
X146361814Y-127248814D01*
X146463271Y-127165552D01*
X146499009Y-127136222D01*
X146541412Y-127113557D01*
X146655533Y-127052557D01*
X146712147Y-127035384D01*
X146825373Y-127001037D01*
X146891558Y-126994518D01*
X146957740Y-126988000D01*
X147046260Y-126988000D01*
X147112442Y-126994518D01*
X147112442Y-126994518D01*
G37*
G36*
X149652442Y-126994518D02*
X149718627Y-127001037D01*
X149831853Y-127035384D01*
X149888467Y-127052557D01*
X150002588Y-127113557D01*
X150044991Y-127136222D01*
X150080729Y-127165552D01*
X150182186Y-127248814D01*
X150232247Y-127309815D01*
X150294778Y-127386009D01*
X150294779Y-127386011D01*
X150378443Y-127542533D01*
X150378443Y-127542534D01*
X150429963Y-127712373D01*
X150447359Y-127889000D01*
X150429963Y-128065627D01*
X150411459Y-128126625D01*
X150378443Y-128235467D01*
X150345838Y-128296466D01*
X150294778Y-128391991D01*
X150265448Y-128427729D01*
X150182186Y-128529186D01*
X150107857Y-128590185D01*
X150044991Y-128641778D01*
X150044989Y-128641779D01*
X149888467Y-128725443D01*
X149831853Y-128742616D01*
X149718627Y-128776963D01*
X149652442Y-128783482D01*
X149586260Y-128790000D01*
X149497740Y-128790000D01*
X149431558Y-128783482D01*
X149365373Y-128776963D01*
X149252147Y-128742616D01*
X149195533Y-128725443D01*
X149039011Y-128641779D01*
X149039009Y-128641778D01*
X148976143Y-128590185D01*
X148901814Y-128529186D01*
X148818552Y-128427729D01*
X148789222Y-128391991D01*
X148738162Y-128296466D01*
X148705557Y-128235467D01*
X148672541Y-128126625D01*
X148654037Y-128065627D01*
X148636641Y-127889000D01*
X148654037Y-127712373D01*
X148705557Y-127542534D01*
X148705557Y-127542533D01*
X148789221Y-127386011D01*
X148789222Y-127386009D01*
X148851753Y-127309815D01*
X148901814Y-127248814D01*
X149003271Y-127165552D01*
X149039009Y-127136222D01*
X149081412Y-127113557D01*
X149195533Y-127052557D01*
X149252147Y-127035384D01*
X149365373Y-127001037D01*
X149431558Y-126994518D01*
X149497740Y-126988000D01*
X149586260Y-126988000D01*
X149652442Y-126994518D01*
X149652442Y-126994518D01*
G37*
G36*
X154732442Y-126994518D02*
X154798627Y-127001037D01*
X154911853Y-127035384D01*
X154968467Y-127052557D01*
X155082588Y-127113557D01*
X155124991Y-127136222D01*
X155160729Y-127165552D01*
X155262186Y-127248814D01*
X155312247Y-127309815D01*
X155374778Y-127386009D01*
X155374779Y-127386011D01*
X155458443Y-127542533D01*
X155458443Y-127542534D01*
X155509963Y-127712373D01*
X155527359Y-127889000D01*
X155509963Y-128065627D01*
X155491459Y-128126625D01*
X155458443Y-128235467D01*
X155425838Y-128296466D01*
X155374778Y-128391991D01*
X155345448Y-128427729D01*
X155262186Y-128529186D01*
X155187857Y-128590185D01*
X155124991Y-128641778D01*
X155124989Y-128641779D01*
X154968467Y-128725443D01*
X154911853Y-128742616D01*
X154798627Y-128776963D01*
X154732442Y-128783482D01*
X154666260Y-128790000D01*
X154577740Y-128790000D01*
X154511558Y-128783482D01*
X154445373Y-128776963D01*
X154332147Y-128742616D01*
X154275533Y-128725443D01*
X154119011Y-128641779D01*
X154119009Y-128641778D01*
X154056143Y-128590185D01*
X153981814Y-128529186D01*
X153898552Y-128427729D01*
X153869222Y-128391991D01*
X153818162Y-128296466D01*
X153785557Y-128235467D01*
X153752541Y-128126625D01*
X153734037Y-128065627D01*
X153716641Y-127889000D01*
X153734037Y-127712373D01*
X153785557Y-127542534D01*
X153785557Y-127542533D01*
X153869221Y-127386011D01*
X153869222Y-127386009D01*
X153931753Y-127309815D01*
X153981814Y-127248814D01*
X154083271Y-127165552D01*
X154119009Y-127136222D01*
X154161412Y-127113557D01*
X154275533Y-127052557D01*
X154332147Y-127035384D01*
X154445373Y-127001037D01*
X154511558Y-126994518D01*
X154577740Y-126988000D01*
X154666260Y-126988000D01*
X154732442Y-126994518D01*
X154732442Y-126994518D01*
G37*
G36*
X157272442Y-126994518D02*
X157338627Y-127001037D01*
X157451853Y-127035384D01*
X157508467Y-127052557D01*
X157622588Y-127113557D01*
X157664991Y-127136222D01*
X157700729Y-127165552D01*
X157802186Y-127248814D01*
X157852247Y-127309815D01*
X157914778Y-127386009D01*
X157914779Y-127386011D01*
X157998443Y-127542533D01*
X157998443Y-127542534D01*
X158049963Y-127712373D01*
X158067359Y-127889000D01*
X158049963Y-128065627D01*
X158031459Y-128126625D01*
X157998443Y-128235467D01*
X157965838Y-128296466D01*
X157914778Y-128391991D01*
X157885448Y-128427729D01*
X157802186Y-128529186D01*
X157727857Y-128590185D01*
X157664991Y-128641778D01*
X157664989Y-128641779D01*
X157508467Y-128725443D01*
X157451853Y-128742616D01*
X157338627Y-128776963D01*
X157272442Y-128783482D01*
X157206260Y-128790000D01*
X157117740Y-128790000D01*
X157051558Y-128783482D01*
X156985373Y-128776963D01*
X156872147Y-128742616D01*
X156815533Y-128725443D01*
X156659011Y-128641779D01*
X156659009Y-128641778D01*
X156596143Y-128590185D01*
X156521814Y-128529186D01*
X156438552Y-128427729D01*
X156409222Y-128391991D01*
X156358162Y-128296466D01*
X156325557Y-128235467D01*
X156292541Y-128126625D01*
X156274037Y-128065627D01*
X156256641Y-127889000D01*
X156274037Y-127712373D01*
X156325557Y-127542534D01*
X156325557Y-127542533D01*
X156409221Y-127386011D01*
X156409222Y-127386009D01*
X156471753Y-127309815D01*
X156521814Y-127248814D01*
X156623271Y-127165552D01*
X156659009Y-127136222D01*
X156701412Y-127113557D01*
X156815533Y-127052557D01*
X156872147Y-127035384D01*
X156985373Y-127001037D01*
X157051558Y-126994518D01*
X157117740Y-126988000D01*
X157206260Y-126988000D01*
X157272442Y-126994518D01*
X157272442Y-126994518D01*
G37*
G36*
X159812442Y-126994518D02*
X159878627Y-127001037D01*
X159991853Y-127035384D01*
X160048467Y-127052557D01*
X160162588Y-127113557D01*
X160204991Y-127136222D01*
X160240729Y-127165552D01*
X160342186Y-127248814D01*
X160392247Y-127309815D01*
X160454778Y-127386009D01*
X160454779Y-127386011D01*
X160538443Y-127542533D01*
X160538443Y-127542534D01*
X160589963Y-127712373D01*
X160607359Y-127889000D01*
X160589963Y-128065627D01*
X160571459Y-128126625D01*
X160538443Y-128235467D01*
X160505838Y-128296466D01*
X160454778Y-128391991D01*
X160425448Y-128427729D01*
X160342186Y-128529186D01*
X160267857Y-128590185D01*
X160204991Y-128641778D01*
X160204989Y-128641779D01*
X160048467Y-128725443D01*
X159991853Y-128742616D01*
X159878627Y-128776963D01*
X159812442Y-128783482D01*
X159746260Y-128790000D01*
X159657740Y-128790000D01*
X159591558Y-128783482D01*
X159525373Y-128776963D01*
X159412147Y-128742616D01*
X159355533Y-128725443D01*
X159199011Y-128641779D01*
X159199009Y-128641778D01*
X159136143Y-128590185D01*
X159061814Y-128529186D01*
X158978552Y-128427729D01*
X158949222Y-128391991D01*
X158898162Y-128296466D01*
X158865557Y-128235467D01*
X158832541Y-128126625D01*
X158814037Y-128065627D01*
X158796641Y-127889000D01*
X158814037Y-127712373D01*
X158865557Y-127542534D01*
X158865557Y-127542533D01*
X158949221Y-127386011D01*
X158949222Y-127386009D01*
X159011753Y-127309815D01*
X159061814Y-127248814D01*
X159163271Y-127165552D01*
X159199009Y-127136222D01*
X159241412Y-127113557D01*
X159355533Y-127052557D01*
X159412147Y-127035384D01*
X159525373Y-127001037D01*
X159591558Y-126994518D01*
X159657740Y-126988000D01*
X159746260Y-126988000D01*
X159812442Y-126994518D01*
X159812442Y-126994518D01*
G37*
G36*
X162352442Y-126994518D02*
X162418627Y-127001037D01*
X162531853Y-127035384D01*
X162588467Y-127052557D01*
X162702588Y-127113557D01*
X162744991Y-127136222D01*
X162780729Y-127165552D01*
X162882186Y-127248814D01*
X162932247Y-127309815D01*
X162994778Y-127386009D01*
X162994779Y-127386011D01*
X163078443Y-127542533D01*
X163078443Y-127542534D01*
X163129963Y-127712373D01*
X163147359Y-127889000D01*
X163129963Y-128065627D01*
X163111459Y-128126625D01*
X163078443Y-128235467D01*
X163045838Y-128296466D01*
X162994778Y-128391991D01*
X162965448Y-128427729D01*
X162882186Y-128529186D01*
X162807857Y-128590185D01*
X162744991Y-128641778D01*
X162744989Y-128641779D01*
X162588467Y-128725443D01*
X162531853Y-128742616D01*
X162418627Y-128776963D01*
X162352442Y-128783482D01*
X162286260Y-128790000D01*
X162197740Y-128790000D01*
X162131558Y-128783482D01*
X162065373Y-128776963D01*
X161952147Y-128742616D01*
X161895533Y-128725443D01*
X161739011Y-128641779D01*
X161739009Y-128641778D01*
X161676143Y-128590185D01*
X161601814Y-128529186D01*
X161518552Y-128427729D01*
X161489222Y-128391991D01*
X161438162Y-128296466D01*
X161405557Y-128235467D01*
X161372541Y-128126625D01*
X161354037Y-128065627D01*
X161336641Y-127889000D01*
X161354037Y-127712373D01*
X161405557Y-127542534D01*
X161405557Y-127542533D01*
X161489221Y-127386011D01*
X161489222Y-127386009D01*
X161551753Y-127309815D01*
X161601814Y-127248814D01*
X161703271Y-127165552D01*
X161739009Y-127136222D01*
X161781412Y-127113557D01*
X161895533Y-127052557D01*
X161952147Y-127035384D01*
X162065373Y-127001037D01*
X162131558Y-126994518D01*
X162197740Y-126988000D01*
X162286260Y-126988000D01*
X162352442Y-126994518D01*
X162352442Y-126994518D01*
G37*
G36*
X139492442Y-126994518D02*
X139558627Y-127001037D01*
X139671853Y-127035384D01*
X139728467Y-127052557D01*
X139842588Y-127113557D01*
X139884991Y-127136222D01*
X139920729Y-127165552D01*
X140022186Y-127248814D01*
X140072247Y-127309815D01*
X140134778Y-127386009D01*
X140134779Y-127386011D01*
X140218443Y-127542533D01*
X140218443Y-127542534D01*
X140269963Y-127712373D01*
X140287359Y-127889000D01*
X140269963Y-128065627D01*
X140251459Y-128126625D01*
X140218443Y-128235467D01*
X140185838Y-128296466D01*
X140134778Y-128391991D01*
X140105448Y-128427729D01*
X140022186Y-128529186D01*
X139947857Y-128590185D01*
X139884991Y-128641778D01*
X139884989Y-128641779D01*
X139728467Y-128725443D01*
X139671853Y-128742616D01*
X139558627Y-128776963D01*
X139492442Y-128783482D01*
X139426260Y-128790000D01*
X139337740Y-128790000D01*
X139271558Y-128783482D01*
X139205373Y-128776963D01*
X139092147Y-128742616D01*
X139035533Y-128725443D01*
X138879011Y-128641779D01*
X138879009Y-128641778D01*
X138816143Y-128590185D01*
X138741814Y-128529186D01*
X138658552Y-128427729D01*
X138629222Y-128391991D01*
X138578162Y-128296466D01*
X138545557Y-128235467D01*
X138512541Y-128126625D01*
X138494037Y-128065627D01*
X138476641Y-127889000D01*
X138494037Y-127712373D01*
X138545557Y-127542534D01*
X138545557Y-127542533D01*
X138629221Y-127386011D01*
X138629222Y-127386009D01*
X138691753Y-127309815D01*
X138741814Y-127248814D01*
X138843271Y-127165552D01*
X138879009Y-127136222D01*
X138921412Y-127113557D01*
X139035533Y-127052557D01*
X139092147Y-127035384D01*
X139205373Y-127001037D01*
X139271558Y-126994518D01*
X139337740Y-126988000D01*
X139426260Y-126988000D01*
X139492442Y-126994518D01*
X139492442Y-126994518D01*
G37*
G36*
X167432442Y-126994518D02*
X167498627Y-127001037D01*
X167611853Y-127035384D01*
X167668467Y-127052557D01*
X167782588Y-127113557D01*
X167824991Y-127136222D01*
X167860729Y-127165552D01*
X167962186Y-127248814D01*
X168012247Y-127309815D01*
X168074778Y-127386009D01*
X168074779Y-127386011D01*
X168158443Y-127542533D01*
X168158443Y-127542534D01*
X168209963Y-127712373D01*
X168227359Y-127889000D01*
X168209963Y-128065627D01*
X168191459Y-128126625D01*
X168158443Y-128235467D01*
X168125838Y-128296466D01*
X168074778Y-128391991D01*
X168045448Y-128427729D01*
X167962186Y-128529186D01*
X167887857Y-128590185D01*
X167824991Y-128641778D01*
X167824989Y-128641779D01*
X167668467Y-128725443D01*
X167611853Y-128742616D01*
X167498627Y-128776963D01*
X167432442Y-128783482D01*
X167366260Y-128790000D01*
X167277740Y-128790000D01*
X167211558Y-128783482D01*
X167145373Y-128776963D01*
X167032147Y-128742616D01*
X166975533Y-128725443D01*
X166819011Y-128641779D01*
X166819009Y-128641778D01*
X166756143Y-128590185D01*
X166681814Y-128529186D01*
X166598552Y-128427729D01*
X166569222Y-128391991D01*
X166518162Y-128296466D01*
X166485557Y-128235467D01*
X166452541Y-128126625D01*
X166434037Y-128065627D01*
X166416641Y-127889000D01*
X166434037Y-127712373D01*
X166485557Y-127542534D01*
X166485557Y-127542533D01*
X166569221Y-127386011D01*
X166569222Y-127386009D01*
X166631753Y-127309815D01*
X166681814Y-127248814D01*
X166783271Y-127165552D01*
X166819009Y-127136222D01*
X166861412Y-127113557D01*
X166975533Y-127052557D01*
X167032147Y-127035384D01*
X167145373Y-127001037D01*
X167211558Y-126994518D01*
X167277740Y-126988000D01*
X167366260Y-126988000D01*
X167432442Y-126994518D01*
X167432442Y-126994518D01*
G37*
G36*
X172512442Y-126994518D02*
X172578627Y-127001037D01*
X172691853Y-127035384D01*
X172748467Y-127052557D01*
X172862588Y-127113557D01*
X172904991Y-127136222D01*
X172940729Y-127165552D01*
X173042186Y-127248814D01*
X173092247Y-127309815D01*
X173154778Y-127386009D01*
X173154779Y-127386011D01*
X173238443Y-127542533D01*
X173238443Y-127542534D01*
X173289963Y-127712373D01*
X173307359Y-127889000D01*
X173289963Y-128065627D01*
X173271459Y-128126625D01*
X173238443Y-128235467D01*
X173205838Y-128296466D01*
X173154778Y-128391991D01*
X173125448Y-128427729D01*
X173042186Y-128529186D01*
X172967857Y-128590185D01*
X172904991Y-128641778D01*
X172904989Y-128641779D01*
X172748467Y-128725443D01*
X172691853Y-128742616D01*
X172578627Y-128776963D01*
X172512442Y-128783482D01*
X172446260Y-128790000D01*
X172357740Y-128790000D01*
X172291558Y-128783482D01*
X172225373Y-128776963D01*
X172112147Y-128742616D01*
X172055533Y-128725443D01*
X171899011Y-128641779D01*
X171899009Y-128641778D01*
X171836143Y-128590185D01*
X171761814Y-128529186D01*
X171678552Y-128427729D01*
X171649222Y-128391991D01*
X171598162Y-128296466D01*
X171565557Y-128235467D01*
X171532541Y-128126625D01*
X171514037Y-128065627D01*
X171496641Y-127889000D01*
X171514037Y-127712373D01*
X171565557Y-127542534D01*
X171565557Y-127542533D01*
X171649221Y-127386011D01*
X171649222Y-127386009D01*
X171711753Y-127309815D01*
X171761814Y-127248814D01*
X171863271Y-127165552D01*
X171899009Y-127136222D01*
X171941412Y-127113557D01*
X172055533Y-127052557D01*
X172112147Y-127035384D01*
X172225373Y-127001037D01*
X172291558Y-126994518D01*
X172357740Y-126988000D01*
X172446260Y-126988000D01*
X172512442Y-126994518D01*
X172512442Y-126994518D01*
G37*
G36*
X188543000Y-128790000D02*
X186741000Y-128790000D01*
X186741000Y-126988000D01*
X188543000Y-126988000D01*
X188543000Y-128790000D01*
X188543000Y-128790000D01*
G37*
G36*
X185212442Y-126994518D02*
X185278627Y-127001037D01*
X185391853Y-127035384D01*
X185448467Y-127052557D01*
X185562588Y-127113557D01*
X185604991Y-127136222D01*
X185640729Y-127165552D01*
X185742186Y-127248814D01*
X185792247Y-127309815D01*
X185854778Y-127386009D01*
X185854779Y-127386011D01*
X185938443Y-127542533D01*
X185938443Y-127542534D01*
X185989963Y-127712373D01*
X186007359Y-127889000D01*
X185989963Y-128065627D01*
X185971459Y-128126625D01*
X185938443Y-128235467D01*
X185905838Y-128296466D01*
X185854778Y-128391991D01*
X185825448Y-128427729D01*
X185742186Y-128529186D01*
X185667857Y-128590185D01*
X185604991Y-128641778D01*
X185604989Y-128641779D01*
X185448467Y-128725443D01*
X185391853Y-128742616D01*
X185278627Y-128776963D01*
X185212442Y-128783482D01*
X185146260Y-128790000D01*
X185057740Y-128790000D01*
X184991558Y-128783482D01*
X184925373Y-128776963D01*
X184812147Y-128742616D01*
X184755533Y-128725443D01*
X184599011Y-128641779D01*
X184599009Y-128641778D01*
X184536143Y-128590185D01*
X184461814Y-128529186D01*
X184378552Y-128427729D01*
X184349222Y-128391991D01*
X184298162Y-128296466D01*
X184265557Y-128235467D01*
X184232541Y-128126625D01*
X184214037Y-128065627D01*
X184196641Y-127889000D01*
X184214037Y-127712373D01*
X184265557Y-127542534D01*
X184265557Y-127542533D01*
X184349221Y-127386011D01*
X184349222Y-127386009D01*
X184411753Y-127309815D01*
X184461814Y-127248814D01*
X184563271Y-127165552D01*
X184599009Y-127136222D01*
X184641412Y-127113557D01*
X184755533Y-127052557D01*
X184812147Y-127035384D01*
X184925373Y-127001037D01*
X184991558Y-126994518D01*
X185057740Y-126988000D01*
X185146260Y-126988000D01*
X185212442Y-126994518D01*
X185212442Y-126994518D01*
G37*
G36*
X182672442Y-126994518D02*
X182738627Y-127001037D01*
X182851853Y-127035384D01*
X182908467Y-127052557D01*
X183022588Y-127113557D01*
X183064991Y-127136222D01*
X183100729Y-127165552D01*
X183202186Y-127248814D01*
X183252247Y-127309815D01*
X183314778Y-127386009D01*
X183314779Y-127386011D01*
X183398443Y-127542533D01*
X183398443Y-127542534D01*
X183449963Y-127712373D01*
X183467359Y-127889000D01*
X183449963Y-128065627D01*
X183431459Y-128126625D01*
X183398443Y-128235467D01*
X183365838Y-128296466D01*
X183314778Y-128391991D01*
X183285448Y-128427729D01*
X183202186Y-128529186D01*
X183127857Y-128590185D01*
X183064991Y-128641778D01*
X183064989Y-128641779D01*
X182908467Y-128725443D01*
X182851853Y-128742616D01*
X182738627Y-128776963D01*
X182672442Y-128783482D01*
X182606260Y-128790000D01*
X182517740Y-128790000D01*
X182451558Y-128783482D01*
X182385373Y-128776963D01*
X182272147Y-128742616D01*
X182215533Y-128725443D01*
X182059011Y-128641779D01*
X182059009Y-128641778D01*
X181996143Y-128590185D01*
X181921814Y-128529186D01*
X181838552Y-128427729D01*
X181809222Y-128391991D01*
X181758162Y-128296466D01*
X181725557Y-128235467D01*
X181692541Y-128126625D01*
X181674037Y-128065627D01*
X181656641Y-127889000D01*
X181674037Y-127712373D01*
X181725557Y-127542534D01*
X181725557Y-127542533D01*
X181809221Y-127386011D01*
X181809222Y-127386009D01*
X181871753Y-127309815D01*
X181921814Y-127248814D01*
X182023271Y-127165552D01*
X182059009Y-127136222D01*
X182101412Y-127113557D01*
X182215533Y-127052557D01*
X182272147Y-127035384D01*
X182385373Y-127001037D01*
X182451558Y-126994518D01*
X182517740Y-126988000D01*
X182606260Y-126988000D01*
X182672442Y-126994518D01*
X182672442Y-126994518D01*
G37*
G36*
X180132442Y-126994518D02*
X180198627Y-127001037D01*
X180311853Y-127035384D01*
X180368467Y-127052557D01*
X180482588Y-127113557D01*
X180524991Y-127136222D01*
X180560729Y-127165552D01*
X180662186Y-127248814D01*
X180712247Y-127309815D01*
X180774778Y-127386009D01*
X180774779Y-127386011D01*
X180858443Y-127542533D01*
X180858443Y-127542534D01*
X180909963Y-127712373D01*
X180927359Y-127889000D01*
X180909963Y-128065627D01*
X180891459Y-128126625D01*
X180858443Y-128235467D01*
X180825838Y-128296466D01*
X180774778Y-128391991D01*
X180745448Y-128427729D01*
X180662186Y-128529186D01*
X180587857Y-128590185D01*
X180524991Y-128641778D01*
X180524989Y-128641779D01*
X180368467Y-128725443D01*
X180311853Y-128742616D01*
X180198627Y-128776963D01*
X180132442Y-128783482D01*
X180066260Y-128790000D01*
X179977740Y-128790000D01*
X179911558Y-128783482D01*
X179845373Y-128776963D01*
X179732147Y-128742616D01*
X179675533Y-128725443D01*
X179519011Y-128641779D01*
X179519009Y-128641778D01*
X179456143Y-128590185D01*
X179381814Y-128529186D01*
X179298552Y-128427729D01*
X179269222Y-128391991D01*
X179218162Y-128296466D01*
X179185557Y-128235467D01*
X179152541Y-128126625D01*
X179134037Y-128065627D01*
X179116641Y-127889000D01*
X179134037Y-127712373D01*
X179185557Y-127542534D01*
X179185557Y-127542533D01*
X179269221Y-127386011D01*
X179269222Y-127386009D01*
X179331753Y-127309815D01*
X179381814Y-127248814D01*
X179483271Y-127165552D01*
X179519009Y-127136222D01*
X179561412Y-127113557D01*
X179675533Y-127052557D01*
X179732147Y-127035384D01*
X179845373Y-127001037D01*
X179911558Y-126994518D01*
X179977740Y-126988000D01*
X180066260Y-126988000D01*
X180132442Y-126994518D01*
X180132442Y-126994518D01*
G37*
G36*
X177592442Y-126994518D02*
X177658627Y-127001037D01*
X177771853Y-127035384D01*
X177828467Y-127052557D01*
X177942588Y-127113557D01*
X177984991Y-127136222D01*
X178020729Y-127165552D01*
X178122186Y-127248814D01*
X178172247Y-127309815D01*
X178234778Y-127386009D01*
X178234779Y-127386011D01*
X178318443Y-127542533D01*
X178318443Y-127542534D01*
X178369963Y-127712373D01*
X178387359Y-127889000D01*
X178369963Y-128065627D01*
X178351459Y-128126625D01*
X178318443Y-128235467D01*
X178285838Y-128296466D01*
X178234778Y-128391991D01*
X178205448Y-128427729D01*
X178122186Y-128529186D01*
X178047857Y-128590185D01*
X177984991Y-128641778D01*
X177984989Y-128641779D01*
X177828467Y-128725443D01*
X177771853Y-128742616D01*
X177658627Y-128776963D01*
X177592442Y-128783482D01*
X177526260Y-128790000D01*
X177437740Y-128790000D01*
X177371558Y-128783482D01*
X177305373Y-128776963D01*
X177192147Y-128742616D01*
X177135533Y-128725443D01*
X176979011Y-128641779D01*
X176979009Y-128641778D01*
X176916143Y-128590185D01*
X176841814Y-128529186D01*
X176758552Y-128427729D01*
X176729222Y-128391991D01*
X176678162Y-128296466D01*
X176645557Y-128235467D01*
X176612541Y-128126625D01*
X176594037Y-128065627D01*
X176576641Y-127889000D01*
X176594037Y-127712373D01*
X176645557Y-127542534D01*
X176645557Y-127542533D01*
X176729221Y-127386011D01*
X176729222Y-127386009D01*
X176791753Y-127309815D01*
X176841814Y-127248814D01*
X176943271Y-127165552D01*
X176979009Y-127136222D01*
X177021412Y-127113557D01*
X177135533Y-127052557D01*
X177192147Y-127035384D01*
X177305373Y-127001037D01*
X177371558Y-126994518D01*
X177437740Y-126988000D01*
X177526260Y-126988000D01*
X177592442Y-126994518D01*
X177592442Y-126994518D01*
G37*
G36*
X175052442Y-126994518D02*
X175118627Y-127001037D01*
X175231853Y-127035384D01*
X175288467Y-127052557D01*
X175402588Y-127113557D01*
X175444991Y-127136222D01*
X175480729Y-127165552D01*
X175582186Y-127248814D01*
X175632247Y-127309815D01*
X175694778Y-127386009D01*
X175694779Y-127386011D01*
X175778443Y-127542533D01*
X175778443Y-127542534D01*
X175829963Y-127712373D01*
X175847359Y-127889000D01*
X175829963Y-128065627D01*
X175811459Y-128126625D01*
X175778443Y-128235467D01*
X175745838Y-128296466D01*
X175694778Y-128391991D01*
X175665448Y-128427729D01*
X175582186Y-128529186D01*
X175507857Y-128590185D01*
X175444991Y-128641778D01*
X175444989Y-128641779D01*
X175288467Y-128725443D01*
X175231853Y-128742616D01*
X175118627Y-128776963D01*
X175052442Y-128783482D01*
X174986260Y-128790000D01*
X174897740Y-128790000D01*
X174831558Y-128783482D01*
X174765373Y-128776963D01*
X174652147Y-128742616D01*
X174595533Y-128725443D01*
X174439011Y-128641779D01*
X174439009Y-128641778D01*
X174376143Y-128590185D01*
X174301814Y-128529186D01*
X174218552Y-128427729D01*
X174189222Y-128391991D01*
X174138162Y-128296466D01*
X174105557Y-128235467D01*
X174072541Y-128126625D01*
X174054037Y-128065627D01*
X174036641Y-127889000D01*
X174054037Y-127712373D01*
X174105557Y-127542534D01*
X174105557Y-127542533D01*
X174189221Y-127386011D01*
X174189222Y-127386009D01*
X174251753Y-127309815D01*
X174301814Y-127248814D01*
X174403271Y-127165552D01*
X174439009Y-127136222D01*
X174481412Y-127113557D01*
X174595533Y-127052557D01*
X174652147Y-127035384D01*
X174765373Y-127001037D01*
X174831558Y-126994518D01*
X174897740Y-126988000D01*
X174986260Y-126988000D01*
X175052442Y-126994518D01*
X175052442Y-126994518D01*
G37*
G36*
X164892442Y-126994518D02*
X164958627Y-127001037D01*
X165071853Y-127035384D01*
X165128467Y-127052557D01*
X165242588Y-127113557D01*
X165284991Y-127136222D01*
X165320729Y-127165552D01*
X165422186Y-127248814D01*
X165472247Y-127309815D01*
X165534778Y-127386009D01*
X165534779Y-127386011D01*
X165618443Y-127542533D01*
X165618443Y-127542534D01*
X165669963Y-127712373D01*
X165687359Y-127889000D01*
X165669963Y-128065627D01*
X165651459Y-128126625D01*
X165618443Y-128235467D01*
X165585838Y-128296466D01*
X165534778Y-128391991D01*
X165505448Y-128427729D01*
X165422186Y-128529186D01*
X165347857Y-128590185D01*
X165284991Y-128641778D01*
X165284989Y-128641779D01*
X165128467Y-128725443D01*
X165071853Y-128742616D01*
X164958627Y-128776963D01*
X164892442Y-128783482D01*
X164826260Y-128790000D01*
X164737740Y-128790000D01*
X164671558Y-128783482D01*
X164605373Y-128776963D01*
X164492147Y-128742616D01*
X164435533Y-128725443D01*
X164279011Y-128641779D01*
X164279009Y-128641778D01*
X164216143Y-128590185D01*
X164141814Y-128529186D01*
X164058552Y-128427729D01*
X164029222Y-128391991D01*
X163978162Y-128296466D01*
X163945557Y-128235467D01*
X163912541Y-128126625D01*
X163894037Y-128065627D01*
X163876641Y-127889000D01*
X163894037Y-127712373D01*
X163945557Y-127542534D01*
X163945557Y-127542533D01*
X164029221Y-127386011D01*
X164029222Y-127386009D01*
X164091753Y-127309815D01*
X164141814Y-127248814D01*
X164243271Y-127165552D01*
X164279009Y-127136222D01*
X164321412Y-127113557D01*
X164435533Y-127052557D01*
X164492147Y-127035384D01*
X164605373Y-127001037D01*
X164671558Y-126994518D01*
X164737740Y-126988000D01*
X164826260Y-126988000D01*
X164892442Y-126994518D01*
X164892442Y-126994518D01*
G37*
G36*
X152192442Y-126994518D02*
X152258627Y-127001037D01*
X152371853Y-127035384D01*
X152428467Y-127052557D01*
X152542588Y-127113557D01*
X152584991Y-127136222D01*
X152620729Y-127165552D01*
X152722186Y-127248814D01*
X152772247Y-127309815D01*
X152834778Y-127386009D01*
X152834779Y-127386011D01*
X152918443Y-127542533D01*
X152918443Y-127542534D01*
X152969963Y-127712373D01*
X152987359Y-127889000D01*
X152969963Y-128065627D01*
X152951459Y-128126625D01*
X152918443Y-128235467D01*
X152885838Y-128296466D01*
X152834778Y-128391991D01*
X152805448Y-128427729D01*
X152722186Y-128529186D01*
X152647857Y-128590185D01*
X152584991Y-128641778D01*
X152584989Y-128641779D01*
X152428467Y-128725443D01*
X152371853Y-128742616D01*
X152258627Y-128776963D01*
X152192442Y-128783482D01*
X152126260Y-128790000D01*
X152037740Y-128790000D01*
X151971558Y-128783482D01*
X151905373Y-128776963D01*
X151792147Y-128742616D01*
X151735533Y-128725443D01*
X151579011Y-128641779D01*
X151579009Y-128641778D01*
X151516143Y-128590185D01*
X151441814Y-128529186D01*
X151358552Y-128427729D01*
X151329222Y-128391991D01*
X151278162Y-128296466D01*
X151245557Y-128235467D01*
X151212541Y-128126625D01*
X151194037Y-128065627D01*
X151176641Y-127889000D01*
X151194037Y-127712373D01*
X151245557Y-127542534D01*
X151245557Y-127542533D01*
X151329221Y-127386011D01*
X151329222Y-127386009D01*
X151391753Y-127309815D01*
X151441814Y-127248814D01*
X151543271Y-127165552D01*
X151579009Y-127136222D01*
X151621412Y-127113557D01*
X151735533Y-127052557D01*
X151792147Y-127035384D01*
X151905373Y-127001037D01*
X151971558Y-126994518D01*
X152037740Y-126988000D01*
X152126260Y-126988000D01*
X152192442Y-126994518D01*
X152192442Y-126994518D01*
G37*
G36*
X227851000Y-127451000D02*
X225149000Y-127451000D01*
X225149000Y-124749000D01*
X227851000Y-124749000D01*
X227851000Y-127451000D01*
X227851000Y-127451000D01*
G37*
G36*
X226763567Y-119774959D02*
X226894072Y-119800918D01*
X227139939Y-119902759D01*
X227360464Y-120050110D01*
X227361215Y-120050612D01*
X227549388Y-120238785D01*
X227549390Y-120238788D01*
X227697241Y-120460061D01*
X227799082Y-120705928D01*
X227851000Y-120966938D01*
X227851000Y-121233062D01*
X227799082Y-121494072D01*
X227697241Y-121739939D01*
X227549890Y-121960464D01*
X227549388Y-121961215D01*
X227361215Y-122149388D01*
X227361212Y-122149390D01*
X227139939Y-122297241D01*
X226894072Y-122399082D01*
X226763567Y-122425041D01*
X226633063Y-122451000D01*
X226366937Y-122451000D01*
X226236433Y-122425041D01*
X226105928Y-122399082D01*
X225860061Y-122297241D01*
X225638788Y-122149390D01*
X225638785Y-122149388D01*
X225450612Y-121961215D01*
X225450110Y-121960464D01*
X225302759Y-121739939D01*
X225200918Y-121494072D01*
X225149000Y-121233062D01*
X225149000Y-120966938D01*
X225200918Y-120705928D01*
X225302759Y-120460061D01*
X225450610Y-120238788D01*
X225450612Y-120238785D01*
X225638785Y-120050612D01*
X225639536Y-120050110D01*
X225860061Y-119902759D01*
X226105928Y-119800918D01*
X226236433Y-119774959D01*
X226366937Y-119749000D01*
X226633063Y-119749000D01*
X226763567Y-119774959D01*
X226763567Y-119774959D01*
G37*
G36*
X143333567Y-118450959D02*
X143464072Y-118476918D01*
X143709939Y-118578759D01*
X143930464Y-118726110D01*
X143931215Y-118726612D01*
X144119388Y-118914785D01*
X144119390Y-118914788D01*
X144267241Y-119136061D01*
X144369082Y-119381928D01*
X144421000Y-119642938D01*
X144421000Y-119909062D01*
X144369082Y-120170072D01*
X144267241Y-120415939D01*
X144119890Y-120636464D01*
X144119388Y-120637215D01*
X143931215Y-120825388D01*
X143931212Y-120825390D01*
X143709939Y-120973241D01*
X143464072Y-121075082D01*
X143333567Y-121101041D01*
X143203063Y-121127000D01*
X142936937Y-121127000D01*
X142806433Y-121101041D01*
X142675928Y-121075082D01*
X142430061Y-120973241D01*
X142208788Y-120825390D01*
X142208785Y-120825388D01*
X142020612Y-120637215D01*
X142020110Y-120636464D01*
X141872759Y-120415939D01*
X141770918Y-120170072D01*
X141719000Y-119909062D01*
X141719000Y-119642938D01*
X141770918Y-119381928D01*
X141872759Y-119136061D01*
X142020610Y-118914788D01*
X142020612Y-118914785D01*
X142208785Y-118726612D01*
X142209536Y-118726110D01*
X142430061Y-118578759D01*
X142675928Y-118476918D01*
X142806433Y-118450959D01*
X142936937Y-118425000D01*
X143203063Y-118425000D01*
X143333567Y-118450959D01*
X143333567Y-118450959D01*
G37*
G36*
X218325000Y-118249000D02*
X216523000Y-118249000D01*
X216523000Y-116447000D01*
X218325000Y-116447000D01*
X218325000Y-118249000D01*
X218325000Y-118249000D01*
G37*
G36*
X226763567Y-114774959D02*
X226894072Y-114800918D01*
X227139939Y-114902759D01*
X227360464Y-115050110D01*
X227361215Y-115050612D01*
X227549388Y-115238785D01*
X227549390Y-115238788D01*
X227697241Y-115460061D01*
X227799082Y-115705928D01*
X227851000Y-115966938D01*
X227851000Y-116233062D01*
X227799082Y-116494072D01*
X227697241Y-116739939D01*
X227549890Y-116960464D01*
X227549388Y-116961215D01*
X227361215Y-117149388D01*
X227361212Y-117149390D01*
X227139939Y-117297241D01*
X226894072Y-117399082D01*
X226763567Y-117425041D01*
X226633063Y-117451000D01*
X226366937Y-117451000D01*
X226236433Y-117425041D01*
X226105928Y-117399082D01*
X225860061Y-117297241D01*
X225638788Y-117149390D01*
X225638785Y-117149388D01*
X225450612Y-116961215D01*
X225450110Y-116960464D01*
X225302759Y-116739939D01*
X225200918Y-116494072D01*
X225149000Y-116233062D01*
X225149000Y-115966938D01*
X225200918Y-115705928D01*
X225302759Y-115460061D01*
X225450610Y-115238788D01*
X225450612Y-115238785D01*
X225638785Y-115050612D01*
X225639536Y-115050110D01*
X225860061Y-114902759D01*
X226105928Y-114800918D01*
X226236433Y-114774959D01*
X226366937Y-114749000D01*
X226633063Y-114749000D01*
X226763567Y-114774959D01*
X226763567Y-114774959D01*
G37*
G36*
X143333567Y-113450959D02*
X143464072Y-113476918D01*
X143709939Y-113578759D01*
X143930464Y-113726110D01*
X143931215Y-113726612D01*
X144119388Y-113914785D01*
X144119390Y-113914788D01*
X144267241Y-114136061D01*
X144369082Y-114381928D01*
X144421000Y-114642938D01*
X144421000Y-114909062D01*
X144369082Y-115170072D01*
X144267241Y-115415939D01*
X144170461Y-115560779D01*
X144119388Y-115637215D01*
X143931215Y-115825388D01*
X143931212Y-115825390D01*
X143709939Y-115973241D01*
X143464072Y-116075082D01*
X143333567Y-116101041D01*
X143203063Y-116127000D01*
X142936937Y-116127000D01*
X142806433Y-116101041D01*
X142675928Y-116075082D01*
X142430061Y-115973241D01*
X142208788Y-115825390D01*
X142208785Y-115825388D01*
X142020612Y-115637215D01*
X141969539Y-115560779D01*
X141872759Y-115415939D01*
X141770918Y-115170072D01*
X141719000Y-114909062D01*
X141719000Y-114642938D01*
X141770918Y-114381928D01*
X141872759Y-114136061D01*
X142020610Y-113914788D01*
X142020612Y-113914785D01*
X142208785Y-113726612D01*
X142209536Y-113726110D01*
X142430061Y-113578759D01*
X142675928Y-113476918D01*
X142806433Y-113450959D01*
X142936937Y-113425000D01*
X143203063Y-113425000D01*
X143333567Y-113450959D01*
X143333567Y-113450959D01*
G37*
G36*
X217534442Y-113913518D02*
X217600627Y-113920037D01*
X217713853Y-113954384D01*
X217770467Y-113971557D01*
X217909087Y-114045652D01*
X217926991Y-114055222D01*
X217962729Y-114084552D01*
X218064186Y-114167814D01*
X218147448Y-114269271D01*
X218176778Y-114305009D01*
X218176779Y-114305011D01*
X218260443Y-114461533D01*
X218260443Y-114461534D01*
X218311963Y-114631373D01*
X218329359Y-114808000D01*
X218311963Y-114984627D01*
X218277616Y-115097853D01*
X218260443Y-115154467D01*
X218215373Y-115238785D01*
X218176778Y-115310991D01*
X218147448Y-115346729D01*
X218064186Y-115448186D01*
X217962729Y-115531448D01*
X217926991Y-115560778D01*
X217926989Y-115560779D01*
X217770467Y-115644443D01*
X217713853Y-115661616D01*
X217600627Y-115695963D01*
X217534442Y-115702482D01*
X217468260Y-115709000D01*
X217379740Y-115709000D01*
X217313558Y-115702482D01*
X217247373Y-115695963D01*
X217134147Y-115661616D01*
X217077533Y-115644443D01*
X216921011Y-115560779D01*
X216921009Y-115560778D01*
X216885271Y-115531448D01*
X216783814Y-115448186D01*
X216700552Y-115346729D01*
X216671222Y-115310991D01*
X216632627Y-115238785D01*
X216587557Y-115154467D01*
X216570384Y-115097853D01*
X216536037Y-114984627D01*
X216518641Y-114808000D01*
X216536037Y-114631373D01*
X216587557Y-114461534D01*
X216587557Y-114461533D01*
X216671221Y-114305011D01*
X216671222Y-114305009D01*
X216700552Y-114269271D01*
X216783814Y-114167814D01*
X216885271Y-114084552D01*
X216921009Y-114055222D01*
X216938913Y-114045652D01*
X217077533Y-113971557D01*
X217134147Y-113954384D01*
X217247373Y-113920037D01*
X217313558Y-113913518D01*
X217379740Y-113907000D01*
X217468260Y-113907000D01*
X217534442Y-113913518D01*
X217534442Y-113913518D01*
G37*
G36*
X144421000Y-111127000D02*
X141719000Y-111127000D01*
X141719000Y-108425000D01*
X144421000Y-108425000D01*
X144421000Y-111127000D01*
X144421000Y-111127000D01*
G37*
G36*
X209268412Y-105945135D02*
X209500346Y-105991269D01*
X209681338Y-106066239D01*
X209937299Y-106172261D01*
X210330551Y-106435024D01*
X210664976Y-106769449D01*
X210927739Y-107162701D01*
X211108731Y-107599655D01*
X211201000Y-108063521D01*
X211201000Y-108536479D01*
X211108731Y-109000345D01*
X210927739Y-109437299D01*
X210664976Y-109830551D01*
X210330551Y-110164976D01*
X209937299Y-110427739D01*
X209681338Y-110533761D01*
X209500346Y-110608731D01*
X209268412Y-110654865D01*
X209036479Y-110701000D01*
X208563521Y-110701000D01*
X208331588Y-110654865D01*
X208099654Y-110608731D01*
X207918662Y-110533761D01*
X207662701Y-110427739D01*
X207269449Y-110164976D01*
X206935024Y-109830551D01*
X206672261Y-109437299D01*
X206491269Y-109000345D01*
X206399000Y-108536479D01*
X206399000Y-108063521D01*
X206491269Y-107599655D01*
X206672261Y-107162701D01*
X206935024Y-106769449D01*
X207269449Y-106435024D01*
X207662701Y-106172261D01*
X207918662Y-106066239D01*
X208099654Y-105991269D01*
X208331588Y-105945135D01*
X208563521Y-105899000D01*
X209036479Y-105899000D01*
X209268412Y-105945135D01*
X209268412Y-105945135D01*
G37*
G36*
X227851000Y-109251000D02*
X225149000Y-109251000D01*
X225149000Y-106549000D01*
X227851000Y-106549000D01*
X227851000Y-109251000D01*
X227851000Y-109251000D01*
G37*
G36*
X161268412Y-99845135D02*
X161500346Y-99891269D01*
X161681338Y-99966239D01*
X161937299Y-100072261D01*
X162330551Y-100335024D01*
X162664976Y-100669449D01*
X162927739Y-101062701D01*
X163033761Y-101318662D01*
X163108731Y-101499654D01*
X163128874Y-101600918D01*
X163178541Y-101850610D01*
X163201000Y-101963522D01*
X163201000Y-102436478D01*
X163108731Y-102900346D01*
X163033761Y-103081338D01*
X162927739Y-103337299D01*
X162664976Y-103730551D01*
X162330551Y-104064976D01*
X161937299Y-104327739D01*
X161681338Y-104433761D01*
X161500346Y-104508731D01*
X161268412Y-104554865D01*
X161036479Y-104601000D01*
X160563521Y-104601000D01*
X160331588Y-104554866D01*
X160099654Y-104508731D01*
X159918662Y-104433761D01*
X159662701Y-104327739D01*
X159269449Y-104064976D01*
X158935024Y-103730551D01*
X158672261Y-103337299D01*
X158566239Y-103081338D01*
X158491269Y-102900346D01*
X158399000Y-102436478D01*
X158399000Y-101963522D01*
X158421460Y-101850610D01*
X158471126Y-101600918D01*
X158491269Y-101499654D01*
X158566239Y-101318662D01*
X158672261Y-101062701D01*
X158935024Y-100669449D01*
X159269449Y-100335024D01*
X159662701Y-100072261D01*
X159918662Y-99966239D01*
X160099654Y-99891269D01*
X160331588Y-99845135D01*
X160563521Y-99799000D01*
X161036479Y-99799000D01*
X161268412Y-99845135D01*
X161268412Y-99845135D01*
G37*
G36*
X226763567Y-101574959D02*
X226894072Y-101600918D01*
X227139939Y-101702759D01*
X227360464Y-101850110D01*
X227361215Y-101850612D01*
X227549388Y-102038785D01*
X227549390Y-102038788D01*
X227697241Y-102260061D01*
X227799082Y-102505928D01*
X227851000Y-102766938D01*
X227851000Y-103033062D01*
X227799082Y-103294072D01*
X227697241Y-103539939D01*
X227569879Y-103730548D01*
X227549388Y-103761215D01*
X227361215Y-103949388D01*
X227361212Y-103949390D01*
X227139939Y-104097241D01*
X226894072Y-104199082D01*
X226763567Y-104225041D01*
X226633063Y-104251000D01*
X226366937Y-104251000D01*
X226236433Y-104225041D01*
X226105928Y-104199082D01*
X225860061Y-104097241D01*
X225638788Y-103949390D01*
X225638785Y-103949388D01*
X225450612Y-103761215D01*
X225430121Y-103730548D01*
X225302759Y-103539939D01*
X225200918Y-103294072D01*
X225149000Y-103033062D01*
X225149000Y-102766938D01*
X225200918Y-102505928D01*
X225302759Y-102260061D01*
X225450610Y-102038788D01*
X225450612Y-102038785D01*
X225638785Y-101850612D01*
X225639536Y-101850110D01*
X225860061Y-101702759D01*
X226105928Y-101600918D01*
X226236433Y-101574959D01*
X226366937Y-101549000D01*
X226633063Y-101549000D01*
X226763567Y-101574959D01*
X226763567Y-101574959D01*
G37*
G36*
X226763567Y-96574959D02*
X226894072Y-96600918D01*
X227139939Y-96702759D01*
X227360464Y-96850110D01*
X227361215Y-96850612D01*
X227549388Y-97038785D01*
X227549390Y-97038788D01*
X227697241Y-97260061D01*
X227799082Y-97505928D01*
X227851000Y-97766938D01*
X227851000Y-98033062D01*
X227799082Y-98294072D01*
X227697241Y-98539939D01*
X227590698Y-98699390D01*
X227549388Y-98761215D01*
X227361215Y-98949388D01*
X227361212Y-98949390D01*
X227139939Y-99097241D01*
X226894072Y-99199082D01*
X226763567Y-99225041D01*
X226633063Y-99251000D01*
X226366937Y-99251000D01*
X226236433Y-99225041D01*
X226105928Y-99199082D01*
X225860061Y-99097241D01*
X225638788Y-98949390D01*
X225638785Y-98949388D01*
X225450612Y-98761215D01*
X225409302Y-98699390D01*
X225302759Y-98539939D01*
X225200918Y-98294072D01*
X225149000Y-98033062D01*
X225149000Y-97766938D01*
X225200918Y-97505928D01*
X225302759Y-97260061D01*
X225450610Y-97038788D01*
X225450612Y-97038785D01*
X225638785Y-96850612D01*
X225639536Y-96850110D01*
X225860061Y-96702759D01*
X226105928Y-96600918D01*
X226236433Y-96574959D01*
X226366937Y-96549000D01*
X226633063Y-96549000D01*
X226763567Y-96574959D01*
X226763567Y-96574959D01*
G37*
G36*
X142963567Y-96324959D02*
X143094072Y-96350918D01*
X143339939Y-96452759D01*
X143560464Y-96600110D01*
X143561215Y-96600612D01*
X143749388Y-96788785D01*
X143749390Y-96788788D01*
X143897241Y-97010061D01*
X143999082Y-97255928D01*
X144051000Y-97516938D01*
X144051000Y-97783062D01*
X143999082Y-98044072D01*
X143897241Y-98289939D01*
X143749890Y-98510464D01*
X143749388Y-98511215D01*
X143561215Y-98699388D01*
X143561212Y-98699390D01*
X143339939Y-98847241D01*
X143094072Y-98949082D01*
X142963567Y-98975041D01*
X142833063Y-99001000D01*
X142566937Y-99001000D01*
X142436433Y-98975041D01*
X142305928Y-98949082D01*
X142060061Y-98847241D01*
X141838788Y-98699390D01*
X141838785Y-98699388D01*
X141650612Y-98511215D01*
X141650110Y-98510464D01*
X141502759Y-98289939D01*
X141400918Y-98044072D01*
X141349000Y-97783062D01*
X141349000Y-97516938D01*
X141400918Y-97255928D01*
X141502759Y-97010061D01*
X141650610Y-96788788D01*
X141650612Y-96788785D01*
X141838785Y-96600612D01*
X141839536Y-96600110D01*
X142060061Y-96452759D01*
X142305928Y-96350918D01*
X142436433Y-96324959D01*
X142566937Y-96299000D01*
X142833063Y-96299000D01*
X142963567Y-96324959D01*
X142963567Y-96324959D01*
G37*
G36*
X226763567Y-91574959D02*
X226894072Y-91600918D01*
X227139939Y-91702759D01*
X227360464Y-91850110D01*
X227361215Y-91850612D01*
X227549388Y-92038785D01*
X227549390Y-92038788D01*
X227697241Y-92260061D01*
X227799082Y-92505928D01*
X227851000Y-92766938D01*
X227851000Y-93033062D01*
X227799082Y-93294072D01*
X227697241Y-93539939D01*
X227590698Y-93699390D01*
X227549388Y-93761215D01*
X227361215Y-93949388D01*
X227361212Y-93949390D01*
X227139939Y-94097241D01*
X226894072Y-94199082D01*
X226763567Y-94225041D01*
X226633063Y-94251000D01*
X226366937Y-94251000D01*
X226236433Y-94225041D01*
X226105928Y-94199082D01*
X225860061Y-94097241D01*
X225638788Y-93949390D01*
X225638785Y-93949388D01*
X225450612Y-93761215D01*
X225409302Y-93699390D01*
X225302759Y-93539939D01*
X225200918Y-93294072D01*
X225149000Y-93033062D01*
X225149000Y-92766938D01*
X225200918Y-92505928D01*
X225302759Y-92260061D01*
X225450610Y-92038788D01*
X225450612Y-92038785D01*
X225638785Y-91850612D01*
X225639536Y-91850110D01*
X225860061Y-91702759D01*
X226105928Y-91600918D01*
X226236433Y-91574959D01*
X226366937Y-91549000D01*
X226633063Y-91549000D01*
X226763567Y-91574959D01*
X226763567Y-91574959D01*
G37*
G36*
X142963567Y-91324959D02*
X143094072Y-91350918D01*
X143339939Y-91452759D01*
X143560464Y-91600110D01*
X143561215Y-91600612D01*
X143749388Y-91788785D01*
X143749390Y-91788788D01*
X143897241Y-92010061D01*
X143999082Y-92255928D01*
X144051000Y-92516938D01*
X144051000Y-92783062D01*
X143999082Y-93044072D01*
X143897241Y-93289939D01*
X143749890Y-93510464D01*
X143749388Y-93511215D01*
X143561215Y-93699388D01*
X143561212Y-93699390D01*
X143339939Y-93847241D01*
X143094072Y-93949082D01*
X142963567Y-93975041D01*
X142833063Y-94001000D01*
X142566937Y-94001000D01*
X142436433Y-93975041D01*
X142305928Y-93949082D01*
X142060061Y-93847241D01*
X141838788Y-93699390D01*
X141838785Y-93699388D01*
X141650612Y-93511215D01*
X141650110Y-93510464D01*
X141502759Y-93289939D01*
X141400918Y-93044072D01*
X141349000Y-92783062D01*
X141349000Y-92516938D01*
X141400918Y-92255928D01*
X141502759Y-92010061D01*
X141650610Y-91788788D01*
X141650612Y-91788785D01*
X141838785Y-91600612D01*
X141839536Y-91600110D01*
X142060061Y-91452759D01*
X142305928Y-91350918D01*
X142436433Y-91324959D01*
X142566937Y-91299000D01*
X142833063Y-91299000D01*
X142963567Y-91324959D01*
X142963567Y-91324959D01*
G37*
G36*
X142963567Y-86324959D02*
X143094072Y-86350918D01*
X143339939Y-86452759D01*
X143560464Y-86600110D01*
X143561215Y-86600612D01*
X143749388Y-86788785D01*
X143749390Y-86788788D01*
X143897241Y-87010061D01*
X143999082Y-87255928D01*
X144051000Y-87516938D01*
X144051000Y-87783062D01*
X143999082Y-88044072D01*
X143897241Y-88289939D01*
X143749890Y-88510464D01*
X143749388Y-88511215D01*
X143561215Y-88699388D01*
X143561212Y-88699390D01*
X143339939Y-88847241D01*
X143094072Y-88949082D01*
X142963567Y-88975041D01*
X142833063Y-89001000D01*
X142566937Y-89001000D01*
X142436433Y-88975041D01*
X142305928Y-88949082D01*
X142060061Y-88847241D01*
X141838788Y-88699390D01*
X141838785Y-88699388D01*
X141650612Y-88511215D01*
X141650110Y-88510464D01*
X141502759Y-88289939D01*
X141400918Y-88044072D01*
X141349000Y-87783062D01*
X141349000Y-87516938D01*
X141400918Y-87255928D01*
X141502759Y-87010061D01*
X141650610Y-86788788D01*
X141650612Y-86788785D01*
X141838785Y-86600612D01*
X141839536Y-86600110D01*
X142060061Y-86452759D01*
X142305928Y-86350918D01*
X142436433Y-86324959D01*
X142566937Y-86299000D01*
X142833063Y-86299000D01*
X142963567Y-86324959D01*
X142963567Y-86324959D01*
G37*
G36*
X227812000Y-86515200D02*
X225110000Y-86515200D01*
X225110000Y-83813200D01*
X227812000Y-83813200D01*
X227812000Y-86515200D01*
X227812000Y-86515200D01*
G37*
G36*
X144051000Y-84001000D02*
X141349000Y-84001000D01*
X141349000Y-81299000D01*
X144051000Y-81299000D01*
X144051000Y-84001000D01*
X144051000Y-84001000D01*
G37*
G36*
X226724567Y-78839159D02*
X226855072Y-78865118D01*
X227100939Y-78966959D01*
X227321464Y-79114310D01*
X227322215Y-79114812D01*
X227510388Y-79302985D01*
X227510390Y-79302988D01*
X227658241Y-79524261D01*
X227760082Y-79770128D01*
X227812000Y-80031138D01*
X227812000Y-80297262D01*
X227760082Y-80558272D01*
X227658241Y-80804139D01*
X227510890Y-81024664D01*
X227510388Y-81025415D01*
X227322215Y-81213588D01*
X227322212Y-81213590D01*
X227100939Y-81361441D01*
X226855072Y-81463282D01*
X226724567Y-81489241D01*
X226594063Y-81515200D01*
X226327937Y-81515200D01*
X226197433Y-81489241D01*
X226066928Y-81463282D01*
X225821061Y-81361441D01*
X225599788Y-81213590D01*
X225599785Y-81213588D01*
X225411612Y-81025415D01*
X225411110Y-81024664D01*
X225263759Y-80804139D01*
X225161918Y-80558272D01*
X225110000Y-80297262D01*
X225110000Y-80031138D01*
X225161918Y-79770128D01*
X225263759Y-79524261D01*
X225411610Y-79302988D01*
X225411612Y-79302985D01*
X225599785Y-79114812D01*
X225600536Y-79114310D01*
X225821061Y-78966959D01*
X226066928Y-78865118D01*
X226197433Y-78839159D01*
X226327937Y-78813200D01*
X226594063Y-78813200D01*
X226724567Y-78839159D01*
X226724567Y-78839159D01*
G37*
G36*
X226724567Y-73839159D02*
X226855072Y-73865118D01*
X227100939Y-73966959D01*
X227321464Y-74114310D01*
X227322215Y-74114812D01*
X227510388Y-74302985D01*
X227510390Y-74302988D01*
X227658241Y-74524261D01*
X227760082Y-74770128D01*
X227812000Y-75031138D01*
X227812000Y-75297262D01*
X227760082Y-75558272D01*
X227658241Y-75804139D01*
X227510890Y-76024664D01*
X227510388Y-76025415D01*
X227322215Y-76213588D01*
X227322212Y-76213590D01*
X227100939Y-76361441D01*
X226855072Y-76463282D01*
X226724567Y-76489241D01*
X226594063Y-76515200D01*
X226327937Y-76515200D01*
X226197433Y-76489241D01*
X226066928Y-76463282D01*
X225821061Y-76361441D01*
X225599788Y-76213590D01*
X225599785Y-76213588D01*
X225411612Y-76025415D01*
X225411110Y-76024664D01*
X225263759Y-75804139D01*
X225161918Y-75558272D01*
X225110000Y-75297262D01*
X225110000Y-75031138D01*
X225161918Y-74770128D01*
X225263759Y-74524261D01*
X225411610Y-74302988D01*
X225411612Y-74302985D01*
X225599785Y-74114812D01*
X225600536Y-74114310D01*
X225821061Y-73966959D01*
X226066928Y-73865118D01*
X226197433Y-73839159D01*
X226327937Y-73813200D01*
X226594063Y-73813200D01*
X226724567Y-73839159D01*
X226724567Y-73839159D01*
G37*
G36*
X143011567Y-73190959D02*
X143142072Y-73216918D01*
X143387939Y-73318759D01*
X143608464Y-73466110D01*
X143609215Y-73466612D01*
X143797388Y-73654785D01*
X143797390Y-73654788D01*
X143945241Y-73876061D01*
X144047082Y-74121928D01*
X144099000Y-74382938D01*
X144099000Y-74649062D01*
X144047082Y-74910072D01*
X143945241Y-75155939D01*
X143797890Y-75376464D01*
X143797388Y-75377215D01*
X143609215Y-75565388D01*
X143609212Y-75565390D01*
X143387939Y-75713241D01*
X143142072Y-75815082D01*
X143011567Y-75841041D01*
X142881063Y-75867000D01*
X142614937Y-75867000D01*
X142484433Y-75841041D01*
X142353928Y-75815082D01*
X142108061Y-75713241D01*
X141886788Y-75565390D01*
X141886785Y-75565388D01*
X141698612Y-75377215D01*
X141698110Y-75376464D01*
X141550759Y-75155939D01*
X141448918Y-74910072D01*
X141397000Y-74649062D01*
X141397000Y-74382938D01*
X141448918Y-74121928D01*
X141550759Y-73876061D01*
X141698610Y-73654788D01*
X141698612Y-73654785D01*
X141886785Y-73466612D01*
X141887536Y-73466110D01*
X142108061Y-73318759D01*
X142353928Y-73216918D01*
X142484433Y-73190959D01*
X142614937Y-73165000D01*
X142881063Y-73165000D01*
X143011567Y-73190959D01*
X143011567Y-73190959D01*
G37*
G36*
X170945443Y-71280519D02*
X171011627Y-71287037D01*
X171124853Y-71321384D01*
X171181467Y-71338557D01*
X171320087Y-71412652D01*
X171337991Y-71422222D01*
X171373729Y-71451552D01*
X171475186Y-71534814D01*
X171558448Y-71636271D01*
X171587778Y-71672009D01*
X171587779Y-71672011D01*
X171671443Y-71828533D01*
X171671443Y-71828534D01*
X171722963Y-71998373D01*
X171740359Y-72175000D01*
X171722963Y-72351627D01*
X171688616Y-72464853D01*
X171671443Y-72521467D01*
X171597348Y-72660087D01*
X171587778Y-72677991D01*
X171558448Y-72713729D01*
X171475186Y-72815186D01*
X171373729Y-72898448D01*
X171337991Y-72927778D01*
X171337989Y-72927779D01*
X171181467Y-73011443D01*
X171124853Y-73028616D01*
X171011627Y-73062963D01*
X170945442Y-73069482D01*
X170879260Y-73076000D01*
X170790740Y-73076000D01*
X170724558Y-73069482D01*
X170658373Y-73062963D01*
X170545147Y-73028616D01*
X170488533Y-73011443D01*
X170332011Y-72927779D01*
X170332009Y-72927778D01*
X170296271Y-72898448D01*
X170194814Y-72815186D01*
X170111552Y-72713729D01*
X170082222Y-72677991D01*
X170072652Y-72660087D01*
X169998557Y-72521467D01*
X169981384Y-72464853D01*
X169947037Y-72351627D01*
X169929641Y-72175000D01*
X169947037Y-71998373D01*
X169998557Y-71828534D01*
X169998557Y-71828533D01*
X170082221Y-71672011D01*
X170082222Y-71672009D01*
X170111552Y-71636271D01*
X170194814Y-71534814D01*
X170296271Y-71451552D01*
X170332009Y-71422222D01*
X170349913Y-71412652D01*
X170488533Y-71338557D01*
X170545147Y-71321384D01*
X170658373Y-71287037D01*
X170724557Y-71280519D01*
X170790740Y-71274000D01*
X170879260Y-71274000D01*
X170945443Y-71280519D01*
X170945443Y-71280519D01*
G37*
G36*
X174276000Y-73076000D02*
X172474000Y-73076000D01*
X172474000Y-71274000D01*
X174276000Y-71274000D01*
X174276000Y-73076000D01*
X174276000Y-73076000D01*
G37*
G36*
X143011567Y-68190959D02*
X143142072Y-68216918D01*
X143387939Y-68318759D01*
X143608464Y-68466110D01*
X143609215Y-68466612D01*
X143797388Y-68654785D01*
X143797390Y-68654788D01*
X143945241Y-68876061D01*
X144047082Y-69121928D01*
X144099000Y-69382938D01*
X144099000Y-69649062D01*
X144047082Y-69910072D01*
X143945241Y-70155939D01*
X143797890Y-70376464D01*
X143797388Y-70377215D01*
X143609215Y-70565388D01*
X143609212Y-70565390D01*
X143387939Y-70713241D01*
X143142072Y-70815082D01*
X143011567Y-70841041D01*
X142881063Y-70867000D01*
X142614937Y-70867000D01*
X142484433Y-70841041D01*
X142353928Y-70815082D01*
X142108061Y-70713241D01*
X141886788Y-70565390D01*
X141886785Y-70565388D01*
X141698612Y-70377215D01*
X141698110Y-70376464D01*
X141550759Y-70155939D01*
X141448918Y-69910072D01*
X141397000Y-69649062D01*
X141397000Y-69382938D01*
X141448918Y-69121928D01*
X141550759Y-68876061D01*
X141698610Y-68654788D01*
X141698612Y-68654785D01*
X141886785Y-68466612D01*
X141887536Y-68466110D01*
X142108061Y-68318759D01*
X142353928Y-68216918D01*
X142484433Y-68190959D01*
X142614937Y-68165000D01*
X142881063Y-68165000D01*
X143011567Y-68190959D01*
X143011567Y-68190959D01*
G37*
G36*
X173485442Y-68740518D02*
X173551627Y-68747037D01*
X173664853Y-68781384D01*
X173721467Y-68798557D01*
X173860087Y-68872652D01*
X173877991Y-68882222D01*
X173913729Y-68911552D01*
X174015186Y-68994814D01*
X174098448Y-69096271D01*
X174127778Y-69132009D01*
X174127779Y-69132011D01*
X174211443Y-69288533D01*
X174211443Y-69288534D01*
X174262963Y-69458373D01*
X174280359Y-69635000D01*
X174262963Y-69811627D01*
X174233100Y-69910071D01*
X174211443Y-69981467D01*
X174137348Y-70120087D01*
X174127778Y-70137991D01*
X174113050Y-70155937D01*
X174015186Y-70275186D01*
X173913729Y-70358448D01*
X173877991Y-70387778D01*
X173877989Y-70387779D01*
X173721467Y-70471443D01*
X173664853Y-70488616D01*
X173551627Y-70522963D01*
X173485443Y-70529481D01*
X173419260Y-70536000D01*
X173330740Y-70536000D01*
X173264557Y-70529481D01*
X173198373Y-70522963D01*
X173085147Y-70488616D01*
X173028533Y-70471443D01*
X172872011Y-70387779D01*
X172872009Y-70387778D01*
X172836271Y-70358448D01*
X172734814Y-70275186D01*
X172636950Y-70155937D01*
X172622222Y-70137991D01*
X172612652Y-70120087D01*
X172538557Y-69981467D01*
X172516900Y-69910071D01*
X172487037Y-69811627D01*
X172469641Y-69635000D01*
X172487037Y-69458373D01*
X172538557Y-69288534D01*
X172538557Y-69288533D01*
X172622221Y-69132011D01*
X172622222Y-69132009D01*
X172651552Y-69096271D01*
X172734814Y-68994814D01*
X172836271Y-68911552D01*
X172872009Y-68882222D01*
X172889913Y-68872652D01*
X173028533Y-68798557D01*
X173085147Y-68781384D01*
X173198373Y-68747037D01*
X173264558Y-68740518D01*
X173330740Y-68734000D01*
X173419260Y-68734000D01*
X173485442Y-68740518D01*
X173485442Y-68740518D01*
G37*
G36*
X170945442Y-68740518D02*
X171011627Y-68747037D01*
X171124853Y-68781384D01*
X171181467Y-68798557D01*
X171320087Y-68872652D01*
X171337991Y-68882222D01*
X171373729Y-68911552D01*
X171475186Y-68994814D01*
X171558448Y-69096271D01*
X171587778Y-69132009D01*
X171587779Y-69132011D01*
X171671443Y-69288533D01*
X171671443Y-69288534D01*
X171722963Y-69458373D01*
X171740359Y-69635000D01*
X171722963Y-69811627D01*
X171693100Y-69910071D01*
X171671443Y-69981467D01*
X171597348Y-70120087D01*
X171587778Y-70137991D01*
X171573050Y-70155937D01*
X171475186Y-70275186D01*
X171373729Y-70358448D01*
X171337991Y-70387778D01*
X171337989Y-70387779D01*
X171181467Y-70471443D01*
X171124853Y-70488616D01*
X171011627Y-70522963D01*
X170945443Y-70529481D01*
X170879260Y-70536000D01*
X170790740Y-70536000D01*
X170724557Y-70529481D01*
X170658373Y-70522963D01*
X170545147Y-70488616D01*
X170488533Y-70471443D01*
X170332011Y-70387779D01*
X170332009Y-70387778D01*
X170296271Y-70358448D01*
X170194814Y-70275186D01*
X170096950Y-70155937D01*
X170082222Y-70137991D01*
X170072652Y-70120087D01*
X169998557Y-69981467D01*
X169976900Y-69910071D01*
X169947037Y-69811627D01*
X169929641Y-69635000D01*
X169947037Y-69458373D01*
X169998557Y-69288534D01*
X169998557Y-69288533D01*
X170082221Y-69132011D01*
X170082222Y-69132009D01*
X170111552Y-69096271D01*
X170194814Y-68994814D01*
X170296271Y-68911552D01*
X170332009Y-68882222D01*
X170349913Y-68872652D01*
X170488533Y-68798557D01*
X170545147Y-68781384D01*
X170658373Y-68747037D01*
X170724558Y-68740518D01*
X170790740Y-68734000D01*
X170879260Y-68734000D01*
X170945442Y-68740518D01*
X170945442Y-68740518D01*
G37*
G36*
X228306000Y-68604000D02*
X225604000Y-68604000D01*
X225604000Y-65902000D01*
X228306000Y-65902000D01*
X228306000Y-68604000D01*
X228306000Y-68604000D01*
G37*
G36*
X173485442Y-66200518D02*
X173551627Y-66207037D01*
X173664853Y-66241384D01*
X173721467Y-66258557D01*
X173850894Y-66327738D01*
X173877991Y-66342222D01*
X173913729Y-66371552D01*
X174015186Y-66454814D01*
X174098448Y-66556271D01*
X174127778Y-66592009D01*
X174127779Y-66592011D01*
X174211443Y-66748533D01*
X174211443Y-66748534D01*
X174262963Y-66918373D01*
X174280359Y-67095000D01*
X174262963Y-67271627D01*
X174228616Y-67384853D01*
X174211443Y-67441467D01*
X174137348Y-67580087D01*
X174127778Y-67597991D01*
X174098448Y-67633729D01*
X174015186Y-67735186D01*
X173913729Y-67818448D01*
X173877991Y-67847778D01*
X173877989Y-67847779D01*
X173721467Y-67931443D01*
X173664853Y-67948616D01*
X173551627Y-67982963D01*
X173485442Y-67989482D01*
X173419260Y-67996000D01*
X173330740Y-67996000D01*
X173264558Y-67989482D01*
X173198373Y-67982963D01*
X173085147Y-67948616D01*
X173028533Y-67931443D01*
X172872011Y-67847779D01*
X172872009Y-67847778D01*
X172836271Y-67818448D01*
X172734814Y-67735186D01*
X172651552Y-67633729D01*
X172622222Y-67597991D01*
X172612652Y-67580087D01*
X172538557Y-67441467D01*
X172521384Y-67384853D01*
X172487037Y-67271627D01*
X172469641Y-67095000D01*
X172487037Y-66918373D01*
X172538557Y-66748534D01*
X172538557Y-66748533D01*
X172622221Y-66592011D01*
X172622222Y-66592009D01*
X172651552Y-66556271D01*
X172734814Y-66454814D01*
X172836271Y-66371552D01*
X172872009Y-66342222D01*
X172899106Y-66327738D01*
X173028533Y-66258557D01*
X173085147Y-66241384D01*
X173198373Y-66207037D01*
X173264558Y-66200518D01*
X173330740Y-66194000D01*
X173419260Y-66194000D01*
X173485442Y-66200518D01*
X173485442Y-66200518D01*
G37*
G36*
X170945442Y-66200518D02*
X171011627Y-66207037D01*
X171124853Y-66241384D01*
X171181467Y-66258557D01*
X171310894Y-66327738D01*
X171337991Y-66342222D01*
X171373729Y-66371552D01*
X171475186Y-66454814D01*
X171558448Y-66556271D01*
X171587778Y-66592009D01*
X171587779Y-66592011D01*
X171671443Y-66748533D01*
X171671443Y-66748534D01*
X171722963Y-66918373D01*
X171740359Y-67095000D01*
X171722963Y-67271627D01*
X171688616Y-67384853D01*
X171671443Y-67441467D01*
X171597348Y-67580087D01*
X171587778Y-67597991D01*
X171558448Y-67633729D01*
X171475186Y-67735186D01*
X171373729Y-67818448D01*
X171337991Y-67847778D01*
X171337989Y-67847779D01*
X171181467Y-67931443D01*
X171124853Y-67948616D01*
X171011627Y-67982963D01*
X170945442Y-67989482D01*
X170879260Y-67996000D01*
X170790740Y-67996000D01*
X170724558Y-67989482D01*
X170658373Y-67982963D01*
X170545147Y-67948616D01*
X170488533Y-67931443D01*
X170332011Y-67847779D01*
X170332009Y-67847778D01*
X170296271Y-67818448D01*
X170194814Y-67735186D01*
X170111552Y-67633729D01*
X170082222Y-67597991D01*
X170072652Y-67580087D01*
X169998557Y-67441467D01*
X169981384Y-67384853D01*
X169947037Y-67271627D01*
X169929641Y-67095000D01*
X169947037Y-66918373D01*
X169998557Y-66748534D01*
X169998557Y-66748533D01*
X170082221Y-66592011D01*
X170082222Y-66592009D01*
X170111552Y-66556271D01*
X170194814Y-66454814D01*
X170296271Y-66371552D01*
X170332009Y-66342222D01*
X170359106Y-66327738D01*
X170488533Y-66258557D01*
X170545147Y-66241384D01*
X170658373Y-66207037D01*
X170724558Y-66200518D01*
X170790740Y-66194000D01*
X170879260Y-66194000D01*
X170945442Y-66200518D01*
X170945442Y-66200518D01*
G37*
G36*
X163668412Y-61845134D02*
X163900346Y-61891269D01*
X164081338Y-61966239D01*
X164337299Y-62072261D01*
X164730551Y-62335024D01*
X165064976Y-62669449D01*
X165327739Y-63062701D01*
X165427020Y-63302388D01*
X165508731Y-63499654D01*
X165529487Y-63604000D01*
X165601000Y-63963521D01*
X165601000Y-64436479D01*
X165508731Y-64900345D01*
X165327739Y-65337299D01*
X165064976Y-65730551D01*
X164730551Y-66064976D01*
X164337299Y-66327739D01*
X164081338Y-66433761D01*
X163900346Y-66508731D01*
X163668412Y-66554866D01*
X163436479Y-66601000D01*
X162963521Y-66601000D01*
X162731588Y-66554866D01*
X162499654Y-66508731D01*
X162318662Y-66433761D01*
X162062701Y-66327739D01*
X161669449Y-66064976D01*
X161335024Y-65730551D01*
X161072261Y-65337299D01*
X160891269Y-64900345D01*
X160799000Y-64436479D01*
X160799000Y-63963521D01*
X160870513Y-63604000D01*
X160891269Y-63499654D01*
X160972980Y-63302388D01*
X161072261Y-63062701D01*
X161335024Y-62669449D01*
X161669449Y-62335024D01*
X162062701Y-62072261D01*
X162318662Y-61966239D01*
X162499654Y-61891269D01*
X162731588Y-61845134D01*
X162963521Y-61799000D01*
X163436479Y-61799000D01*
X163668412Y-61845134D01*
X163668412Y-61845134D01*
G37*
G36*
X144099000Y-65867000D02*
X141397000Y-65867000D01*
X141397000Y-63165000D01*
X144099000Y-63165000D01*
X144099000Y-65867000D01*
X144099000Y-65867000D01*
G37*
G36*
X227218567Y-60927959D02*
X227349072Y-60953918D01*
X227594939Y-61055759D01*
X227815464Y-61203110D01*
X227816215Y-61203612D01*
X228004388Y-61391785D01*
X228004390Y-61391788D01*
X228152241Y-61613061D01*
X228229259Y-61799000D01*
X228254082Y-61858929D01*
X228296517Y-62072261D01*
X228306000Y-62119938D01*
X228306000Y-62386062D01*
X228254082Y-62647072D01*
X228152241Y-62892939D01*
X228038809Y-63062700D01*
X228004388Y-63114215D01*
X227816215Y-63302388D01*
X227816212Y-63302390D01*
X227594939Y-63450241D01*
X227349072Y-63552082D01*
X227218567Y-63578041D01*
X227088063Y-63604000D01*
X226821937Y-63604000D01*
X226691433Y-63578041D01*
X226560928Y-63552082D01*
X226315061Y-63450241D01*
X226093788Y-63302390D01*
X226093785Y-63302388D01*
X225905612Y-63114215D01*
X225871191Y-63062700D01*
X225757759Y-62892939D01*
X225655918Y-62647072D01*
X225604000Y-62386062D01*
X225604000Y-62119938D01*
X225613484Y-62072261D01*
X225655918Y-61858929D01*
X225680741Y-61799000D01*
X225757759Y-61613061D01*
X225905610Y-61391788D01*
X225905612Y-61391785D01*
X226093785Y-61203612D01*
X226094536Y-61203110D01*
X226315061Y-61055759D01*
X226560928Y-60953918D01*
X226691433Y-60927959D01*
X226821937Y-60902000D01*
X227088063Y-60902000D01*
X227218567Y-60927959D01*
X227218567Y-60927959D01*
G37*
G36*
X188054729Y-59223709D02*
X188220520Y-59292381D01*
X188369732Y-59392082D01*
X188496618Y-59518968D01*
X188596319Y-59668180D01*
X188664991Y-59833971D01*
X188700000Y-60009973D01*
X188700000Y-60189427D01*
X188664991Y-60365429D01*
X188596319Y-60531220D01*
X188496618Y-60680432D01*
X188369732Y-60807318D01*
X188220520Y-60907019D01*
X188054729Y-60975691D01*
X187878727Y-61010700D01*
X187699273Y-61010700D01*
X187523271Y-60975691D01*
X187357480Y-60907019D01*
X187208268Y-60807318D01*
X187081382Y-60680432D01*
X186981681Y-60531220D01*
X186913009Y-60365429D01*
X186878000Y-60189427D01*
X186878000Y-60009973D01*
X186913009Y-59833971D01*
X186981681Y-59668180D01*
X187081382Y-59518968D01*
X187208268Y-59392082D01*
X187357480Y-59292381D01*
X187523271Y-59223709D01*
X187699273Y-59188700D01*
X187878727Y-59188700D01*
X188054729Y-59223709D01*
X188054729Y-59223709D01*
G37*
G36*
X196444729Y-59223709D02*
X196610520Y-59292381D01*
X196759732Y-59392082D01*
X196886618Y-59518968D01*
X196986319Y-59668180D01*
X197054991Y-59833971D01*
X197090000Y-60009973D01*
X197090000Y-60189427D01*
X197054991Y-60365429D01*
X196986319Y-60531220D01*
X196886618Y-60680432D01*
X196759732Y-60807318D01*
X196610520Y-60907019D01*
X196444729Y-60975691D01*
X196268727Y-61010700D01*
X196089273Y-61010700D01*
X195913271Y-60975691D01*
X195747480Y-60907019D01*
X195598268Y-60807318D01*
X195471382Y-60680432D01*
X195371681Y-60531220D01*
X195303009Y-60365429D01*
X195268000Y-60189427D01*
X195268000Y-60009973D01*
X195303009Y-59833971D01*
X195371681Y-59668180D01*
X195471382Y-59518968D01*
X195598268Y-59392082D01*
X195747480Y-59292381D01*
X195913271Y-59223709D01*
X196089273Y-59188700D01*
X196268727Y-59188700D01*
X196444729Y-59223709D01*
X196444729Y-59223709D01*
G37*
G36*
X198984729Y-59223709D02*
X199150520Y-59292381D01*
X199299732Y-59392082D01*
X199426618Y-59518968D01*
X199526319Y-59668180D01*
X199594991Y-59833971D01*
X199630000Y-60009973D01*
X199630000Y-60189427D01*
X199594991Y-60365429D01*
X199526319Y-60531220D01*
X199426618Y-60680432D01*
X199299732Y-60807318D01*
X199150520Y-60907019D01*
X198984729Y-60975691D01*
X198808727Y-61010700D01*
X198629273Y-61010700D01*
X198453271Y-60975691D01*
X198287480Y-60907019D01*
X198138268Y-60807318D01*
X198011382Y-60680432D01*
X197911681Y-60531220D01*
X197843009Y-60365429D01*
X197808000Y-60189427D01*
X197808000Y-60009973D01*
X197843009Y-59833971D01*
X197911681Y-59668180D01*
X198011382Y-59518968D01*
X198138268Y-59392082D01*
X198287480Y-59292381D01*
X198453271Y-59223709D01*
X198629273Y-59188700D01*
X198808727Y-59188700D01*
X198984729Y-59223709D01*
X198984729Y-59223709D01*
G37*
G36*
X190594729Y-59223709D02*
X190760520Y-59292381D01*
X190909732Y-59392082D01*
X191036618Y-59518968D01*
X191136319Y-59668180D01*
X191204991Y-59833971D01*
X191240000Y-60009973D01*
X191240000Y-60189427D01*
X191204991Y-60365429D01*
X191136319Y-60531220D01*
X191036618Y-60680432D01*
X190909732Y-60807318D01*
X190760520Y-60907019D01*
X190594729Y-60975691D01*
X190418727Y-61010700D01*
X190239273Y-61010700D01*
X190063271Y-60975691D01*
X189897480Y-60907019D01*
X189748268Y-60807318D01*
X189621382Y-60680432D01*
X189521681Y-60531220D01*
X189453009Y-60365429D01*
X189418000Y-60189427D01*
X189418000Y-60009973D01*
X189453009Y-59833971D01*
X189521681Y-59668180D01*
X189621382Y-59518968D01*
X189748268Y-59392082D01*
X189897480Y-59292381D01*
X190063271Y-59223709D01*
X190239273Y-59188700D01*
X190418727Y-59188700D01*
X190594729Y-59223709D01*
X190594729Y-59223709D01*
G37*
G36*
X227218567Y-55927959D02*
X227349072Y-55953918D01*
X227594939Y-56055759D01*
X227815464Y-56203110D01*
X227816215Y-56203612D01*
X228004388Y-56391785D01*
X228004390Y-56391788D01*
X228152241Y-56613061D01*
X228254082Y-56858928D01*
X228306000Y-57119938D01*
X228306000Y-57386062D01*
X228254082Y-57647072D01*
X228152241Y-57892939D01*
X228004890Y-58113464D01*
X228004388Y-58114215D01*
X227816215Y-58302388D01*
X227816212Y-58302390D01*
X227594939Y-58450241D01*
X227349072Y-58552082D01*
X227218567Y-58578041D01*
X227088063Y-58604000D01*
X226821937Y-58604000D01*
X226691433Y-58578041D01*
X226560928Y-58552082D01*
X226315061Y-58450241D01*
X226093788Y-58302390D01*
X226093785Y-58302388D01*
X225905612Y-58114215D01*
X225905110Y-58113464D01*
X225757759Y-57892939D01*
X225655918Y-57647072D01*
X225604000Y-57386062D01*
X225604000Y-57119938D01*
X225655918Y-56858928D01*
X225757759Y-56613061D01*
X225905610Y-56391788D01*
X225905612Y-56391785D01*
X226093785Y-56203612D01*
X226094536Y-56203110D01*
X226315061Y-56055759D01*
X226560928Y-55953918D01*
X226691433Y-55927959D01*
X226821937Y-55902000D01*
X227088063Y-55902000D01*
X227218567Y-55927959D01*
X227218567Y-55927959D01*
G37*
G36*
X189516961Y-54422705D02*
X189550161Y-54432776D01*
X189580747Y-54449125D01*
X189607566Y-54471134D01*
X189629575Y-54497953D01*
X189645924Y-54528539D01*
X189655995Y-54561739D01*
X189660000Y-54602401D01*
X189660000Y-55936999D01*
X189655995Y-55977661D01*
X189645924Y-56010861D01*
X189629575Y-56041447D01*
X189607566Y-56068266D01*
X189580747Y-56090275D01*
X189550161Y-56106624D01*
X189516961Y-56116695D01*
X189476299Y-56120700D01*
X188141701Y-56120700D01*
X188101039Y-56116695D01*
X188067839Y-56106624D01*
X188037253Y-56090275D01*
X188010434Y-56068266D01*
X187988425Y-56041447D01*
X187972076Y-56010861D01*
X187962005Y-55977661D01*
X187958000Y-55936999D01*
X187958000Y-54602401D01*
X187962005Y-54561739D01*
X187972076Y-54528539D01*
X187988425Y-54497953D01*
X188010434Y-54471134D01*
X188037253Y-54449125D01*
X188067839Y-54432776D01*
X188101039Y-54422705D01*
X188141701Y-54418700D01*
X189476299Y-54418700D01*
X189516961Y-54422705D01*
X189516961Y-54422705D01*
G37*
G36*
X191597228Y-54451403D02*
X191752100Y-54515553D01*
X191891481Y-54608685D01*
X192010015Y-54727219D01*
X192103147Y-54866600D01*
X192167297Y-55021472D01*
X192200000Y-55185884D01*
X192200000Y-55353516D01*
X192167297Y-55517928D01*
X192103147Y-55672800D01*
X192010015Y-55812181D01*
X191891481Y-55930715D01*
X191752100Y-56023847D01*
X191597228Y-56087997D01*
X191432816Y-56120700D01*
X191265184Y-56120700D01*
X191100772Y-56087997D01*
X190945900Y-56023847D01*
X190806519Y-55930715D01*
X190687985Y-55812181D01*
X190594853Y-55672800D01*
X190530703Y-55517928D01*
X190498000Y-55353516D01*
X190498000Y-55185884D01*
X190530703Y-55021472D01*
X190594853Y-54866600D01*
X190687985Y-54727219D01*
X190806519Y-54608685D01*
X190945900Y-54515553D01*
X191100772Y-54451403D01*
X191265184Y-54418700D01*
X191432816Y-54418700D01*
X191597228Y-54451403D01*
X191597228Y-54451403D01*
G37*
G36*
X194137228Y-54451403D02*
X194292100Y-54515553D01*
X194431481Y-54608685D01*
X194550015Y-54727219D01*
X194643147Y-54866600D01*
X194707297Y-55021472D01*
X194740000Y-55185884D01*
X194740000Y-55353516D01*
X194707297Y-55517928D01*
X194643147Y-55672800D01*
X194550015Y-55812181D01*
X194431481Y-55930715D01*
X194292100Y-56023847D01*
X194137228Y-56087997D01*
X193972816Y-56120700D01*
X193805184Y-56120700D01*
X193640772Y-56087997D01*
X193485900Y-56023847D01*
X193346519Y-55930715D01*
X193227985Y-55812181D01*
X193134853Y-55672800D01*
X193070703Y-55517928D01*
X193038000Y-55353516D01*
X193038000Y-55185884D01*
X193070703Y-55021472D01*
X193134853Y-54866600D01*
X193227985Y-54727219D01*
X193346519Y-54608685D01*
X193485900Y-54515553D01*
X193640772Y-54451403D01*
X193805184Y-54418700D01*
X193972816Y-54418700D01*
X194137228Y-54451403D01*
X194137228Y-54451403D01*
G37*
G36*
X196677228Y-54451403D02*
X196832100Y-54515553D01*
X196971481Y-54608685D01*
X197090015Y-54727219D01*
X197183147Y-54866600D01*
X197247297Y-55021472D01*
X197280000Y-55185884D01*
X197280000Y-55353516D01*
X197247297Y-55517928D01*
X197183147Y-55672800D01*
X197090015Y-55812181D01*
X196971481Y-55930715D01*
X196832100Y-56023847D01*
X196677228Y-56087997D01*
X196512816Y-56120700D01*
X196345184Y-56120700D01*
X196180772Y-56087997D01*
X196025900Y-56023847D01*
X195886519Y-55930715D01*
X195767985Y-55812181D01*
X195674853Y-55672800D01*
X195610703Y-55517928D01*
X195578000Y-55353516D01*
X195578000Y-55185884D01*
X195610703Y-55021472D01*
X195674853Y-54866600D01*
X195767985Y-54727219D01*
X195886519Y-54608685D01*
X196025900Y-54515553D01*
X196180772Y-54451403D01*
X196345184Y-54418700D01*
X196512816Y-54418700D01*
X196677228Y-54451403D01*
X196677228Y-54451403D01*
G37*
G36*
X143063567Y-51774959D02*
X143194072Y-51800918D01*
X143439939Y-51902759D01*
X143660464Y-52050110D01*
X143661215Y-52050612D01*
X143849388Y-52238785D01*
X143849390Y-52238788D01*
X143997241Y-52460061D01*
X144099082Y-52705928D01*
X144151000Y-52966938D01*
X144151000Y-53233062D01*
X144099082Y-53494072D01*
X143997241Y-53739939D01*
X143849890Y-53960464D01*
X143849388Y-53961215D01*
X143661215Y-54149388D01*
X143661212Y-54149390D01*
X143439939Y-54297241D01*
X143194072Y-54399082D01*
X143095445Y-54418700D01*
X142933063Y-54451000D01*
X142666937Y-54451000D01*
X142504555Y-54418700D01*
X142405928Y-54399082D01*
X142160061Y-54297241D01*
X141938788Y-54149390D01*
X141938785Y-54149388D01*
X141750612Y-53961215D01*
X141750110Y-53960464D01*
X141602759Y-53739939D01*
X141500918Y-53494072D01*
X141449000Y-53233062D01*
X141449000Y-52966938D01*
X141500918Y-52705928D01*
X141602759Y-52460061D01*
X141750610Y-52238788D01*
X141750612Y-52238785D01*
X141938785Y-52050612D01*
X141939536Y-52050110D01*
X142160061Y-51902759D01*
X142405928Y-51800918D01*
X142536433Y-51774959D01*
X142666937Y-51749000D01*
X142933063Y-51749000D01*
X143063567Y-51774959D01*
X143063567Y-51774959D01*
G37*
G36*
X227218567Y-50927959D02*
X227349072Y-50953918D01*
X227594939Y-51055759D01*
X227815464Y-51203110D01*
X227816215Y-51203612D01*
X228004388Y-51391785D01*
X228004390Y-51391788D01*
X228152241Y-51613061D01*
X228254082Y-51858928D01*
X228306000Y-52119938D01*
X228306000Y-52386062D01*
X228254082Y-52647072D01*
X228152241Y-52892939D01*
X228004890Y-53113464D01*
X228004388Y-53114215D01*
X227816215Y-53302388D01*
X227816212Y-53302390D01*
X227594939Y-53450241D01*
X227349072Y-53552082D01*
X227218567Y-53578041D01*
X227088063Y-53604000D01*
X226821937Y-53604000D01*
X226691433Y-53578041D01*
X226560928Y-53552082D01*
X226315061Y-53450241D01*
X226093788Y-53302390D01*
X226093785Y-53302388D01*
X225905612Y-53114215D01*
X225905110Y-53113464D01*
X225757759Y-52892939D01*
X225655918Y-52647072D01*
X225604000Y-52386062D01*
X225604000Y-52119938D01*
X225655918Y-51858928D01*
X225757759Y-51613061D01*
X225905610Y-51391788D01*
X225905612Y-51391785D01*
X226093785Y-51203612D01*
X226094536Y-51203110D01*
X226315061Y-51055759D01*
X226560928Y-50953918D01*
X226691433Y-50927959D01*
X226821937Y-50902000D01*
X227088063Y-50902000D01*
X227218567Y-50927959D01*
X227218567Y-50927959D01*
G37*
G36*
X197947228Y-51911403D02*
X198102100Y-51975553D01*
X198241481Y-52068685D01*
X198360015Y-52187219D01*
X198453147Y-52326600D01*
X198517297Y-52481472D01*
X198550000Y-52645884D01*
X198550000Y-52813516D01*
X198517297Y-52977928D01*
X198453147Y-53132800D01*
X198360015Y-53272181D01*
X198241481Y-53390715D01*
X198102100Y-53483847D01*
X197947228Y-53547997D01*
X197782816Y-53580700D01*
X197615184Y-53580700D01*
X197450772Y-53547997D01*
X197295900Y-53483847D01*
X197156519Y-53390715D01*
X197037985Y-53272181D01*
X196944853Y-53132800D01*
X196880703Y-52977928D01*
X196848000Y-52813516D01*
X196848000Y-52645884D01*
X196880703Y-52481472D01*
X196944853Y-52326600D01*
X197037985Y-52187219D01*
X197156519Y-52068685D01*
X197295900Y-51975553D01*
X197450772Y-51911403D01*
X197615184Y-51878700D01*
X197782816Y-51878700D01*
X197947228Y-51911403D01*
X197947228Y-51911403D01*
G37*
G36*
X190327228Y-51911403D02*
X190482100Y-51975553D01*
X190621481Y-52068685D01*
X190740015Y-52187219D01*
X190833147Y-52326600D01*
X190897297Y-52481472D01*
X190930000Y-52645884D01*
X190930000Y-52813516D01*
X190897297Y-52977928D01*
X190833147Y-53132800D01*
X190740015Y-53272181D01*
X190621481Y-53390715D01*
X190482100Y-53483847D01*
X190327228Y-53547997D01*
X190162816Y-53580700D01*
X189995184Y-53580700D01*
X189830772Y-53547997D01*
X189675900Y-53483847D01*
X189536519Y-53390715D01*
X189417985Y-53272181D01*
X189324853Y-53132800D01*
X189260703Y-52977928D01*
X189228000Y-52813516D01*
X189228000Y-52645884D01*
X189260703Y-52481472D01*
X189324853Y-52326600D01*
X189417985Y-52187219D01*
X189536519Y-52068685D01*
X189675900Y-51975553D01*
X189830772Y-51911403D01*
X189995184Y-51878700D01*
X190162816Y-51878700D01*
X190327228Y-51911403D01*
X190327228Y-51911403D01*
G37*
G36*
X195407228Y-51911403D02*
X195562100Y-51975553D01*
X195701481Y-52068685D01*
X195820015Y-52187219D01*
X195913147Y-52326600D01*
X195977297Y-52481472D01*
X196010000Y-52645884D01*
X196010000Y-52813516D01*
X195977297Y-52977928D01*
X195913147Y-53132800D01*
X195820015Y-53272181D01*
X195701481Y-53390715D01*
X195562100Y-53483847D01*
X195407228Y-53547997D01*
X195242816Y-53580700D01*
X195075184Y-53580700D01*
X194910772Y-53547997D01*
X194755900Y-53483847D01*
X194616519Y-53390715D01*
X194497985Y-53272181D01*
X194404853Y-53132800D01*
X194340703Y-52977928D01*
X194308000Y-52813516D01*
X194308000Y-52645884D01*
X194340703Y-52481472D01*
X194404853Y-52326600D01*
X194497985Y-52187219D01*
X194616519Y-52068685D01*
X194755900Y-51975553D01*
X194910772Y-51911403D01*
X195075184Y-51878700D01*
X195242816Y-51878700D01*
X195407228Y-51911403D01*
X195407228Y-51911403D01*
G37*
G36*
X192867228Y-51911403D02*
X193022100Y-51975553D01*
X193161481Y-52068685D01*
X193280015Y-52187219D01*
X193373147Y-52326600D01*
X193437297Y-52481472D01*
X193470000Y-52645884D01*
X193470000Y-52813516D01*
X193437297Y-52977928D01*
X193373147Y-53132800D01*
X193280015Y-53272181D01*
X193161481Y-53390715D01*
X193022100Y-53483847D01*
X192867228Y-53547997D01*
X192702816Y-53580700D01*
X192535184Y-53580700D01*
X192370772Y-53547997D01*
X192215900Y-53483847D01*
X192076519Y-53390715D01*
X191957985Y-53272181D01*
X191864853Y-53132800D01*
X191800703Y-52977928D01*
X191768000Y-52813516D01*
X191768000Y-52645884D01*
X191800703Y-52481472D01*
X191864853Y-52326600D01*
X191957985Y-52187219D01*
X192076519Y-52068685D01*
X192215900Y-51975553D01*
X192370772Y-51911403D01*
X192535184Y-51878700D01*
X192702816Y-51878700D01*
X192867228Y-51911403D01*
X192867228Y-51911403D01*
G37*
G36*
X201402228Y-48611403D02*
X201557100Y-48675553D01*
X201696481Y-48768685D01*
X201815015Y-48887219D01*
X201908147Y-49026600D01*
X201972297Y-49181472D01*
X202005000Y-49345884D01*
X202005000Y-49513516D01*
X201972297Y-49677928D01*
X201908147Y-49832800D01*
X201815015Y-49972181D01*
X201696481Y-50090715D01*
X201557100Y-50183847D01*
X201402228Y-50247997D01*
X201237816Y-50280700D01*
X201070184Y-50280700D01*
X200905772Y-50247997D01*
X200750900Y-50183847D01*
X200611519Y-50090715D01*
X200492985Y-49972181D01*
X200399853Y-49832800D01*
X200335703Y-49677928D01*
X200303000Y-49513516D01*
X200303000Y-49345884D01*
X200335703Y-49181472D01*
X200399853Y-49026600D01*
X200492985Y-48887219D01*
X200611519Y-48768685D01*
X200750900Y-48675553D01*
X200905772Y-48611403D01*
X201070184Y-48578700D01*
X201237816Y-48578700D01*
X201402228Y-48611403D01*
X201402228Y-48611403D01*
G37*
G36*
X185602228Y-48611403D02*
X185757100Y-48675553D01*
X185896481Y-48768685D01*
X186015015Y-48887219D01*
X186108147Y-49026600D01*
X186172297Y-49181472D01*
X186205000Y-49345884D01*
X186205000Y-49513516D01*
X186172297Y-49677928D01*
X186108147Y-49832800D01*
X186015015Y-49972181D01*
X185896481Y-50090715D01*
X185757100Y-50183847D01*
X185602228Y-50247997D01*
X185437816Y-50280700D01*
X185270184Y-50280700D01*
X185105772Y-50247997D01*
X184950900Y-50183847D01*
X184811519Y-50090715D01*
X184692985Y-49972181D01*
X184599853Y-49832800D01*
X184535703Y-49677928D01*
X184503000Y-49513516D01*
X184503000Y-49345884D01*
X184535703Y-49181472D01*
X184599853Y-49026600D01*
X184692985Y-48887219D01*
X184811519Y-48768685D01*
X184950900Y-48675553D01*
X185105772Y-48611403D01*
X185270184Y-48578700D01*
X185437816Y-48578700D01*
X185602228Y-48611403D01*
X185602228Y-48611403D01*
G37*
G36*
X143063567Y-46774959D02*
X143194072Y-46800918D01*
X143439939Y-46902759D01*
X143660464Y-47050110D01*
X143661215Y-47050612D01*
X143849388Y-47238785D01*
X143849390Y-47238788D01*
X143997241Y-47460061D01*
X144099082Y-47705928D01*
X144151000Y-47966938D01*
X144151000Y-48233062D01*
X144099082Y-48494072D01*
X143997241Y-48739939D01*
X143849890Y-48960464D01*
X143849388Y-48961215D01*
X143661215Y-49149388D01*
X143661212Y-49149390D01*
X143439939Y-49297241D01*
X143194072Y-49399082D01*
X143063567Y-49425041D01*
X142933063Y-49451000D01*
X142666937Y-49451000D01*
X142536433Y-49425041D01*
X142405928Y-49399082D01*
X142160061Y-49297241D01*
X141938788Y-49149390D01*
X141938785Y-49149388D01*
X141750612Y-48961215D01*
X141750110Y-48960464D01*
X141602759Y-48739939D01*
X141500918Y-48494072D01*
X141449000Y-48233062D01*
X141449000Y-47966938D01*
X141500918Y-47705928D01*
X141602759Y-47460061D01*
X141750610Y-47238788D01*
X141750612Y-47238785D01*
X141938785Y-47050612D01*
X141939536Y-47050110D01*
X142160061Y-46902759D01*
X142405928Y-46800918D01*
X142536433Y-46774959D01*
X142666937Y-46749000D01*
X142933063Y-46749000D01*
X143063567Y-46774959D01*
X143063567Y-46774959D01*
G37*
G36*
X227218567Y-45927959D02*
X227349072Y-45953918D01*
X227594939Y-46055759D01*
X227815464Y-46203110D01*
X227816215Y-46203612D01*
X228004388Y-46391785D01*
X228004390Y-46391788D01*
X228152241Y-46613061D01*
X228254082Y-46858928D01*
X228280041Y-46989433D01*
X228306000Y-47119937D01*
X228306000Y-47386063D01*
X228293662Y-47448090D01*
X228254082Y-47647072D01*
X228152241Y-47892939D01*
X228004890Y-48113464D01*
X228004388Y-48114215D01*
X227816215Y-48302388D01*
X227816212Y-48302390D01*
X227594939Y-48450241D01*
X227349072Y-48552082D01*
X227218567Y-48578041D01*
X227088063Y-48604000D01*
X226821937Y-48604000D01*
X226691433Y-48578041D01*
X226560928Y-48552082D01*
X226315061Y-48450241D01*
X226093788Y-48302390D01*
X226093785Y-48302388D01*
X225905612Y-48114215D01*
X225905110Y-48113464D01*
X225757759Y-47892939D01*
X225655918Y-47647072D01*
X225616338Y-47448090D01*
X225604000Y-47386063D01*
X225604000Y-47119937D01*
X225629959Y-46989433D01*
X225655918Y-46858928D01*
X225757759Y-46613061D01*
X225905610Y-46391788D01*
X225905612Y-46391785D01*
X226093785Y-46203612D01*
X226094536Y-46203110D01*
X226315061Y-46055759D01*
X226560928Y-45953918D01*
X226691433Y-45927959D01*
X226821937Y-45902000D01*
X227088063Y-45902000D01*
X227218567Y-45927959D01*
X227218567Y-45927959D01*
G37*
G36*
X199457871Y-44768108D02*
X199762883Y-44894448D01*
X200035538Y-45076630D01*
X200037390Y-45077868D01*
X200270832Y-45311310D01*
X200270834Y-45311313D01*
X200454252Y-45585817D01*
X200580592Y-45890829D01*
X200645000Y-46214628D01*
X200645000Y-46544772D01*
X200580592Y-46868571D01*
X200454252Y-47173583D01*
X200410685Y-47238785D01*
X200270832Y-47448090D01*
X200037390Y-47681532D01*
X200037387Y-47681534D01*
X199762883Y-47864952D01*
X199695316Y-47892939D01*
X199457871Y-47991292D01*
X199134072Y-48055700D01*
X198803928Y-48055700D01*
X198480129Y-47991292D01*
X198242684Y-47892939D01*
X198175117Y-47864952D01*
X197900613Y-47681534D01*
X197900610Y-47681532D01*
X197667168Y-47448090D01*
X197527315Y-47238785D01*
X197483748Y-47173583D01*
X197357408Y-46868571D01*
X197293000Y-46544772D01*
X197293000Y-46214628D01*
X197357408Y-45890829D01*
X197483748Y-45585817D01*
X197667166Y-45311313D01*
X197667168Y-45311310D01*
X197900610Y-45077868D01*
X197902462Y-45076630D01*
X198175117Y-44894448D01*
X198480129Y-44768108D01*
X198803928Y-44703700D01*
X199134072Y-44703700D01*
X199457871Y-44768108D01*
X199457871Y-44768108D01*
G37*
G36*
X188027871Y-44768108D02*
X188332883Y-44894448D01*
X188605538Y-45076630D01*
X188607390Y-45077868D01*
X188840832Y-45311310D01*
X188840834Y-45311313D01*
X189024252Y-45585817D01*
X189150592Y-45890829D01*
X189215000Y-46214628D01*
X189215000Y-46544772D01*
X189150592Y-46868571D01*
X189024252Y-47173583D01*
X188980685Y-47238785D01*
X188840832Y-47448090D01*
X188607390Y-47681532D01*
X188607387Y-47681534D01*
X188332883Y-47864952D01*
X188265316Y-47892939D01*
X188027871Y-47991292D01*
X187704072Y-48055700D01*
X187373928Y-48055700D01*
X187050129Y-47991292D01*
X186812684Y-47892939D01*
X186745117Y-47864952D01*
X186470613Y-47681534D01*
X186470610Y-47681532D01*
X186237168Y-47448090D01*
X186097315Y-47238785D01*
X186053748Y-47173583D01*
X185927408Y-46868571D01*
X185863000Y-46544772D01*
X185863000Y-46214628D01*
X185927408Y-45890829D01*
X186053748Y-45585817D01*
X186237166Y-45311313D01*
X186237168Y-45311310D01*
X186470610Y-45077868D01*
X186472462Y-45076630D01*
X186745117Y-44894448D01*
X187050129Y-44768108D01*
X187373928Y-44703700D01*
X187704072Y-44703700D01*
X188027871Y-44768108D01*
X188027871Y-44768108D01*
G37*
G36*
X144151000Y-44451000D02*
X141449000Y-44451000D01*
X141449000Y-41749000D01*
X144151000Y-41749000D01*
X144151000Y-44451000D01*
X144151000Y-44451000D01*
G37*
G36*
X180151000Y-44321000D02*
X177449000Y-44321000D01*
X177449000Y-41619000D01*
X180151000Y-41619000D01*
X180151000Y-44321000D01*
X180151000Y-44321000D01*
G37*
G36*
X154063567Y-41644959D02*
X154194072Y-41670918D01*
X154439939Y-41772759D01*
X154613502Y-41888731D01*
X154661215Y-41920612D01*
X154849388Y-42108785D01*
X154849390Y-42108788D01*
X154997241Y-42330061D01*
X155099082Y-42575928D01*
X155151000Y-42836938D01*
X155151000Y-43103062D01*
X155099082Y-43364072D01*
X154997241Y-43609939D01*
X154849890Y-43830464D01*
X154849388Y-43831215D01*
X154661215Y-44019388D01*
X154661212Y-44019390D01*
X154439939Y-44167241D01*
X154194072Y-44269082D01*
X154063567Y-44295041D01*
X153933063Y-44321000D01*
X153666937Y-44321000D01*
X153536433Y-44295041D01*
X153405928Y-44269082D01*
X153160061Y-44167241D01*
X152938788Y-44019390D01*
X152938785Y-44019388D01*
X152750612Y-43831215D01*
X152750110Y-43830464D01*
X152602759Y-43609939D01*
X152500918Y-43364072D01*
X152449000Y-43103062D01*
X152449000Y-42836938D01*
X152500918Y-42575928D01*
X152602759Y-42330061D01*
X152750610Y-42108788D01*
X152750612Y-42108785D01*
X152938785Y-41920612D01*
X152986498Y-41888731D01*
X153160061Y-41772759D01*
X153405928Y-41670918D01*
X153536433Y-41644959D01*
X153666937Y-41619000D01*
X153933063Y-41619000D01*
X154063567Y-41644959D01*
X154063567Y-41644959D01*
G37*
G36*
X159063567Y-41644959D02*
X159194072Y-41670918D01*
X159439939Y-41772759D01*
X159613502Y-41888731D01*
X159661215Y-41920612D01*
X159849388Y-42108785D01*
X159849390Y-42108788D01*
X159997241Y-42330061D01*
X160099082Y-42575928D01*
X160151000Y-42836938D01*
X160151000Y-43103062D01*
X160099082Y-43364072D01*
X159997241Y-43609939D01*
X159849890Y-43830464D01*
X159849388Y-43831215D01*
X159661215Y-44019388D01*
X159661212Y-44019390D01*
X159439939Y-44167241D01*
X159194072Y-44269082D01*
X159063567Y-44295041D01*
X158933063Y-44321000D01*
X158666937Y-44321000D01*
X158536433Y-44295041D01*
X158405928Y-44269082D01*
X158160061Y-44167241D01*
X157938788Y-44019390D01*
X157938785Y-44019388D01*
X157750612Y-43831215D01*
X157750110Y-43830464D01*
X157602759Y-43609939D01*
X157500918Y-43364072D01*
X157449000Y-43103062D01*
X157449000Y-42836938D01*
X157500918Y-42575928D01*
X157602759Y-42330061D01*
X157750610Y-42108788D01*
X157750612Y-42108785D01*
X157938785Y-41920612D01*
X157986498Y-41888731D01*
X158160061Y-41772759D01*
X158405928Y-41670918D01*
X158536433Y-41644959D01*
X158666937Y-41619000D01*
X158933063Y-41619000D01*
X159063567Y-41644959D01*
X159063567Y-41644959D01*
G37*
G36*
X164063567Y-41644959D02*
X164194072Y-41670918D01*
X164439939Y-41772759D01*
X164613502Y-41888731D01*
X164661215Y-41920612D01*
X164849388Y-42108785D01*
X164849390Y-42108788D01*
X164997241Y-42330061D01*
X165099082Y-42575928D01*
X165151000Y-42836938D01*
X165151000Y-43103062D01*
X165099082Y-43364072D01*
X164997241Y-43609939D01*
X164849890Y-43830464D01*
X164849388Y-43831215D01*
X164661215Y-44019388D01*
X164661212Y-44019390D01*
X164439939Y-44167241D01*
X164194072Y-44269082D01*
X164063567Y-44295041D01*
X163933063Y-44321000D01*
X163666937Y-44321000D01*
X163536433Y-44295041D01*
X163405928Y-44269082D01*
X163160061Y-44167241D01*
X162938788Y-44019390D01*
X162938785Y-44019388D01*
X162750612Y-43831215D01*
X162750110Y-43830464D01*
X162602759Y-43609939D01*
X162500918Y-43364072D01*
X162449000Y-43103062D01*
X162449000Y-42836938D01*
X162500918Y-42575928D01*
X162602759Y-42330061D01*
X162750610Y-42108788D01*
X162750612Y-42108785D01*
X162938785Y-41920612D01*
X162986498Y-41888731D01*
X163160061Y-41772759D01*
X163405928Y-41670918D01*
X163536433Y-41644959D01*
X163666937Y-41619000D01*
X163933063Y-41619000D01*
X164063567Y-41644959D01*
X164063567Y-41644959D01*
G37*
G36*
X169063567Y-41644959D02*
X169194072Y-41670918D01*
X169439939Y-41772759D01*
X169613502Y-41888731D01*
X169661215Y-41920612D01*
X169849388Y-42108785D01*
X169849390Y-42108788D01*
X169997241Y-42330061D01*
X170099082Y-42575928D01*
X170151000Y-42836938D01*
X170151000Y-43103062D01*
X170099082Y-43364072D01*
X169997241Y-43609939D01*
X169849890Y-43830464D01*
X169849388Y-43831215D01*
X169661215Y-44019388D01*
X169661212Y-44019390D01*
X169439939Y-44167241D01*
X169194072Y-44269082D01*
X169063567Y-44295041D01*
X168933063Y-44321000D01*
X168666937Y-44321000D01*
X168536433Y-44295041D01*
X168405928Y-44269082D01*
X168160061Y-44167241D01*
X167938788Y-44019390D01*
X167938785Y-44019388D01*
X167750612Y-43831215D01*
X167750110Y-43830464D01*
X167602759Y-43609939D01*
X167500918Y-43364072D01*
X167449000Y-43103062D01*
X167449000Y-42836938D01*
X167500918Y-42575928D01*
X167602759Y-42330061D01*
X167750610Y-42108788D01*
X167750612Y-42108785D01*
X167938785Y-41920612D01*
X167986498Y-41888731D01*
X168160061Y-41772759D01*
X168405928Y-41670918D01*
X168536433Y-41644959D01*
X168666937Y-41619000D01*
X168933063Y-41619000D01*
X169063567Y-41644959D01*
X169063567Y-41644959D01*
G37*
G36*
X174063567Y-41644959D02*
X174194072Y-41670918D01*
X174439939Y-41772759D01*
X174613502Y-41888731D01*
X174661215Y-41920612D01*
X174849388Y-42108785D01*
X174849390Y-42108788D01*
X174997241Y-42330061D01*
X175099082Y-42575928D01*
X175151000Y-42836938D01*
X175151000Y-43103062D01*
X175099082Y-43364072D01*
X174997241Y-43609939D01*
X174849890Y-43830464D01*
X174849388Y-43831215D01*
X174661215Y-44019388D01*
X174661212Y-44019390D01*
X174439939Y-44167241D01*
X174194072Y-44269082D01*
X174063567Y-44295041D01*
X173933063Y-44321000D01*
X173666937Y-44321000D01*
X173536433Y-44295041D01*
X173405928Y-44269082D01*
X173160061Y-44167241D01*
X172938788Y-44019390D01*
X172938785Y-44019388D01*
X172750612Y-43831215D01*
X172750110Y-43830464D01*
X172602759Y-43609939D01*
X172500918Y-43364072D01*
X172449000Y-43103062D01*
X172449000Y-42836938D01*
X172500918Y-42575928D01*
X172602759Y-42330061D01*
X172750610Y-42108788D01*
X172750612Y-42108785D01*
X172938785Y-41920612D01*
X172986498Y-41888731D01*
X173160061Y-41772759D01*
X173405928Y-41670918D01*
X173536433Y-41644959D01*
X173666937Y-41619000D01*
X173933063Y-41619000D01*
X174063567Y-41644959D01*
X174063567Y-41644959D01*
G37*
G36*
X227218567Y-40927959D02*
X227349072Y-40953918D01*
X227594939Y-41055759D01*
X227815464Y-41203110D01*
X227816215Y-41203612D01*
X228004388Y-41391785D01*
X228004390Y-41391788D01*
X228152241Y-41613061D01*
X228254082Y-41858928D01*
X228306000Y-42119938D01*
X228306000Y-42386062D01*
X228254082Y-42647072D01*
X228152241Y-42892939D01*
X228011840Y-43103062D01*
X228004388Y-43114215D01*
X227816215Y-43302388D01*
X227816212Y-43302390D01*
X227594939Y-43450241D01*
X227349072Y-43552082D01*
X227218567Y-43578041D01*
X227088063Y-43604000D01*
X226821937Y-43604000D01*
X226691433Y-43578041D01*
X226560928Y-43552082D01*
X226315061Y-43450241D01*
X226093788Y-43302390D01*
X226093785Y-43302388D01*
X225905612Y-43114215D01*
X225898160Y-43103062D01*
X225757759Y-42892939D01*
X225655918Y-42647072D01*
X225604000Y-42386062D01*
X225604000Y-42119938D01*
X225655918Y-41858928D01*
X225757759Y-41613061D01*
X225905610Y-41391788D01*
X225905612Y-41391785D01*
X226093785Y-41203612D01*
X226094536Y-41203110D01*
X226315061Y-41055759D01*
X226560928Y-40953918D01*
X226691433Y-40927959D01*
X226821937Y-40902000D01*
X227088063Y-40902000D01*
X227218567Y-40927959D01*
X227218567Y-40927959D01*
G37*
G36*
X207688412Y-37225134D02*
X207920346Y-37271269D01*
X208101338Y-37346239D01*
X208357299Y-37452261D01*
X208750551Y-37715024D01*
X209084976Y-38049449D01*
X209347739Y-38442701D01*
X209528731Y-38879655D01*
X209621000Y-39343521D01*
X209621000Y-39816479D01*
X209528731Y-40280345D01*
X209347739Y-40717299D01*
X209084976Y-41110551D01*
X208750551Y-41444976D01*
X208357299Y-41707739D01*
X208101338Y-41813761D01*
X207920346Y-41888731D01*
X207760079Y-41920610D01*
X207456479Y-41981000D01*
X206983521Y-41981000D01*
X206679921Y-41920610D01*
X206519654Y-41888731D01*
X206338662Y-41813761D01*
X206082701Y-41707739D01*
X205689449Y-41444976D01*
X205355024Y-41110551D01*
X205092261Y-40717299D01*
X204911269Y-40280345D01*
X204819000Y-39816479D01*
X204819000Y-39343521D01*
X204911269Y-38879655D01*
X205092261Y-38442701D01*
X205355024Y-38049449D01*
X205689449Y-37715024D01*
X206082701Y-37452261D01*
X206338662Y-37346239D01*
X206519654Y-37271269D01*
X206751588Y-37225135D01*
X206983521Y-37179000D01*
X207456479Y-37179000D01*
X207688412Y-37225134D01*
X207688412Y-37225134D01*
G37*
M02*
